# https://github.com/mikedh/trimesh
v -0.0675000027 -0.0299999993 -0.0170000009
v -0.0675000027 -0.0299999993 0.0170000009
v -0.0675000027 -0.0189780872 -0.0004181139
v -0.0675000027 -0.0188042261 0.0012360680
v -0.0675000027 -0.0184641015 -0.0020000001
v -0.0675000027 -0.0179725792 0.0026765224
v -0.0675000027 -0.0173511412 -0.0032360679
v -0.0675000027 -0.0166269466 0.0036541817
v -0.0675000027 -0.0158316474 -0.0039125904
v -0.0675000027 -0.0149999997 0.0040000002
v -0.0675000027 -0.0141683528 -0.0039125904
v -0.0675000027 -0.0133730536 0.0036541817
v -0.0675000027 -0.0126488591 -0.0032360679
v -0.0675000027 -0.0120274210 0.0026765224
v -0.0675000027 -0.0115358988 -0.0020000001
v -0.0675000027 -0.0111957742 0.0012360680
v -0.0675000027 -0.0110219121 -0.0004181139
v -0.0675000027 -0.0000000003 -0.0170000009
v -0.0675000027 -0.0000000003 0.0170000009
v -0.0665000007 -0.0189780872 -0.0004181139
v -0.0665000007 -0.0188042261 0.0012360680
v -0.0665000007 -0.0184641015 -0.0020000001
v -0.0665000007 -0.0179725792 0.0026765224
v -0.0665000007 -0.0173511412 -0.0032360679
v -0.0665000007 -0.0166269466 0.0036541817
v -0.0665000007 -0.0164999999 -0.0000000000
v -0.0665000007 -0.0162990373 -0.0007500000
v -0.0665000007 -0.0162990373 0.0007500000
v -0.0665000007 -0.0158316474 -0.0039125904
v -0.0665000007 -0.0157500003 -0.0012990381
v -0.0665000007 -0.0157500003 0.0012990381
v -0.0665000007 -0.0149999997 -0.0015000000
v -0.0665000007 -0.0149999997 0.0015000000
v -0.0665000007 -0.0149999997 0.0040000002
v -0.0665000007 -0.0142500000 -0.0012990381
v -0.0665000007 -0.0142500000 0.0012990381
v -0.0665000007 -0.0141683528 -0.0039125904
v -0.0665000007 -0.0137009621 -0.0007500000
v -0.0665000007 -0.0137009621 0.0007500000
v -0.0665000007 -0.0135000004 -0.0000000000
v -0.0665000007 -0.0133730536 0.0036541817
v -0.0665000007 -0.0126488591 -0.0032360679
v -0.0665000007 -0.0120274210 0.0026765224
v -0.0665000007 -0.0115358988 -0.0020000001
v -0.0665000007 -0.0111957742 0.0012360680
v -0.0665000007 -0.0110219121 -0.0004181139
v -0.0640000030 -0.0181754269 -0.0000000000
v -0.0640000030 -0.0165877137 -0.0027500000
v -0.0640000030 -0.0165877137 0.0027500000
v -0.0640000030 -0.0164999999 -0.0000000000
v -0.0640000030 -0.0162990373 -0.0007500000
v -0.0640000030 -0.0162990373 0.0007500000
v -0.0640000030 -0.0157500003 -0.0012990381
v -0.0640000030 -0.0157500003 0.0012990381
v -0.0640000030 -0.0149999997 -0.0015000000
v -0.0640000030 -0.0149999997 0.0015000000
v -0.0640000030 -0.0142500000 -0.0012990381
v -0.0640000030 -0.0142500000 0.0012990381
v -0.0640000030 -0.0137009621 -0.0007500000
v -0.0640000030 -0.0137009621 0.0007500000
v -0.0640000030 -0.0135000004 -0.0000000000
v -0.0640000030 -0.0134122865 -0.0027500000
v -0.0640000030 -0.0134122865 0.0027500000
v -0.0640000030 -0.0118245734 -0.0000000000
v -0.0619999990 -0.0299999993 -0.0099999998
v -0.0619999990 -0.0299999993 0.0099999998
v -0.0619999990 -0.0181754269 -0.0000000000
v -0.0619999990 -0.0165877137 -0.0027500000
v -0.0619999990 -0.0165877137 0.0027500000
v -0.0619999990 -0.0134122865 -0.0027500000
v -0.0619999990 -0.0134122865 0.0027500000
v -0.0619999990 -0.0118245734 -0.0000000000
v -0.0619999990 -0.0000000003 -0.0099999998
v -0.0619999990 -0.0000000003 0.0099999998
v -0.0555000007 -0.0294499993 -0.0099999998
v -0.0555000007 -0.0294499993 -0.0044999998
v -0.0555000007 -0.0294499993 0.0044999998
v -0.0555000007 -0.0294499993 0.0099999998
v -0.0555000007 -0.0005500003 -0.0099999998
v -0.0555000007 -0.0005500003 -0.0044999998
v -0.0555000007 -0.0005500003 0.0044999998
v -0.0555000007 -0.0005500003 0.0099999998
v -0.0509999990 -0.0294499993 -0.0044999998
v -0.0509999990 -0.0294499993 0.0044999998
v -0.0509999990 -0.0005500003 -0.0044999998
v -0.0509999990 -0.0005500003 0.0044999998
v -0.0505000018 -0.0215000007 -0.0074999998
v -0.0505000018 -0.0215000007 0.0074999998
v -0.0505000018 -0.0213514529 -0.0081508253
v -0.0505000018 -0.0213514529 -0.0068491744
v -0.0505000018 -0.0213514529 0.0068491744
v -0.0505000018 -0.0213514529 0.0081508253
v -0.0505000018 -0.0209352337 -0.0086727468
v -0.0505000018 -0.0209352337 -0.0063272528
v -0.0505000018 -0.0209352337 0.0063272528
v -0.0505000018 -0.0209352337 0.0086727468
v -0.0505000018 -0.0203337818 -0.0089623919
v -0.0505000018 -0.0203337818 -0.0060376083
v -0.0505000018 -0.0203337818 0.0060376083
v -0.0505000018 -0.0203337818 0.0089623919
v -0.0505000018 -0.0199999996 -0.0074999998
v -0.0505000018 -0.0199999996 0.0074999998
v -0.0505000018 -0.0196662191 -0.0089623919
v -0.0505000018 -0.0196662191 -0.0060376083
v -0.0505000018 -0.0196662191 0.0060376083
v -0.0505000018 -0.0196662191 0.0089623919
v -0.0505000018 -0.0190647654 -0.0086727468
v -0.0505000018 -0.0190647654 -0.0063272528
v -0.0505000018 -0.0190647654 0.0063272528
v -0.0505000018 -0.0190647654 0.0086727468
v -0.0505000018 -0.0186485462 -0.0081508253
v -0.0505000018 -0.0186485462 -0.0068491744
v -0.0505000018 -0.0186485462 0.0068491744
v -0.0505000018 -0.0186485462 0.0081508253
v -0.0505000018 -0.0185000002 -0.0074999998
v -0.0505000018 -0.0185000002 0.0074999998
v -0.0505000018 -0.0115000000 -0.0074999998
v -0.0505000018 -0.0115000000 0.0074999998
v -0.0505000018 -0.0113514531 -0.0081508253
v -0.0505000018 -0.0113514531 -0.0068491744
v -0.0505000018 -0.0113514531 0.0068491744
v -0.0505000018 -0.0113514531 0.0081508253
v -0.0505000018 -0.0109352348 -0.0086727468
v -0.0505000018 -0.0109352348 -0.0063272528
v -0.0505000018 -0.0109352348 0.0063272528
v -0.0505000018 -0.0109352348 0.0086727468
v -0.0505000018 -0.0103337811 -0.0089623919
v -0.0505000018 -0.0103337811 -0.0060376083
v -0.0505000018 -0.0103337811 0.0060376083
v -0.0505000018 -0.0103337811 0.0089623919
v -0.0505000018 -0.0099999998 -0.0074999998
v -0.0505000018 -0.0099999998 0.0074999998
v -0.0505000018 -0.0096662184 -0.0089623919
v -0.0505000018 -0.0096662184 -0.0060376083
v -0.0505000018 -0.0096662184 0.0060376083
v -0.0505000018 -0.0096662184 0.0089623919
v -0.0505000018 -0.0090647656 -0.0086727468
v -0.0505000018 -0.0090647656 -0.0063272528
v -0.0505000018 -0.0090647656 0.0063272528
v -0.0505000018 -0.0090647656 0.0086727468
v -0.0505000018 -0.0086485464 -0.0081508253
v -0.0505000018 -0.0086485464 -0.0068491744
v -0.0505000018 -0.0086485464 0.0068491744
v -0.0505000018 -0.0086485464 0.0081508253
v -0.0505000018 -0.0084999995 -0.0074999998
v -0.0505000018 -0.0084999995 0.0074999998
v -0.0474999994 -0.0299999993 -0.0230000000
v -0.0474999994 -0.0299999993 -0.0170000009
v -0.0474999994 -0.0299999993 -0.0099999998
v -0.0474999994 -0.0299999993 0.0099999998
v -0.0474999994 -0.0299999993 0.0170000009
v -0.0474999994 -0.0299999993 0.0230000000
v -0.0474999994 -0.0294499993 -0.0099999998
v -0.0474999994 -0.0294499993 0.0099999998
v -0.0474999994 -0.0215000007 -0.0074999998
v -0.0474999994 -0.0215000007 0.0074999998
v -0.0474999994 -0.0213514529 -0.0081508253
v -0.0474999994 -0.0213514529 -0.0068491744
v -0.0474999994 -0.0213514529 0.0068491744
v -0.0474999994 -0.0213514529 0.0081508253
v -0.0474999994 -0.0212990381 -0.0082500000
v -0.0474999994 -0.0212990381 -0.0067500002
v -0.0474999994 -0.0212990381 0.0067500002
v -0.0474999994 -0.0212990381 0.0082500000
v -0.0474999994 -0.0209352337 -0.0086727468
v -0.0474999994 -0.0209352337 -0.0063272528
v -0.0474999994 -0.0209352337 0.0063272528
v -0.0474999994 -0.0209352337 0.0086727468
v -0.0474999994 -0.0207499992 -0.0087990379
v -0.0474999994 -0.0207499992 -0.0062009618
v -0.0474999994 -0.0207499992 0.0062009618
v -0.0474999994 -0.0207499992 0.0087990379
v -0.0474999994 -0.0203337818 -0.0089623919
v -0.0474999994 -0.0203337818 -0.0060376083
v -0.0474999994 -0.0203337818 0.0060376083
v -0.0474999994 -0.0203337818 0.0089623919
v -0.0474999994 -0.0199999996 -0.0089999996
v -0.0474999994 -0.0199999996 -0.0060000001
v -0.0474999994 -0.0199999996 0.0060000001
v -0.0474999994 -0.0199999996 0.0089999996
v -0.0474999994 -0.0196662191 -0.0089623919
v -0.0474999994 -0.0196662191 -0.0060376083
v -0.0474999994 -0.0196662191 0.0060376083
v -0.0474999994 -0.0196662191 0.0089623919
v -0.0474999994 -0.0192499999 -0.0087990379
v -0.0474999994 -0.0192499999 -0.0062009618
v -0.0474999994 -0.0192499999 0.0062009618
v -0.0474999994 -0.0192499999 0.0087990379
v -0.0474999994 -0.0190647654 -0.0086727468
v -0.0474999994 -0.0190647654 -0.0063272528
v -0.0474999994 -0.0190647654 0.0063272528
v -0.0474999994 -0.0190647654 0.0086727468
v -0.0474999994 -0.0187009610 -0.0082500000
v -0.0474999994 -0.0187009610 -0.0067500002
v -0.0474999994 -0.0187009610 0.0067500002
v -0.0474999994 -0.0187009610 0.0082500000
v -0.0474999994 -0.0186485462 -0.0081508253
v -0.0474999994 -0.0186485462 -0.0068491744
v -0.0474999994 -0.0186485462 0.0068491744
v -0.0474999994 -0.0186485462 0.0081508253
v -0.0474999994 -0.0185000002 -0.0074999998
v -0.0474999994 -0.0185000002 0.0074999998
v -0.0474999994 -0.0115000000 -0.0074999998
v -0.0474999994 -0.0115000000 0.0074999998
v -0.0474999994 -0.0113514531 -0.0081508253
v -0.0474999994 -0.0113514531 -0.0068491744
v -0.0474999994 -0.0113514531 0.0068491744
v -0.0474999994 -0.0113514531 0.0081508253
v -0.0474999994 -0.0112990383 -0.0082500000
v -0.0474999994 -0.0112990383 -0.0067500002
v -0.0474999994 -0.0112990383 0.0067500002
v -0.0474999994 -0.0112990383 0.0082500000
v -0.0474999994 -0.0109352348 -0.0086727468
v -0.0474999994 -0.0109352348 -0.0063272528
v -0.0474999994 -0.0109352348 0.0063272528
v -0.0474999994 -0.0109352348 0.0086727468
v -0.0474999994 -0.0107499994 -0.0087990379
v -0.0474999994 -0.0107499994 -0.0062009618
v -0.0474999994 -0.0107499994 0.0062009618
v -0.0474999994 -0.0107499994 0.0087990379
v -0.0474999994 -0.0103337811 -0.0089623919
v -0.0474999994 -0.0103337811 -0.0060376083
v -0.0474999994 -0.0103337811 0.0060376083
v -0.0474999994 -0.0103337811 0.0089623919
v -0.0474999994 -0.0099999998 -0.0089999996
v -0.0474999994 -0.0099999998 -0.0060000001
v -0.0474999994 -0.0099999998 0.0060000001
v -0.0474999994 -0.0099999998 0.0089999996
v -0.0474999994 -0.0096662184 -0.0089623919
v -0.0474999994 -0.0096662184 -0.0060376083
v -0.0474999994 -0.0096662184 0.0060376083
v -0.0474999994 -0.0096662184 0.0089623919
v -0.0474999994 -0.0092500001 -0.0087990379
v -0.0474999994 -0.0092500001 -0.0062009618
v -0.0474999994 -0.0092500001 0.0062009618
v -0.0474999994 -0.0092500001 0.0087990379
v -0.0474999994 -0.0090647656 -0.0086727468
v -0.0474999994 -0.0090647656 -0.0063272528
v -0.0474999994 -0.0090647656 0.0063272528
v -0.0474999994 -0.0090647656 0.0086727468
v -0.0474999994 -0.0087009622 -0.0082500000
v -0.0474999994 -0.0087009622 -0.0067500002
v -0.0474999994 -0.0087009622 0.0067500002
v -0.0474999994 -0.0087009622 0.0082500000
v -0.0474999994 -0.0086485464 -0.0081508253
v -0.0474999994 -0.0086485464 -0.0068491744
v -0.0474999994 -0.0086485464 0.0068491744
v -0.0474999994 -0.0086485464 0.0081508253
v -0.0474999994 -0.0084999995 -0.0074999998
v -0.0474999994 -0.0084999995 0.0074999998
v -0.0474999994 -0.0005500003 -0.0099999998
v -0.0474999994 -0.0005500003 0.0099999998
v -0.0474999994 -0.0000000003 -0.0230000000
v -0.0474999994 -0.0000000003 -0.0170000009
v -0.0474999994 -0.0000000003 -0.0099999998
v -0.0474999994 -0.0000000003 0.0099999998
v -0.0474999994 -0.0000000003 0.0170000009
v -0.0474999994 -0.0000000003 0.0230000000
v -0.0425000004 -0.0229781270 -0.0078616105
v -0.0425000004 -0.0229781270 0.0071383901
v -0.0425000004 -0.0228050482 -0.0064361854
v -0.0425000004 -0.0228050482 0.0085638147
v -0.0425000004 -0.0224689506 -0.0092041939
v -0.0425000004 -0.0224689506 0.0057958057
v -0.0425000004 -0.0219893679 -0.0052544679
v -0.0425000004 -0.0219893679 0.0097455326
v -0.0425000004 -0.0215000007 -0.0074999998
v -0.0425000004 -0.0215000007 0.0074999998
v -0.0425000004 -0.0213941690 -0.0101563679
v -0.0425000004 -0.0213941690 0.0048436318
v -0.0425000004 -0.0212990381 -0.0082500000
v -0.0425000004 -0.0212990381 -0.0067500002
v -0.0425000004 -0.0212990381 0.0067500002
v -0.0425000004 -0.0212990381 0.0082500000
v -0.0425000004 -0.0207499992 -0.0087990379
v -0.0425000004 -0.0207499992 -0.0062009618
v -0.0425000004 -0.0207499992 0.0062009618
v -0.0425000004 -0.0207499992 0.0087990379
v -0.0425000004 -0.0207179468 -0.0045871744
v -0.0425000004 -0.0207179468 0.0104128253
v -0.0425000004 -0.0199999996 -0.0104999999
v -0.0425000004 -0.0199999996 -0.0089999996
v -0.0425000004 -0.0199999996 -0.0060000001
v -0.0425000004 -0.0199999996 0.0044999998
v -0.0425000004 -0.0199999996 0.0060000001
v -0.0425000004 -0.0199999996 0.0089999996
v -0.0425000004 -0.0192820523 -0.0045871744
v -0.0425000004 -0.0192820523 0.0104128253
v -0.0425000004 -0.0192499999 -0.0087990379
v -0.0425000004 -0.0192499999 -0.0062009618
v -0.0425000004 -0.0192499999 0.0062009618
v -0.0425000004 -0.0192499999 0.0087990379
v -0.0425000004 -0.0187009610 -0.0082500000
v -0.0425000004 -0.0187009610 -0.0067500002
v -0.0425000004 -0.0187009610 0.0067500002
v -0.0425000004 -0.0187009610 0.0082500000
v -0.0425000004 -0.0186058301 -0.0101563679
v -0.0425000004 -0.0186058301 0.0048436318
v -0.0425000004 -0.0185000002 -0.0074999998
v -0.0425000004 -0.0185000002 0.0074999998
v -0.0425000004 -0.0180106312 -0.0052544679
v -0.0425000004 -0.0180106312 0.0097455326
v -0.0425000004 -0.0175310485 -0.0092041939
v -0.0425000004 -0.0175310485 0.0057958057
v -0.0425000004 -0.0171949510 -0.0064361854
v -0.0425000004 -0.0171949510 0.0085638147
v -0.0425000004 -0.0170218740 -0.0078616105
v -0.0425000004 -0.0170218740 0.0071383901
v -0.0425000004 -0.0129781263 -0.0078616105
v -0.0425000004 -0.0129781263 0.0071383901
v -0.0425000004 -0.0128050484 -0.0064361854
v -0.0425000004 -0.0128050484 0.0085638147
v -0.0425000004 -0.0124689518 -0.0092041939
v -0.0425000004 -0.0124689518 0.0057958057
v -0.0425000004 -0.0119893681 -0.0052544679
v -0.0425000004 -0.0119893681 0.0097455326
v -0.0425000004 -0.0115000000 -0.0074999998
v -0.0425000004 -0.0115000000 0.0074999998
v -0.0425000004 -0.0113941692 -0.0101563679
v -0.0425000004 -0.0113941692 0.0048436318
v -0.0425000004 -0.0112990383 -0.0082500000
v -0.0425000004 -0.0112990383 -0.0067500002
v -0.0425000004 -0.0112990383 0.0067500002
v -0.0425000004 -0.0112990383 0.0082500000
v -0.0425000004 -0.0107499994 -0.0087990379
v -0.0425000004 -0.0107499994 -0.0062009618
v -0.0425000004 -0.0107499994 0.0062009618
v -0.0425000004 -0.0107499994 0.0087990379
v -0.0425000004 -0.0107179470 -0.0045871744
v -0.0425000004 -0.0107179470 0.0104128253
v -0.0425000004 -0.0099999998 -0.0104999999
v -0.0425000004 -0.0099999998 -0.0089999996
v -0.0425000004 -0.0099999998 -0.0060000001
v -0.0425000004 -0.0099999998 0.0044999998
v -0.0425000004 -0.0099999998 0.0060000001
v -0.0425000004 -0.0099999998 0.0089999996
v -0.0425000004 -0.0092820525 -0.0045871744
v -0.0425000004 -0.0092820525 0.0104128253
v -0.0425000004 -0.0092500001 -0.0087990379
v -0.0425000004 -0.0092500001 -0.0062009618
v -0.0425000004 -0.0092500001 0.0062009618
v -0.0425000004 -0.0092500001 0.0087990379
v -0.0425000004 -0.0087009622 -0.0082500000
v -0.0425000004 -0.0087009622 -0.0067500002
v -0.0425000004 -0.0087009622 0.0067500002
v -0.0425000004 -0.0087009622 0.0082500000
v -0.0425000004 -0.0086058304 -0.0101563679
v -0.0425000004 -0.0086058304 0.0048436318
v -0.0425000004 -0.0084999995 -0.0074999998
v -0.0425000004 -0.0084999995 0.0074999998
v -0.0425000004 -0.0080106324 -0.0052544679
v -0.0425000004 -0.0080106324 0.0097455326
v -0.0425000004 -0.0075310487 -0.0092041939
v -0.0425000004 -0.0075310487 0.0057958057
v -0.0425000004 -0.0071949512 -0.0064361854
v -0.0425000004 -0.0071949512 0.0085638147
v -0.0425000004 -0.0070218737 -0.0078616105
v -0.0425000004 -0.0070218737 0.0071383901
v -0.0375000015 -0.0299999993 -0.0149999997
v -0.0375000015 -0.0299999993 0.0149999997
v -0.0375000015 -0.0257959347 -0.0149999997
v -0.0375000015 -0.0257959347 0.0149999997
v -0.0375000015 -0.0229781270 -0.0078616105
v -0.0375000015 -0.0229781270 0.0071383901
v -0.0375000015 -0.0228333846 -0.0149999997
v -0.0375000015 -0.0228333846 0.0149999997
v -0.0375000015 -0.0228050482 -0.0064361854
v -0.0375000015 -0.0228050482 0.0085638147
v -0.0375000015 -0.0224689506 -0.0092041939
v -0.0375000015 -0.0224689506 0.0057958057
v -0.0375000015 -0.0219893679 -0.0052544679
v -0.0375000015 -0.0219893679 0.0097455326
v -0.0375000015 -0.0213941690 -0.0101563679
v -0.0375000015 -0.0213941690 0.0048436318
v -0.0375000015 -0.0207179468 -0.0045871744
v -0.0375000015 -0.0207179468 0.0104128253
v -0.0375000015 -0.0199999996 -0.0104999999
v -0.0375000015 -0.0199999996 0.0044999998
v -0.0375000015 -0.0192820523 -0.0045871744
v -0.0375000015 -0.0192820523 0.0104128253
v -0.0375000015 -0.0186058301 -0.0101563679
v -0.0375000015 -0.0186058301 0.0048436318
v -0.0375000015 -0.0180106312 -0.0052544679
v -0.0375000015 -0.0180106312 0.0097455326
v -0.0375000015 -0.0175310485 -0.0092041939
v -0.0375000015 -0.0175310485 0.0057958057
v -0.0375000015 -0.0171949510 -0.0064361854
v -0.0375000015 -0.0171949510 0.0085638147
v -0.0375000015 -0.0170218740 -0.0078616105
v -0.0375000015 -0.0170218740 0.0071383901
v -0.0375000015 -0.0129781263 -0.0078616105
v -0.0375000015 -0.0129781263 0.0071383901
v -0.0375000015 -0.0128050484 -0.0064361854
v -0.0375000015 -0.0128050484 0.0085638147
v -0.0375000015 -0.0124689518 -0.0092041939
v -0.0375000015 -0.0124689518 0.0057958057
v -0.0375000015 -0.0119893681 -0.0052544679
v -0.0375000015 -0.0119893681 0.0097455326
v -0.0375000015 -0.0113941692 -0.0101563679
v -0.0375000015 -0.0113941692 0.0048436318
v -0.0375000015 -0.0107179470 -0.0045871744
v -0.0375000015 -0.0107179470 0.0104128253
v -0.0375000015 -0.0099999998 -0.0104999999
v -0.0375000015 -0.0099999998 0.0044999998
v -0.0375000015 -0.0092820525 -0.0045871744
v -0.0375000015 -0.0092820525 0.0104128253
v -0.0375000015 -0.0086058304 -0.0101563679
v -0.0375000015 -0.0086058304 0.0048436318
v -0.0375000015 -0.0080106324 -0.0052544679
v -0.0375000015 -0.0080106324 0.0097455326
v -0.0375000015 -0.0075310487 -0.0092041939
v -0.0375000015 -0.0075310487 0.0057958057
v -0.0375000015 -0.0071949512 -0.0064361854
v -0.0375000015 -0.0071949512 0.0085638147
v -0.0375000015 -0.0070218737 -0.0078616105
v -0.0375000015 -0.0070218737 0.0071383901
v -0.0375000015 -0.0032500001 -0.0149999997
v -0.0375000015 -0.0032500001 0.0149999997
v -0.0375000015 -0.0000000003 -0.0149999997
v -0.0375000015 -0.0000000003 0.0149999997
v -0.0375000015 0.0000000000 -0.0149999997
v -0.0375000015 0.0000000000 0.0149999997
v -0.0375000015 0.0000000000 -0.0149999997
v -0.0375000015 0.0000000000 0.0149999997
v -0.0352500007 -0.0265877135 -0.0230000000
v -0.0352500007 -0.0265877135 -0.0199999996
v -0.0352500007 -0.0234122872 -0.0230000000
v -0.0352500007 -0.0234122872 -0.0199999996
v -0.0352500007 -0.0065877135 -0.0230000000
v -0.0352500007 -0.0065877135 -0.0199999996
v -0.0352500007 -0.0034122870 -0.0230000000
v -0.0352500007 -0.0034122870 -0.0199999996
v -0.0352299474 -0.0246685240 0.0199999996
v -0.0352299474 -0.0246685240 0.0230000000
v -0.0352299474 -0.0046685240 0.0199999996
v -0.0352299474 -0.0046685240 0.0230000000
v -0.0350712948 -0.0259751640 0.0199999996
v -0.0350712948 -0.0259751640 0.0230000000
v -0.0350712948 -0.0059751640 0.0199999996
v -0.0350712948 -0.0059751640 0.0230000000
v -0.0347632058 -0.0234378222 0.0199999996
v -0.0347632058 -0.0234378222 0.0230000000
v -0.0347632058 -0.0034378220 0.0199999996
v -0.0347632058 -0.0034378220 0.0230000000
v -0.0344999991 -0.0173335411 -0.0149999997
v -0.0344999991 -0.0173335411 0.0149999997
v -0.0344999991 -0.0078332303 -0.0149999997
v -0.0344999991 -0.0078332303 0.0149999997
v -0.0343235880 -0.0270584039 0.0199999996
v -0.0343235880 -0.0270584039 0.0230000000
v -0.0343235880 -0.0070584049 0.0199999996
v -0.0343235880 -0.0070584049 0.0230000000
v -0.0342499986 -0.0299999993 -0.0149999997
v -0.0342499986 -0.0299999993 0.0149999997
v -0.0342499986 -0.0257959347 -0.0149999997
v -0.0342499986 -0.0257959347 0.0149999997
v -0.0342499986 -0.0228333846 -0.0149999997
v -0.0342499986 -0.0228333846 0.0149999997
v -0.0342499986 -0.0176493302 -0.0149999997
v -0.0342499986 -0.0176493302 0.0149999997
v -0.0342499986 -0.0081490194 -0.0149999997
v -0.0342499986 -0.0081490194 0.0149999997
v -0.0342499986 -0.0032500001 -0.0149999997
v -0.0342499986 -0.0032500001 0.0149999997
v -0.0342499986 0.0000000000 -0.0149999997
v -0.0342499986 0.0000000000 0.0149999997
v -0.0340000018 -0.0250000004 -0.0149999997
v -0.0340000018 -0.0250000004 0.0149999997
v -0.0340000018 -0.0049999999 -0.0149999997
v -0.0340000018 -0.0049999999 0.0149999997
v -0.0339999981 -0.0250000004 -0.0199999996
v -0.0339999981 -0.0250000004 -0.0149999997
v -0.0339999981 -0.0250000004 0.0149999997
v -0.0339999981 -0.0250000004 0.0199999996
v -0.0339999981 -0.0050000004 -0.0199999996
v -0.0339999981 -0.0050000004 -0.0149999997
v -0.0339999981 -0.0050000004 0.0149999997
v -0.0339999981 -0.0050000004 0.0199999996
v -0.0337990373 -0.0257500000 -0.0199999996
v -0.0337990373 -0.0257500000 -0.0149999997
v -0.0337990373 -0.0257500000 0.0149999997
v -0.0337990373 -0.0257500000 0.0199999996
v -0.0337990373 -0.0242500007 -0.0199999996
v -0.0337990373 -0.0242500007 -0.0149999997
v -0.0337990373 -0.0242500007 0.0149999997
v -0.0337990373 -0.0242500007 0.0199999996
v -0.0337990373 -0.0057500000 -0.0199999996
v -0.0337990373 -0.0057500000 -0.0149999997
v -0.0337990373 -0.0057500000 0.0149999997
v -0.0337990373 -0.0057500000 0.0199999996
v -0.0337990373 -0.0042500002 -0.0149999997
v -0.0337990373 -0.0042500002 0.0149999997
v -0.0337990373 -0.0042499998 -0.0199999996
v -0.0337990373 -0.0042499998 -0.0149999997
v -0.0337990373 -0.0042499998 0.0149999997
v -0.0337990373 -0.0042499998 0.0199999996
v -0.0337779894 -0.0225649960 0.0199999996
v -0.0337779894 -0.0225649960 0.0230000000
v -0.0337779894 -0.0025649958 0.0199999996
v -0.0337779894 -0.0025649958 0.0230000000
v -0.0332500003 -0.0262990389 -0.0199999996
v -0.0332500003 -0.0262990389 -0.0149999997
v -0.0332500003 -0.0262990389 0.0149999997
v -0.0332500003 -0.0262990389 0.0199999996
v -0.0332500003 -0.0237009618 -0.0199999996
v -0.0332500003 -0.0237009618 -0.0149999997
v -0.0332500003 -0.0237009618 0.0149999997
v -0.0332500003 -0.0237009618 0.0199999996
v -0.0332500003 -0.0062990380 -0.0199999996
v -0.0332500003 -0.0062990380 -0.0149999997
v -0.0332500003 -0.0062990380 0.0149999997
v -0.0332500003 -0.0062990380 0.0199999996
v -0.0332500003 -0.0037009618 -0.0149999997
v -0.0332500003 -0.0037009618 0.0149999997
v -0.0332500003 -0.0037009616 -0.0199999996
v -0.0332500003 -0.0037009616 -0.0149999997
v -0.0332500003 -0.0037009616 0.0149999997
v -0.0332500003 -0.0037009616 0.0199999996
v -0.0331581198 -0.0276700910 0.0199999996
v -0.0331581198 -0.0276700910 0.0230000000
v -0.0331581198 -0.0076700901 0.0199999996
v -0.0331581198 -0.0076700901 0.0230000000
v -0.0324999988 -0.0281754266 -0.0230000000
v -0.0324999988 -0.0281754266 -0.0199999996
v -0.0324999988 -0.0264999997 -0.0199999996
v -0.0324999988 -0.0264999997 -0.0149999997
v -0.0324999988 -0.0264999997 0.0149999997
v -0.0324999988 -0.0264999997 0.0199999996
v -0.0324999988 -0.0235000011 -0.0199999996
v -0.0324999988 -0.0235000011 -0.0149999997
v -0.0324999988 -0.0235000011 0.0149999997
v -0.0324999988 -0.0235000011 0.0199999996
v -0.0324999988 -0.0234999992 -0.0149999997
v -0.0324999988 -0.0234999992 0.0149999997
v -0.0324999988 -0.0222500004 0.0199999996
v -0.0324999988 -0.0222500004 0.0230000000
v -0.0324999988 -0.0218245741 -0.0230000000
v -0.0324999988 -0.0218245741 -0.0199999996
v -0.0324999988 -0.0081754262 -0.0230000000
v -0.0324999988 -0.0081754262 -0.0199999996
v -0.0324999988 -0.0065000001 -0.0149999997
v -0.0324999988 -0.0065000001 0.0149999997
v -0.0324999988 -0.0064999997 -0.0199999996
v -0.0324999988 -0.0064999997 -0.0149999997
v -0.0324999988 -0.0064999997 0.0149999997
v -0.0324999988 -0.0064999997 0.0199999996
v -0.0324999988 -0.0035000001 -0.0149999997
v -0.0324999988 -0.0035000001 0.0149999997
v -0.0324999988 -0.0034999999 -0.0199999996
v -0.0324999988 -0.0034999999 -0.0149999997
v -0.0324999988 -0.0034999999 0.0149999997
v -0.0324999988 -0.0034999999 0.0199999996
v -0.0324999988 -0.0022500001 0.0199999996
v -0.0324999988 -0.0022500001 0.0230000000
v -0.0324999988 -0.0018245740 -0.0230000000
v -0.0324999988 -0.0018245740 -0.0199999996
v -0.0318418816 -0.0276700910 0.0199999996
v -0.0318418816 -0.0276700910 0.0230000000
v -0.0318418816 -0.0076700901 0.0199999996
v -0.0318418816 -0.0076700901 0.0230000000
v -0.0317500010 -0.0262990389 -0.0199999996
v -0.0317500010 -0.0262990389 -0.0149999997
v -0.0317500010 -0.0262990389 0.0149999997
v -0.0317500010 -0.0262990389 0.0199999996
v -0.0317500010 -0.0237009618 -0.0199999996
v -0.0317500010 -0.0237009618 -0.0149999997
v -0.0317500010 -0.0237009618 0.0149999997
v -0.0317500010 -0.0237009618 0.0199999996
v -0.0317500010 -0.0062990380 -0.0199999996
v -0.0317500010 -0.0062990380 -0.0149999997
v -0.0317500010 -0.0062990380 0.0149999997
v -0.0317500010 -0.0062990380 0.0199999996
v -0.0317500010 -0.0037009618 -0.0149999997
v -0.0317500010 -0.0037009618 0.0149999997
v -0.0317500010 -0.0037009616 -0.0199999996
v -0.0317500010 -0.0037009616 -0.0149999997
v -0.0317500010 -0.0037009616 0.0149999997
v -0.0317500010 -0.0037009616 0.0199999996
v -0.0312220100 -0.0225649960 0.0199999996
v -0.0312220100 -0.0225649960 0.0230000000
v -0.0312220100 -0.0025649958 0.0199999996
v -0.0312220100 -0.0025649958 0.0230000000
v -0.0312009621 -0.0257500000 -0.0199999996
v -0.0312009621 -0.0257500000 -0.0149999997
v -0.0312009621 -0.0257500000 0.0149999997
v -0.0312009621 -0.0257500000 0.0199999996
v -0.0312009621 -0.0242500007 -0.0199999996
v -0.0312009621 -0.0242500007 -0.0149999997
v -0.0312009621 -0.0242500007 0.0149999997
v -0.0312009621 -0.0242500007 0.0199999996
v -0.0312009621 -0.0057500000 -0.0199999996
v -0.0312009621 -0.0057500000 -0.0149999997
v -0.0312009621 -0.0057500000 0.0149999997
v -0.0312009621 -0.0057500000 0.0199999996
v -0.0312009621 -0.0042499998 -0.0199999996
v -0.0312009621 -0.0042499998 -0.0149999997
v -0.0312009621 -0.0042499998 0.0149999997
v -0.0312009621 -0.0042499998 0.0199999996
v -0.0312009603 -0.0257500000 -0.0149999997
v -0.0312009603 -0.0257500000 0.0149999997
v -0.0312009603 -0.0242500007 -0.0149999997
v -0.0312009603 -0.0242500007 0.0149999997
v -0.0312009603 -0.0057500000 -0.0149999997
v -0.0312009603 -0.0057500000 0.0149999997
v -0.0312009603 -0.0042500002 -0.0149999997
v -0.0312009603 -0.0042500002 0.0149999997
v -0.0309999995 -0.0250000004 -0.0199999996
v -0.0309999995 -0.0250000004 -0.0149999997
v -0.0309999995 -0.0250000004 0.0149999997
v -0.0309999995 -0.0250000004 0.0199999996
v -0.0309999995 -0.0050000004 -0.0199999996
v -0.0309999995 -0.0050000004 -0.0149999997
v -0.0309999995 -0.0050000004 0.0149999997
v -0.0309999995 -0.0050000004 0.0199999996
v -0.0309999995 -0.0049999999 -0.0149999997
v -0.0309999995 -0.0049999999 0.0149999997
v -0.0308368467 -0.0299999993 -0.0149999997
v -0.0308368467 -0.0299999993 0.0149999997
v -0.0308368467 -0.0257959347 -0.0149999997
v -0.0308368467 -0.0257959347 0.0149999997
v -0.0308368467 -0.0228333846 -0.0149999997
v -0.0308368467 -0.0228333846 0.0149999997
v -0.0308368467 -0.0219606813 -0.0149999997
v -0.0308368467 -0.0219606813 0.0149999997
v -0.0308368467 -0.0124603715 -0.0149999997
v -0.0308368467 -0.0124603715 0.0149999997
v -0.0308368467 -0.0032500001 -0.0149999997
v -0.0308368467 -0.0032500001 0.0149999997
v -0.0308368467 0.0000000000 0.0149999997
v -0.0308368467 0.0000000000 -0.0149999997
v -0.0306764115 -0.0270584039 0.0199999996
v -0.0306764115 -0.0270584039 0.0230000000
v -0.0306764115 -0.0070584049 0.0199999996
v -0.0306764115 -0.0070584049 0.0230000000
v -0.0306736920 -0.0030000000 -0.0149999997
v -0.0306736920 -0.0030000000 0.0149999997
v -0.0304757748 -0.0032500001 -0.0149999997
v -0.0304757748 -0.0032500001 0.0149999997
v -0.0302367937 -0.0234378222 0.0199999996
v -0.0302367937 -0.0234378222 0.0230000000
v -0.0302367937 -0.0034378220 0.0199999996
v -0.0302367937 -0.0034378220 0.0230000000
v -0.0301459562 -0.0228333846 -0.0149999997
v -0.0301459562 -0.0228333846 0.0149999997
v -0.0299287047 -0.0259751640 0.0199999996
v -0.0299287047 -0.0259751640 0.0230000000
v -0.0299287047 -0.0059751640 0.0199999996
v -0.0299287047 -0.0059751640 0.0230000000
v -0.0297700502 -0.0246685240 0.0199999996
v -0.0297700502 -0.0246685240 0.0230000000
v -0.0297700502 -0.0046685240 0.0199999996
v -0.0297700502 -0.0046685240 0.0230000000
v -0.0297499988 -0.0265877135 -0.0230000000
v -0.0297499988 -0.0265877135 -0.0199999996
v -0.0297499988 -0.0234122872 -0.0230000000
v -0.0297499988 -0.0234122872 -0.0199999996
v -0.0297499988 -0.0065877135 -0.0230000000
v -0.0297499988 -0.0065877135 -0.0199999996
v -0.0297499988 -0.0034122870 -0.0230000000
v -0.0297499988 -0.0034122870 -0.0199999996
v -0.0278006047 -0.0257959347 -0.0149999997
v -0.0278006047 -0.0257959347 0.0149999997
v -0.0268473849 -0.0270000007 -0.0149999997
v -0.0268473849 -0.0270000007 0.0149999997
v -0.0226248764 -0.0228333846 -0.0149999997
v -0.0226248764 -0.0228333846 0.0149999997
v -0.0202795248 -0.0257959347 -0.0149999997
v -0.0202795248 -0.0257959347 0.0149999997
v -0.0202500001 -0.0265877135 -0.0230000000
v -0.0202500001 -0.0265877135 -0.0199999996
v -0.0202500001 -0.0234122872 -0.0230000000
v -0.0202500001 -0.0234122872 -0.0199999996
v -0.0202299487 -0.0246685240 0.0199999996
v -0.0202299487 -0.0246685240 0.0230000000
v -0.0200712942 -0.0259751640 0.0199999996
v -0.0200712942 -0.0259751640 0.0230000000
v -0.0197632052 -0.0234378222 0.0199999996
v -0.0197632052 -0.0234378222 0.0230000000
v -0.0193263069 -0.0270000007 -0.0149999997
v -0.0193263069 -0.0270000007 0.0149999997
v -0.0193235874 -0.0270584039 0.0199999996
v -0.0193235874 -0.0270584039 0.0230000000
v -0.0191631541 -0.0299999993 -0.0149999997
v -0.0191631541 -0.0299999993 0.0149999997
v -0.0191631541 -0.0257959347 -0.0149999997
v -0.0191631541 -0.0257959347 0.0149999997
v -0.0191631541 -0.0228333846 -0.0149999997
v -0.0191631541 -0.0228333846 0.0149999997
v -0.0191631541 -0.0175396297 -0.0149999997
v -0.0191631541 -0.0175396297 0.0149999997
v -0.0191631541 -0.0030000000 -0.0149999997
v -0.0191631541 -0.0030000000 0.0149999997
v -0.0191631541 0.0000000000 -0.0149999997
v -0.0191631541 0.0000000000 0.0149999997
v -0.0189999994 -0.0250000004 -0.0199999996
v -0.0189999994 -0.0250000004 -0.0149999997
v -0.0189999994 -0.0250000004 0.0149999997
v -0.0189999994 -0.0250000004 0.0199999996
v -0.0187990386 -0.0257500000 -0.0149999997
v -0.0187990386 -0.0257500000 0.0149999997
v -0.0187990386 -0.0242500007 -0.0149999997
v -0.0187990386 -0.0242500007 0.0149999997
v -0.0187990367 -0.0257500000 -0.0199999996
v -0.0187990367 -0.0257500000 -0.0149999997
v -0.0187990367 -0.0257500000 0.0149999997
v -0.0187990367 -0.0257500000 0.0199999996
v -0.0187990367 -0.0242500007 -0.0199999996
v -0.0187990367 -0.0242500007 -0.0149999997
v -0.0187990367 -0.0242500007 0.0149999997
v -0.0187990367 -0.0242500007 0.0199999996
v -0.0187779889 -0.0225649960 0.0199999996
v -0.0187779889 -0.0225649960 0.0230000000
v -0.0182499997 -0.0262990389 -0.0199999996
v -0.0182499997 -0.0262990389 -0.0149999997
v -0.0182499997 -0.0262990389 0.0149999997
v -0.0182499997 -0.0262990389 0.0199999996
v -0.0182499997 -0.0237009618 -0.0199999996
v -0.0182499997 -0.0237009618 -0.0149999997
v -0.0182499997 -0.0237009618 0.0149999997
v -0.0182499997 -0.0237009618 0.0199999996
v -0.0181581173 -0.0276700910 0.0199999996
v -0.0181581173 -0.0276700910 0.0230000000
v -0.0175000001 -0.0281754266 -0.0230000000
v -0.0175000001 -0.0281754266 -0.0199999996
v -0.0175000001 -0.0264999997 -0.0199999996
v -0.0175000001 -0.0264999997 -0.0149999997
v -0.0175000001 -0.0264999997 0.0149999997
v -0.0175000001 -0.0264999997 0.0199999996
v -0.0175000001 -0.0235000011 -0.0199999996
v -0.0175000001 -0.0235000011 -0.0149999997
v -0.0175000001 -0.0235000011 0.0149999997
v -0.0175000001 -0.0235000011 0.0199999996
v -0.0175000001 -0.0234999992 -0.0149999997
v -0.0175000001 -0.0234999992 0.0149999997
v -0.0175000001 -0.0222500004 0.0199999996
v -0.0175000001 -0.0222500004 0.0230000000
v -0.0175000001 -0.0218245741 -0.0230000000
v -0.0175000001 -0.0218245741 -0.0199999996
v -0.0168418810 -0.0276700910 0.0199999996
v -0.0168418810 -0.0276700910 0.0230000000
v -0.0167500004 -0.0262990389 -0.0149999997
v -0.0167500004 -0.0262990389 0.0149999997
v -0.0167500004 -0.0237009618 -0.0149999997
v -0.0167500004 -0.0237009618 0.0149999997
v -0.0167499986 -0.0262990389 -0.0199999996
v -0.0167499986 -0.0262990389 -0.0149999997
v -0.0167499986 -0.0262990389 0.0149999997
v -0.0167499986 -0.0262990389 0.0199999996
v -0.0167499986 -0.0237009618 -0.0199999996
v -0.0167499986 -0.0237009618 -0.0149999997
v -0.0167499986 -0.0237009618 0.0149999997
v -0.0167499986 -0.0237009618 0.0199999996
v -0.0162220113 -0.0225649960 0.0199999996
v -0.0162220113 -0.0225649960 0.0230000000
v -0.0162009615 -0.0257500000 -0.0149999997
v -0.0162009615 -0.0257500000 0.0149999997
v -0.0162009615 -0.0242500007 -0.0149999997
v -0.0162009615 -0.0242500007 0.0149999997
v -0.0162009597 -0.0257500000 -0.0199999996
v -0.0162009597 -0.0257500000 -0.0149999997
v -0.0162009597 -0.0257500000 0.0149999997
v -0.0162009597 -0.0257500000 0.0199999996
v -0.0162009597 -0.0242500007 -0.0199999996
v -0.0162009597 -0.0242500007 -0.0149999997
v -0.0162009597 -0.0242500007 0.0149999997
v -0.0162009597 -0.0242500007 0.0199999996
v -0.0160000008 -0.0250000004 -0.0149999997
v -0.0160000008 -0.0250000004 0.0149999997
v -0.0159999989 -0.0250000004 -0.0199999996
v -0.0159999989 -0.0250000004 -0.0149999997
v -0.0159999989 -0.0250000004 0.0149999997
v -0.0159999989 -0.0250000004 0.0199999996
v -0.0157500003 -0.0299999993 -0.0149999997
v -0.0157500003 -0.0299999993 0.0149999997
v -0.0157500003 -0.0257959347 -0.0149999997
v -0.0157500003 -0.0257959347 0.0149999997
v -0.0157500003 -0.0228333846 -0.0149999997
v -0.0157500003 -0.0228333846 0.0149999997
v -0.0157500003 -0.0218509808 -0.0149999997
v -0.0157500003 -0.0218509808 0.0149999997
v -0.0157500003 -0.0030000000 -0.0149999997
v -0.0157500003 -0.0030000000 0.0149999997
v -0.0157500003 0.0000000000 0.0149999997
v -0.0157500003 0.0000000000 -0.0149999997
v -0.0156764127 -0.0270584039 0.0199999996
v -0.0156764127 -0.0270584039 0.0230000000
v -0.0154999997 -0.0221667700 -0.0149999997
v -0.0154999997 -0.0221667700 0.0149999997
v -0.0154999997 -0.0032500001 -0.0149999997
v -0.0154999997 -0.0032500001 0.0149999997
v -0.0154999997 -0.0030000000 -0.0149999997
v -0.0154999997 -0.0030000000 0.0149999997
v -0.0152367959 -0.0234378222 0.0199999996
v -0.0152367959 -0.0234378222 0.0230000000
v -0.0149287069 -0.0259751640 0.0199999996
v -0.0149287069 -0.0259751640 0.0230000000
v -0.0147700505 -0.0246685240 0.0199999996
v -0.0147700505 -0.0246685240 0.0230000000
v -0.0147500010 -0.0265877135 -0.0230000000
v -0.0147500010 -0.0265877135 -0.0199999996
v -0.0147500010 -0.0234122872 -0.0230000000
v -0.0147500010 -0.0234122872 -0.0199999996
v -0.0125000002 -0.0299999993 -0.0230000000
v -0.0125000002 -0.0299999993 -0.0149999997
v -0.0125000002 -0.0299999993 0.0149999997
v -0.0125000002 -0.0299999993 0.0230000000
v -0.0125000002 -0.0257959347 -0.0149999997
v -0.0125000002 -0.0257959347 0.0149999997
v -0.0125000002 -0.0228333846 -0.0149999997
v -0.0125000002 -0.0228333846 0.0149999997
v -0.0125000002 -0.0032500001 -0.0149999997
v -0.0125000002 -0.0032500001 0.0149999997
v -0.0125000002 -0.0000000003 -0.0230000000
v -0.0125000002 -0.0000000003 -0.0149999997
v -0.0125000002 -0.0000000003 0.0149999997
v -0.0125000002 -0.0000000003 0.0230000000
v -0.0125000002 0.0000000000 -0.0149999997
v -0.0125000002 0.0000000000 0.0149999997
v -0.0094999997 -0.0240918677 -0.0149999997
v -0.0094999997 -0.0240918677 0.0149999997
v -0.0094999997 -0.0228333846 -0.0149999997
v -0.0094999997 -0.0228333846 0.0149999997
v -0.0094999997 -0.0063443510 -0.0149999997
v -0.0094999997 -0.0063443510 0.0149999997
v -0.0094106253 -0.0059311171 -0.0149999997
v -0.0094106253 -0.0059311171 0.0149999997
v -0.0093833543 -0.0245605744 -0.0149999997
v -0.0093833543 -0.0245605744 0.0149999997
v -0.0091584753 -0.0055917487 -0.0149999997
v -0.0091584753 -0.0055917487 0.0149999997
v -0.0090606287 -0.0249199346 -0.0149999997
v -0.0090606287 -0.0249199346 0.0149999997
v -0.0087886229 -0.0053869081 -0.0149999997
v -0.0087886229 -0.0053869081 0.0149999997
v -0.0086071137 -0.0250861142 -0.0149999997
v -0.0086071137 -0.0250861142 0.0149999997
v -0.0083671790 -0.0053532110 -0.0149999997
v -0.0083671790 -0.0053532110 0.0149999997
v -0.0081286095 -0.0250203442 -0.0149999997
v -0.0081286095 -0.0250203442 0.0149999997
v -0.0079694772 -0.0054966803 -0.0149999997
v -0.0079694772 -0.0054966803 0.0149999997
v -0.0045583518 -0.0039786305 -0.0149999997
v -0.0045583518 -0.0039786305 0.0149999997
v -0.0044384999 -0.0044751232 -0.0149999997
v -0.0044384999 -0.0044751232 0.0149999997
v -0.0044173943 -0.0034877127 -0.0149999997
v -0.0044173943 -0.0034877127 0.0149999997
v -0.0040891031 -0.0048476709 -0.0149999997
v -0.0040891031 -0.0048476709 0.0149999997
v -0.0040523987 -0.0031304348 -0.0149999997
v -0.0040523987 -0.0031304348 0.0149999997
v -0.0035585805 -0.0030000000 -0.0149999997
v -0.0035585805 -0.0030000000 0.0149999997
v -0.0019898347 -0.0257959347 -0.0149999997
v -0.0019898347 -0.0257959347 0.0149999997
v 0.0054165376 -0.0228333846 -0.0149999997
v 0.0054165376 -0.0228333846 0.0149999997
v 0.0091715408 -0.0181002840 -0.0149999997
v 0.0091715408 -0.0181002840 0.0149999997
v 0.0093306722 -0.0163241364 -0.0149999997
v 0.0093306722 -0.0163241364 0.0149999997
v 0.0095318956 -0.0178533848 -0.0149999997
v 0.0095318956 -0.0178533848 0.0149999997
v 0.0096414005 -0.0166311618 -0.0149999997
v 0.0096414005 -0.0166311618 0.0149999997
v 0.0097526228 -0.0174764302 -0.0149999997
v 0.0097526228 -0.0174764302 0.0149999997
v 0.0097916042 -0.0170413498 -0.0149999997
v 0.0097916042 -0.0170413498 0.0149999997
v 0.0100000007 -0.0030000000 -0.0149999997
v 0.0100000007 -0.0030000000 0.0149999997
v 0.0104999999 -0.0031339745 -0.0149999997
v 0.0104999999 -0.0031339745 0.0149999997
v 0.0108660245 -0.0035000001 -0.0149999997
v 0.0108660245 -0.0035000001 0.0149999997
v 0.0109999990 -0.0142913237 -0.0149999997
v 0.0109999990 -0.0142913237 0.0149999997
v 0.0109999990 -0.0040000002 -0.0149999997
v 0.0109999990 -0.0040000002 0.0149999997
v 0.0125000002 -0.0199999996 -0.0149999997
v 0.0125000002 -0.0199999996 0.0149999997
v 0.0125000002 -0.0032500001 -0.0149999997
v 0.0125000002 -0.0032500001 0.0149999997
v 0.0125000002 0.0000000000 -0.0149999997
v 0.0125000002 0.0000000000 0.0149999997
v 0.0139999995 -0.0146918679 -0.0149999997
v 0.0139999995 -0.0146918679 0.0149999997
v 0.0139999995 -0.0032500001 -0.0149999997
v 0.0139999995 -0.0032500001 0.0149999997
v 0.0139999995 -0.0030000000 -0.0149999997
v 0.0139999995 -0.0030000000 0.0149999997
v 0.0141166458 -0.0151605746 -0.0149999997
v 0.0141166458 -0.0151605746 0.0149999997
v 0.0144393714 -0.0155199356 -0.0149999997
v 0.0144393714 -0.0155199356 0.0149999997
v 0.0148928864 -0.0156861152 -0.0149999997
v 0.0148928864 -0.0156861152 0.0149999997
v 0.0153713906 -0.0156203452 -0.0149999997
v 0.0153713906 -0.0156203452 0.0149999997
v 0.0344999991 -0.0079689007 -0.0149999997
v 0.0344999991 -0.0079689007 0.0149999997
v 0.0344999991 -0.0032500001 -0.0149999997
v 0.0344999991 -0.0032500001 0.0149999997
v 0.0344999991 -0.0030000000 -0.0149999997
v 0.0344999991 -0.0030000000 0.0149999997
v 0.0375000015 -0.0099999998 -0.0149999997
v 0.0375000015 -0.0099999998 0.0149999997
v 0.0375000015 -0.0032500001 -0.0149999997
v 0.0375000015 -0.0032500001 0.0149999997
v 0.0375000015 0.0000000000 0.0149999997
v 0.0375000015 0.0000000000 -0.0149999997
f 81 82 86
f 86 82 252
f 86 252 85
f 85 252 251
f 85 251 80
f 80 251 79
f 76 75 83
f 83 75 153
f 83 153 84
f 84 153 154
f 84 154 77
f 77 154 78
f 78 82 77
f 77 82 81
f 79 75 80
f 80 75 76
f 251 153 79
f 79 153 75
f 154 252 78
f 78 252 82
f 251 249 245
f 248 250 252
f 245 237 251
f 251 237 229
f 251 229 221
f 251 181 153
f 153 181 173
f 153 173 165
f 166 174 154
f 214 175 167
f 249 251 246
f 246 251 252
f 246 252 238
f 165 157 153
f 153 157 155
f 153 155 154
f 154 155 158
f 154 158 166
f 213 201 221
f 221 201 197
f 221 197 251
f 251 197 189
f 251 189 181
f 238 252 230
f 230 252 250
f 230 250 247
f 174 182 154
f 154 182 190
f 154 190 198
f 247 239 230
f 230 239 231
f 230 231 222
f 222 231 223
f 167 159 214
f 214 159 154
f 214 154 206
f 206 154 198
f 206 198 203
f 203 198 201
f 203 201 205
f 205 201 213
f 159 156 154
f 154 156 160
f 154 160 168
f 215 202 223
f 223 202 199
f 223 199 222
f 222 199 191
f 222 191 214
f 214 191 183
f 214 183 175
f 216 192 208
f 208 192 200
f 208 200 204
f 204 200 202
f 204 202 207
f 207 202 215
f 224 232 252
f 252 232 240
f 252 240 248
f 216 224 192
f 192 224 252
f 192 252 184
f 184 252 154
f 184 154 176
f 176 154 168
f 84 77 86
f 86 77 81
f 76 83 80
f 80 83 85
f 83 84 85
f 85 84 86
f 145 249 142
f 142 249 246
f 142 246 138
f 138 246 238
f 138 238 134
f 134 238 230
f 134 230 128
f 128 230 222
f 128 222 124
f 124 222 214
f 124 214 120
f 120 214 206
f 120 206 117
f 117 206 203
f 117 203 119
f 119 203 205
f 119 205 123
f 123 205 213
f 123 213 127
f 127 213 221
f 127 221 133
f 133 221 229
f 133 229 137
f 137 229 237
f 137 237 141
f 141 237 245
f 141 245 145
f 145 245 249
f 145 142 131
f 145 131 141
f 127 133 131
f 131 133 137
f 131 137 141
f 117 119 131
f 131 119 123
f 131 123 127
f 128 124 131
f 131 124 120
f 131 120 117
f 142 138 131
f 131 138 134
f 131 134 128
f 116 202 114
f 114 202 200
f 114 200 110
f 110 200 192
f 110 192 106
f 106 192 184
f 106 184 100
f 100 184 176
f 100 176 96
f 96 176 168
f 96 168 92
f 92 168 160
f 92 160 88
f 88 160 156
f 88 156 91
f 91 156 159
f 91 159 95
f 95 159 167
f 95 167 99
f 99 167 175
f 99 175 105
f 105 175 183
f 105 183 109
f 109 183 191
f 109 191 113
f 113 191 199
f 113 199 116
f 116 199 202
f 116 114 102
f 116 102 113
f 99 105 102
f 102 105 109
f 102 109 113
f 88 91 102
f 102 91 95
f 102 95 99
f 100 96 102
f 102 96 92
f 102 92 88
f 114 110 102
f 102 110 106
f 102 106 100
f 115 201 112
f 112 201 198
f 112 198 108
f 108 198 190
f 108 190 104
f 104 190 182
f 104 182 98
f 98 182 174
f 98 174 94
f 94 174 166
f 94 166 90
f 90 166 158
f 90 158 87
f 87 158 155
f 87 155 89
f 89 155 157
f 89 157 93
f 93 157 165
f 93 165 97
f 97 165 173
f 97 173 103
f 103 173 181
f 103 181 107
f 107 181 189
f 107 189 111
f 111 189 197
f 111 197 115
f 115 197 201
f 87 89 101
f 87 101 90
f 104 98 101
f 101 98 94
f 101 94 90
f 115 112 101
f 101 112 108
f 101 108 104
f 103 107 101
f 101 107 111
f 101 111 115
f 89 93 101
f 101 93 97
f 101 97 103
f 146 250 144
f 144 250 248
f 144 248 140
f 140 248 240
f 140 240 136
f 136 240 232
f 136 232 130
f 130 232 224
f 130 224 126
f 126 224 216
f 126 216 122
f 122 216 208
f 122 208 118
f 118 208 204
f 118 204 121
f 121 204 207
f 121 207 125
f 125 207 215
f 125 215 129
f 129 215 223
f 129 223 135
f 135 223 231
f 135 231 139
f 139 231 239
f 139 239 143
f 143 239 247
f 143 247 146
f 146 247 250
f 118 121 132
f 118 132 122
f 136 130 132
f 132 130 126
f 132 126 122
f 146 144 132
f 132 144 140
f 132 140 136
f 135 139 132
f 132 139 143
f 132 143 146
f 121 125 132
f 132 125 129
f 132 129 135
f 333 226 340
f 340 226 234
f 340 234 344
f 344 234 242
f 344 242 349
f 349 242 249
f 349 249 343
f 343 249 241
f 343 241 339
f 339 241 233
f 339 233 332
f 332 233 225
f 332 225 325
f 325 225 217
f 325 217 321
f 321 217 209
f 321 209 317
f 317 209 203
f 317 203 322
f 322 203 210
f 322 210 326
f 326 210 218
f 326 218 333
f 333 218 226
f 283 178 290
f 290 178 186
f 290 186 294
f 294 186 194
f 294 194 299
f 299 194 201
f 299 201 293
f 293 201 193
f 293 193 289
f 289 193 185
f 289 185 282
f 282 185 177
f 282 177 275
f 275 177 169
f 275 169 271
f 271 169 161
f 271 161 267
f 267 161 155
f 267 155 272
f 272 155 162
f 272 162 276
f 276 162 170
f 276 170 283
f 283 170 178
f 286 180 292
f 292 180 188
f 292 188 296
f 296 188 196
f 296 196 300
f 300 196 202
f 300 202 295
f 295 202 195
f 295 195 291
f 291 195 187
f 291 187 285
f 285 187 179
f 285 179 277
f 277 179 171
f 277 171 273
f 273 171 163
f 273 163 268
f 268 163 156
f 268 156 274
f 274 156 164
f 274 164 278
f 278 164 172
f 278 172 286
f 286 172 180
f 336 228 342
f 342 228 236
f 342 236 346
f 346 236 244
f 346 244 350
f 350 244 250
f 350 250 345
f 345 250 243
f 345 243 341
f 341 243 235
f 341 235 335
f 335 235 227
f 335 227 327
f 327 227 219
f 327 219 323
f 323 219 211
f 323 211 318
f 318 211 204
f 318 204 324
f 324 204 212
f 324 212 328
f 328 212 220
f 328 220 336
f 336 220 228
f 728 727 716
f 716 727 715
f 716 715 706
f 706 715 705
f 706 705 698
f 698 705 697
f 698 697 710
f 710 697 709
f 710 709 720
f 720 709 719
f 720 719 732
f 732 719 731
f 732 731 752
f 752 731 751
f 752 751 766
f 766 751 765
f 766 765 772
f 772 765 771
f 772 771 762
f 762 771 761
f 762 761 748
f 748 761 747
f 748 747 728
f 728 747 727
f 528 527 504
f 504 527 503
f 504 503 482
f 482 503 481
f 482 481 474
f 474 481 473
f 474 473 486
f 486 473 485
f 486 485 508
f 508 485 507
f 508 507 532
f 532 507 531
f 532 531 568
f 568 531 567
f 568 567 590
f 590 567 589
f 590 589 610
f 610 589 609
f 610 609 586
f 586 609 585
f 586 585 564
f 564 585 563
f 564 563 528
f 528 563 527
f 546 545 512
f 512 545 511
f 512 511 490
f 490 511 489
f 490 489 478
f 478 489 477
f 478 477 496
f 496 477 495
f 496 495 518
f 518 495 517
f 518 517 552
f 552 517 551
f 552 551 578
f 578 551 577
f 578 577 598
f 598 577 597
f 598 597 614
f 614 597 613
f 614 613 594
f 594 613 593
f 594 593 572
f 572 593 571
f 572 571 546
f 546 571 545
f 32 55 35
f 35 55 57
f 35 57 38
f 38 57 59
f 38 59 40
f 40 59 61
f 40 61 39
f 39 61 60
f 39 60 36
f 36 60 58
f 36 58 33
f 33 58 56
f 33 56 31
f 31 56 54
f 31 54 28
f 28 54 52
f 28 52 26
f 26 52 50
f 26 50 27
f 27 50 51
f 27 51 30
f 30 51 53
f 30 53 32
f 32 53 55
f 726 725 714
f 714 725 713
f 714 713 704
f 704 713 703
f 704 703 696
f 696 703 695
f 696 695 708
f 708 695 707
f 708 707 718
f 718 707 717
f 718 717 730
f 730 717 729
f 730 729 750
f 750 729 749
f 750 749 764
f 764 749 763
f 764 763 770
f 770 763 769
f 770 769 760
f 760 769 759
f 760 759 746
f 746 759 745
f 746 745 726
f 726 745 725
f 526 525 502
f 502 525 501
f 502 501 480
f 480 501 479
f 480 479 472
f 472 479 471
f 472 471 484
f 484 471 483
f 484 483 506
f 506 483 505
f 506 505 530
f 530 505 529
f 530 529 566
f 566 529 565
f 566 565 588
f 588 565 587
f 588 587 608
f 608 587 607
f 608 607 584
f 584 607 583
f 584 583 562
f 562 583 561
f 562 561 526
f 526 561 525
f 544 543 510
f 510 543 509
f 510 509 488
f 488 509 487
f 488 487 476
f 476 487 475
f 476 475 494
f 494 475 493
f 494 493 516
f 516 493 515
f 516 515 550
f 550 515 549
f 550 549 576
f 576 549 575
f 576 575 596
f 596 575 595
f 596 595 612
f 612 595 611
f 612 611 592
f 592 611 591
f 592 591 570
f 570 591 569
f 570 569 544
f 544 569 543
f 150 66 256
f 256 66 74
f 149 255 65
f 65 255 73
f 244 236 256
f 256 236 228
f 256 228 196
f 196 188 256
f 256 188 180
f 256 180 150
f 149 155 161
f 180 172 150
f 150 172 164
f 150 164 156
f 212 187 220
f 220 187 195
f 220 195 228
f 228 195 202
f 228 202 196
f 161 169 149
f 149 169 177
f 149 177 255
f 255 177 185
f 255 185 193
f 155 149 162
f 162 149 150
f 162 150 170
f 170 150 156
f 170 156 178
f 178 156 163
f 178 163 171
f 171 179 178
f 178 179 187
f 178 187 186
f 186 187 212
f 186 212 204
f 211 226 204
f 204 226 194
f 204 194 186
f 226 218 194
f 194 218 210
f 194 210 201
f 201 210 203
f 201 203 193
f 193 203 209
f 209 217 193
f 193 217 225
f 193 225 255
f 255 225 233
f 255 233 241
f 255 243 256
f 256 243 250
f 256 250 244
f 211 219 226
f 226 219 227
f 226 227 234
f 241 249 255
f 255 249 242
f 255 242 243
f 243 242 234
f 243 234 235
f 235 234 227
f 152 258 151
f 151 258 257
f 367 378 374
f 373 369 359
f 359 369 363
f 359 363 367
f 383 387 393
f 410 414 420
f 420 414 416
f 420 416 419
f 419 416 412
f 419 412 408
f 411 407 419
f 419 407 403
f 419 403 359
f 359 403 399
f 359 399 395
f 405 408 401
f 401 408 404
f 401 404 397
f 368 372 360
f 393 387 391
f 391 387 389
f 391 389 395
f 367 374 359
f 359 374 370
f 359 370 360
f 360 370 364
f 360 364 368
f 390 386 379
f 379 386 382
f 379 382 375
f 375 382 378
f 375 378 371
f 371 378 367
f 405 409 408
f 408 409 413
f 408 413 419
f 419 413 415
f 419 415 411
f 372 376 360
f 360 376 380
f 360 380 420
f 380 384 394
f 394 384 388
f 394 388 392
f 392 388 390
f 392 390 396
f 396 390 379
f 396 379 400
f 400 379 383
f 400 383 404
f 404 383 393
f 404 393 397
f 389 385 395
f 395 385 381
f 395 381 359
f 359 381 377
f 359 377 373
f 394 398 380
f 380 398 402
f 380 402 420
f 420 402 406
f 420 406 410
f 147 148 253
f 253 148 254
f 255 256 420
f 814 813 419
f 419 813 253
f 419 253 254
f 816 815 258
f 258 815 420
f 258 420 257
f 257 420 256
f 257 256 19
f 19 256 74
f 19 74 18
f 18 74 73
f 18 73 254
f 254 73 255
f 254 255 419
f 419 255 420
f 539 655 429
f 429 655 537
f 429 537 427
f 813 671 657
f 657 659 813
f 813 659 555
f 813 555 253
f 253 555 431
f 431 429 253
f 253 429 427
f 253 427 147
f 147 427 425
f 147 425 523
f 723 799 803
f 803 799 801
f 803 801 813
f 813 801 737
f 813 737 671
f 803 147 723
f 723 147 523
f 723 523 669
f 669 523 653
f 669 653 671
f 671 653 655
f 671 655 657
f 657 655 539
f 150 149 359
f 805 806 360
f 360 806 152
f 360 152 151
f 803 804 147
f 147 804 359
f 147 359 148
f 148 359 149
f 148 149 1
f 1 149 65
f 1 65 2
f 2 65 66
f 2 66 151
f 151 66 150
f 151 150 360
f 360 150 359
f 520 450 152
f 520 152 558
f 786 740 806
f 806 740 722
f 582 816 554
f 554 816 258
f 554 258 500
f 500 258 444
f 152 806 558
f 558 806 722
f 558 722 632
f 632 722 646
f 816 794 798
f 536 580 560
f 560 580 640
f 560 640 650
f 648 634 736
f 816 798 806
f 806 798 796
f 806 796 786
f 452 440 152
f 582 642 816
f 816 642 652
f 816 652 794
f 794 652 648
f 794 648 754
f 754 648 736
f 152 440 258
f 258 440 436
f 258 436 444
f 722 682 646
f 646 682 676
f 646 676 650
f 650 676 674
f 650 674 560
f 560 674 678
f 560 678 634
f 634 678 712
f 634 712 736
f 450 438 152
f 152 438 434
f 152 434 452
f 452 434 442
f 452 442 498
f 536 560 498
f 498 560 522
f 498 522 452
f 804 760 746
f 472 544 510
f 814 764 804
f 804 764 770
f 804 770 760
f 526 502 359
f 359 502 480
f 359 480 472
f 472 510 359
f 359 510 488
f 359 488 419
f 419 488 476
f 419 476 494
f 526 359 562
f 562 359 804
f 562 804 584
f 506 612 484
f 484 612 592
f 484 592 472
f 472 592 570
f 472 570 544
f 506 530 612
f 612 530 566
f 612 566 588
f 494 516 419
f 419 516 550
f 419 550 814
f 814 550 576
f 814 576 596
f 708 718 596
f 596 718 730
f 596 730 814
f 814 730 750
f 814 750 764
f 596 612 708
f 708 612 588
f 708 588 696
f 696 588 608
f 696 608 704
f 704 608 584
f 704 584 714
f 714 584 804
f 714 804 726
f 726 804 746
f 803 813 804
f 804 813 814
f 765 815 771
f 771 815 805
f 517 495 420
f 420 495 477
f 589 567 489
f 489 567 531
f 489 531 477
f 477 531 507
f 477 507 420
f 420 507 485
f 420 485 360
f 360 485 473
f 360 473 481
f 589 489 609
f 609 489 511
f 609 511 545
f 481 503 360
f 360 503 527
f 360 527 805
f 805 527 563
f 593 613 815
f 613 597 815
f 815 597 577
f 815 577 420
f 420 577 551
f 420 551 517
f 765 751 815
f 815 751 731
f 815 731 593
f 593 731 719
f 593 719 571
f 571 719 709
f 571 709 545
f 563 585 805
f 805 585 715
f 805 715 727
f 727 747 805
f 805 747 761
f 805 761 771
f 545 709 609
f 609 709 697
f 609 697 585
f 585 697 705
f 585 705 715
f 806 805 816
f 816 805 815
f 19 2 257
f 257 2 151
f 8 6 2
f 2 6 4
f 2 4 1
f 1 4 3
f 1 3 5
f 5 7 1
f 1 7 9
f 1 9 18
f 18 9 11
f 18 11 13
f 13 15 18
f 18 15 17
f 18 17 19
f 19 17 16
f 16 14 19
f 19 14 12
f 19 12 2
f 2 12 10
f 2 10 8
f 1 18 148
f 148 18 254
f 74 66 69
f 69 71 74
f 74 71 72
f 74 72 73
f 73 72 70
f 73 70 65
f 65 70 68
f 65 68 66
f 66 68 67
f 66 67 69
f 35 37 32
f 32 37 29
f 32 29 30
f 30 29 24
f 30 24 27
f 27 24 22
f 27 22 26
f 36 43 39
f 39 43 45
f 39 45 40
f 40 45 46
f 40 46 38
f 38 46 44
f 38 44 35
f 35 44 42
f 35 42 37
f 22 20 26
f 26 20 21
f 26 21 28
f 28 21 23
f 28 23 31
f 31 23 25
f 31 25 33
f 33 25 34
f 33 34 36
f 36 34 41
f 36 41 43
f 34 10 41
f 41 10 12
f 41 12 43
f 43 12 14
f 43 14 45
f 45 14 16
f 45 16 46
f 46 16 17
f 46 17 44
f 44 17 15
f 44 15 42
f 42 15 13
f 42 13 37
f 37 13 11
f 37 11 29
f 29 11 9
f 29 9 24
f 24 9 7
f 24 7 22
f 22 7 5
f 22 5 20
f 20 5 3
f 20 3 21
f 21 3 4
f 21 4 23
f 23 4 6
f 23 6 25
f 25 6 8
f 25 8 34
f 34 8 10
f 430 540 429
f 429 540 539
f 432 430 431
f 431 430 429
f 556 432 555
f 555 432 431
f 660 556 659
f 659 556 555
f 658 660 657
f 657 660 659
f 540 658 539
f 539 658 657
f 660 658 591
f 432 556 549
f 475 430 493
f 493 430 432
f 493 432 515
f 515 432 549
f 475 487 430
f 430 487 509
f 430 509 540
f 540 509 543
f 540 543 658
f 658 543 569
f 658 569 591
f 591 611 660
f 660 611 595
f 660 595 556
f 556 595 575
f 556 575 549
f 656 538 655
f 655 538 537
f 654 656 653
f 653 656 655
f 524 654 523
f 523 654 653
f 426 524 425
f 425 524 523
f 428 426 427
f 427 426 425
f 538 428 537
f 537 428 427
f 654 583 656
f 656 583 607
f 426 428 471
f 607 587 656
f 656 587 565
f 656 565 538
f 565 529 538
f 538 529 505
f 538 505 428
f 428 505 483
f 428 483 471
f 471 479 426
f 426 479 501
f 426 501 524
f 524 501 525
f 524 525 654
f 654 525 561
f 654 561 583
f 802 738 801
f 801 738 737
f 800 802 799
f 799 802 801
f 724 800 723
f 723 800 799
f 670 724 669
f 669 724 723
f 672 670 671
f 671 670 669
f 738 672 737
f 737 672 671
f 738 802 763
f 763 749 738
f 738 749 729
f 738 729 672
f 703 713 670
f 670 713 724
f 729 717 672
f 672 717 707
f 672 707 670
f 670 707 695
f 670 695 703
f 713 725 724
f 724 725 745
f 724 745 800
f 800 745 759
f 800 759 802
f 802 759 769
f 802 769 763
f 48 47 68
f 68 47 67
f 62 48 70
f 70 48 68
f 64 62 72
f 72 62 70
f 63 64 71
f 71 64 72
f 49 63 69
f 69 63 71
f 47 49 67
f 67 49 69
f 49 47 50
f 48 53 47
f 47 53 51
f 47 51 50
f 64 63 58
f 50 52 49
f 49 52 54
f 49 54 63
f 63 54 56
f 63 56 58
f 58 60 64
f 64 60 61
f 64 61 62
f 61 59 62
f 62 59 57
f 62 57 48
f 48 57 55
f 48 55 53
f 451 521 546
f 546 521 559
f 546 559 572
f 572 559 633
f 572 633 594
f 594 633 647
f 594 647 614
f 614 647 651
f 614 651 598
f 598 651 641
f 598 641 578
f 578 641 581
f 578 581 552
f 552 581 553
f 552 553 518
f 518 553 499
f 518 499 496
f 496 499 443
f 496 443 478
f 478 443 435
f 478 435 490
f 490 435 439
f 490 439 512
f 512 439 451
f 512 451 546
f 553 554 499
f 499 554 500
f 499 500 443
f 443 500 444
f 443 444 435
f 435 444 436
f 435 436 439
f 439 436 440
f 439 440 451
f 451 440 452
f 451 452 521
f 521 452 522
f 521 522 559
f 559 522 560
f 559 560 633
f 633 560 634
f 633 634 647
f 647 634 648
f 647 648 651
f 651 648 652
f 651 652 641
f 641 652 642
f 641 642 581
f 581 642 582
f 581 582 553
f 553 582 554
f 449 519 528
f 528 519 557
f 528 557 564
f 564 557 631
f 564 631 586
f 586 631 645
f 586 645 610
f 610 645 649
f 610 649 590
f 590 649 639
f 590 639 568
f 568 639 579
f 568 579 532
f 532 579 535
f 532 535 508
f 508 535 497
f 508 497 486
f 486 497 441
f 486 441 474
f 474 441 433
f 474 433 482
f 482 433 437
f 482 437 504
f 504 437 449
f 504 449 528
f 535 536 497
f 497 536 498
f 497 498 441
f 441 498 442
f 441 442 433
f 433 442 434
f 433 434 437
f 437 434 438
f 437 438 449
f 449 438 450
f 449 450 519
f 519 450 520
f 519 520 557
f 557 520 558
f 557 558 631
f 631 558 632
f 631 632 645
f 645 632 646
f 645 646 649
f 649 646 650
f 649 650 639
f 639 650 640
f 639 640 579
f 579 640 580
f 579 580 535
f 535 580 536
f 681 721 728
f 728 721 739
f 728 739 748
f 748 739 785
f 748 785 762
f 762 785 795
f 762 795 772
f 772 795 797
f 772 797 766
f 766 797 793
f 766 793 752
f 752 793 753
f 752 753 732
f 732 753 735
f 732 735 720
f 720 735 711
f 720 711 710
f 710 711 677
f 710 677 698
f 698 677 673
f 698 673 706
f 706 673 675
f 706 675 716
f 716 675 681
f 716 681 728
f 735 736 711
f 711 736 712
f 711 712 677
f 677 712 678
f 677 678 673
f 673 678 674
f 673 674 675
f 675 674 676
f 675 676 681
f 681 676 682
f 681 682 721
f 721 682 722
f 721 722 739
f 739 722 740
f 739 740 785
f 785 740 786
f 785 786 795
f 795 786 796
f 795 796 797
f 797 796 798
f 797 798 793
f 793 798 794
f 793 794 753
f 753 794 754
f 753 754 735
f 735 754 736
f 334 404 348
f 348 404 408
f 348 408 354
f 354 408 412
f 354 412 358
f 358 412 416
f 358 416 356
f 356 416 414
f 356 414 352
f 352 414 410
f 352 410 338
f 338 410 406
f 338 406 330
f 330 406 402
f 330 402 316
f 316 402 398
f 316 398 312
f 312 398 394
f 312 394 310
f 310 394 392
f 310 392 314
f 314 392 396
f 314 396 320
f 320 396 400
f 320 400 334
f 334 400 404
f 336 330 328
f 328 330 316
f 328 316 324
f 324 316 312
f 324 312 318
f 318 312 310
f 318 310 323
f 323 310 314
f 323 314 327
f 327 314 320
f 327 320 335
f 335 320 334
f 335 334 341
f 341 334 348
f 341 348 345
f 345 348 354
f 345 354 350
f 350 354 358
f 350 358 346
f 346 358 356
f 346 356 342
f 342 356 352
f 342 352 336
f 336 352 338
f 336 338 330
f 284 378 298
f 298 378 382
f 298 382 304
f 304 382 386
f 304 386 308
f 308 386 390
f 308 390 306
f 306 390 388
f 306 388 302
f 302 388 384
f 302 384 288
f 288 384 380
f 288 380 280
f 280 380 376
f 280 376 266
f 266 376 372
f 266 372 262
f 262 372 368
f 262 368 260
f 260 368 364
f 260 364 264
f 264 364 370
f 264 370 270
f 270 370 374
f 270 374 284
f 284 374 378
f 302 288 286
f 286 288 280
f 286 280 278
f 278 280 266
f 278 266 274
f 274 266 262
f 274 262 268
f 268 262 260
f 268 260 273
f 273 260 264
f 273 264 277
f 277 264 270
f 277 270 285
f 285 270 284
f 285 284 291
f 291 284 298
f 291 298 295
f 295 298 304
f 295 304 300
f 300 304 308
f 300 308 296
f 296 308 306
f 296 306 292
f 292 306 302
f 292 302 286
f 281 377 297
f 297 377 381
f 297 381 303
f 303 381 385
f 303 385 307
f 307 385 389
f 307 389 305
f 305 389 387
f 305 387 301
f 301 387 383
f 301 383 287
f 287 383 379
f 287 379 279
f 279 379 375
f 279 375 265
f 265 375 371
f 265 371 261
f 261 371 367
f 261 367 259
f 259 367 363
f 259 363 263
f 263 363 369
f 263 369 269
f 269 369 373
f 269 373 281
f 281 373 377
f 301 287 283
f 283 287 279
f 283 279 276
f 276 279 265
f 276 265 272
f 272 265 261
f 272 261 267
f 267 261 259
f 267 259 271
f 271 259 263
f 271 263 275
f 275 263 269
f 275 269 282
f 282 269 281
f 282 281 289
f 289 281 297
f 289 297 293
f 293 297 303
f 293 303 299
f 299 303 307
f 299 307 294
f 294 307 305
f 294 305 290
f 290 305 301
f 290 301 283
f 331 403 347
f 347 403 407
f 347 407 353
f 353 407 411
f 353 411 357
f 357 411 415
f 357 415 355
f 355 415 413
f 355 413 351
f 351 413 409
f 351 409 337
f 337 409 405
f 337 405 329
f 329 405 401
f 329 401 315
f 315 401 397
f 315 397 311
f 311 397 393
f 311 393 309
f 309 393 391
f 309 391 313
f 313 391 395
f 313 395 319
f 319 395 399
f 319 399 331
f 331 399 403
f 351 337 333
f 333 337 329
f 333 329 326
f 326 329 315
f 326 315 322
f 322 315 311
f 322 311 317
f 317 311 309
f 317 309 321
f 321 309 313
f 321 313 325
f 325 313 319
f 325 319 332
f 332 319 331
f 332 331 339
f 339 331 347
f 339 347 343
f 343 347 353
f 343 353 349
f 349 353 357
f 349 357 344
f 344 357 355
f 344 355 340
f 340 355 351
f 340 351 333
f 805 804 856
f 856 804 855
f 856 855 858
f 858 855 857
f 858 857 882
f 882 857 881
f 882 881 908
f 908 881 907
f 912 911 909
f 909 911 910
f 909 910 907
f 907 910 908
f 423 424 465
f 465 424 466
f 465 466 630
f 630 466 629
f 630 629 693
f 693 629 694
f 693 694 784
f 784 694 783
f 784 783 817
f 817 783 818
f 817 818 885
f 885 818 886
f 885 886 912
f 912 886 911
f 359 360 361
f 361 360 362
f 361 362 365
f 365 362 366
f 365 366 417
f 417 366 418
f 417 418 421
f 421 418 422
f 900 902 899
f 899 902 901
f 888 887 890
f 890 887 889
f 890 889 892
f 892 889 891
f 906 892 905
f 905 892 891
f 787 788 789
f 789 788 790
f 789 790 791
f 791 790 792
f 788 787 780
f 780 787 779
f 780 779 690
f 690 779 689
f 690 689 638
f 638 689 637
f 638 637 636
f 636 637 635
f 664 680 663
f 663 680 679
f 664 663 662
f 662 663 661
f 662 661 644
f 644 661 643
f 644 643 624
f 624 643 623
f 624 623 460
f 460 623 459
f 460 459 446
f 446 459 445
f 448 446 447
f 447 446 445
f 879 877 880
f 880 877 878
f 850 878 849
f 849 878 877
f 841 861 842
f 842 861 862
f 840 860 839
f 839 860 859
f 734 733 744
f 744 733 743
f 744 743 758
f 758 743 757
f 758 757 768
f 768 757 767
f 768 767 756
f 756 767 755
f 756 755 742
f 742 755 741
f 742 741 727
f 727 741 726
f 727 726 715
f 715 726 714
f 715 714 700
f 700 714 699
f 700 699 697
f 697 699 696
f 697 696 702
f 702 696 701
f 702 701 719
f 719 701 718
f 719 718 734
f 734 718 733
f 534 533 567
f 567 533 566
f 567 566 602
f 602 566 601
f 602 601 609
f 609 601 608
f 609 608 600
f 600 608 599
f 600 599 563
f 563 599 562
f 563 562 527
f 527 562 526
f 527 526 503
f 503 526 502
f 503 502 481
f 481 502 480
f 481 480 468
f 468 480 467
f 468 467 485
f 485 467 484
f 485 484 507
f 507 484 506
f 507 506 534
f 534 506 533
f 804 805 773
f 773 805 774
f 773 774 683
f 683 774 684
f 683 684 617
f 617 684 618
f 617 618 453
f 453 618 454
f 453 454 359
f 359 454 360
f 901 902 903
f 903 902 904
f 903 904 905
f 905 904 906
f 791 792 781
f 781 792 782
f 781 782 691
f 691 782 692
f 691 692 635
f 635 692 636
f 448 447 462
f 462 447 461
f 462 461 626
f 626 461 625
f 626 625 666
f 666 625 665
f 666 665 668
f 668 665 667
f 668 667 680
f 680 667 679
f 872 854 871
f 871 854 853
f 820 819 822
f 822 819 821
f 822 821 824
f 824 821 823
f 548 547 574
f 574 547 573
f 574 573 606
f 606 573 605
f 606 605 616
f 616 605 615
f 616 615 604
f 604 615 603
f 604 603 571
f 571 603 570
f 571 570 542
f 542 570 541
f 542 541 511
f 511 541 510
f 511 510 489
f 489 510 488
f 489 488 470
f 470 488 469
f 470 469 492
f 492 469 491
f 492 491 514
f 514 491 513
f 514 513 548
f 548 513 547
f 644 622 620
f 622 644 624
f 690 688 778
f 727 715 684
f 727 684 742
f 742 684 774
f 742 774 756
f 702 688 697
f 697 688 686
f 697 686 700
f 700 686 715
f 702 719 688
f 688 719 734
f 688 734 778
f 778 734 744
f 778 744 758
f 618 527 454
f 454 527 503
f 454 503 456
f 503 481 456
f 456 481 468
f 456 468 458
f 458 468 485
f 458 485 507
f 622 534 567
f 567 602 622
f 622 602 609
f 622 609 620
f 620 609 600
f 620 600 618
f 618 600 563
f 618 563 527
f 898 896 882
f 886 874 884
f 884 874 876
f 876 880 884
f 884 880 878
f 884 878 882
f 882 870 868
f 870 882 866
f 866 882 878
f 866 878 862
f 824 812 822
f 822 812 810
f 822 810 820
f 824 826 812
f 812 826 830
f 812 830 834
f 862 878 842
f 842 878 850
f 842 850 838
f 838 850 846
f 838 846 834
f 834 846 844
f 834 844 812
f 868 864 882
f 882 864 860
f 882 860 858
f 858 860 840
f 858 840 856
f 856 840 836
f 856 836 808
f 808 836 832
f 808 832 828
f 896 894 882
f 882 894 888
f 882 888 884
f 884 888 890
f 884 890 886
f 886 890 892
f 886 892 911
f 911 892 906
f 911 906 910
f 910 906 904
f 910 904 908
f 908 904 902
f 908 902 882
f 882 902 900
f 882 900 898
f 690 638 628
f 629 636 694
f 694 636 692
f 694 692 783
f 783 692 782
f 783 782 818
f 818 782 792
f 818 792 812
f 812 792 790
f 812 790 810
f 810 790 788
f 810 788 778
f 778 788 780
f 778 780 690
f 470 492 464
f 616 604 626
f 604 571 626
f 626 571 542
f 626 542 462
f 462 542 511
f 462 511 489
f 606 616 628
f 628 616 626
f 628 626 690
f 690 626 666
f 690 666 688
f 688 666 668
f 688 668 686
f 686 668 680
f 492 514 464
f 464 514 548
f 464 548 628
f 628 548 574
f 628 574 606
f 489 470 462
f 462 470 464
f 462 464 448
f 448 464 418
f 448 418 446
f 446 418 366
f 446 366 460
f 507 534 458
f 458 534 622
f 458 622 460
f 460 622 624
f 715 686 684
f 684 686 680
f 684 680 618
f 618 680 664
f 618 664 620
f 620 664 662
f 620 662 644
f 844 848 812
f 812 848 852
f 812 852 818
f 818 852 854
f 818 854 886
f 886 854 872
f 886 872 874
f 768 756 776
f 776 756 774
f 776 774 808
f 808 774 805
f 808 805 856
f 828 820 808
f 808 820 810
f 808 810 776
f 776 810 778
f 776 778 768
f 768 778 758
f 460 366 458
f 458 366 362
f 458 362 456
f 456 362 360
f 456 360 454
f 638 636 628
f 628 636 629
f 628 629 464
f 464 629 466
f 464 466 418
f 418 466 424
f 635 637 627
f 804 807 855
f 683 685 699
f 699 714 683
f 683 714 726
f 683 726 773
f 773 726 741
f 773 741 775
f 741 755 775
f 775 755 767
f 775 767 777
f 777 767 757
f 777 757 743
f 733 718 687
f 687 718 701
f 687 701 696
f 617 526 562
f 617 562 619
f 619 562 599
f 619 599 608
f 526 617 502
f 502 617 453
f 502 453 480
f 480 453 455
f 480 455 467
f 467 455 457
f 467 457 484
f 608 601 621
f 601 566 621
f 621 566 533
f 621 533 457
f 457 533 506
f 457 506 484
f 867 869 881
f 877 879 883
f 817 851 811
f 811 851 847
f 811 847 843
f 811 833 829
f 827 831 807
f 807 831 835
f 807 835 855
f 855 835 839
f 855 839 857
f 857 839 859
f 857 859 881
f 881 859 863
f 881 863 867
f 833 811 837
f 837 811 843
f 837 843 841
f 843 845 841
f 841 845 849
f 841 849 861
f 861 849 877
f 861 877 865
f 865 877 869
f 829 825 811
f 811 825 823
f 811 823 809
f 809 823 821
f 809 821 807
f 807 821 819
f 807 819 827
f 893 895 881
f 893 881 887
f 869 877 881
f 881 877 883
f 881 883 887
f 895 897 881
f 881 897 899
f 881 899 907
f 907 899 901
f 907 901 909
f 909 901 903
f 909 903 912
f 912 903 905
f 912 905 885
f 885 905 891
f 885 891 883
f 883 891 889
f 883 889 887
f 743 733 777
f 777 733 687
f 777 687 779
f 779 687 689
f 627 637 625
f 625 637 689
f 625 689 665
f 665 689 687
f 665 687 685
f 685 687 696
f 685 696 699
f 635 630 691
f 691 630 693
f 691 693 784
f 809 787 811
f 811 787 789
f 811 789 817
f 817 789 791
f 817 791 784
f 784 791 781
f 784 781 691
f 445 459 457
f 457 459 623
f 457 623 621
f 621 623 643
f 621 643 661
f 365 417 447
f 447 417 463
f 447 463 461
f 513 463 547
f 547 463 627
f 547 627 573
f 461 510 625
f 625 510 541
f 625 541 570
f 570 603 625
f 625 603 615
f 625 615 627
f 627 615 605
f 627 605 573
f 513 491 463
f 463 491 469
f 463 469 461
f 461 469 488
f 461 488 510
f 608 621 619
f 619 621 661
f 619 661 617
f 617 661 663
f 617 663 683
f 683 663 679
f 683 679 685
f 685 679 667
f 685 667 665
f 879 875 883
f 883 875 873
f 883 873 885
f 885 873 871
f 885 871 817
f 817 871 853
f 817 853 851
f 447 445 365
f 365 445 457
f 365 457 361
f 361 457 455
f 361 455 359
f 359 455 453
f 635 627 630
f 630 627 463
f 630 463 465
f 465 463 417
f 465 417 423
f 779 787 777
f 777 787 809
f 777 809 775
f 775 809 807
f 775 807 773
f 773 807 804
f 841 842 837
f 837 842 838
f 837 838 833
f 833 838 834
f 833 834 829
f 829 834 830
f 829 830 825
f 825 830 826
f 825 826 823
f 823 826 824
f 819 820 827
f 827 820 828
f 827 828 831
f 831 828 832
f 831 832 835
f 835 832 836
f 835 836 839
f 839 836 840
f 887 888 893
f 893 888 894
f 893 894 895
f 895 894 896
f 895 896 897
f 897 896 898
f 897 898 899
f 899 898 900
f 872 871 874
f 874 871 873
f 874 873 876
f 876 873 875
f 876 875 880
f 880 875 879
f 850 849 846
f 846 849 845
f 846 845 844
f 844 845 843
f 844 843 848
f 848 843 847
f 848 847 852
f 852 847 851
f 852 851 854
f 854 851 853
f 859 860 863
f 863 860 864
f 863 864 867
f 867 864 868
f 867 868 869
f 869 868 870
f 869 870 865
f 865 870 866
f 865 866 861
f 861 866 862

