# https://github.com/mikedh/trimesh
v -0.0675000027 0.0000000003 -0.0170000009
v -0.0675000027 0.0000000003 0.0170000009
v -0.0675000027 0.0110219121 -0.0004181139
v -0.0675000027 0.0111957742 0.0012360680
v -0.0675000027 0.0115358988 -0.0020000001
v -0.0675000027 0.0120274210 0.0026765224
v -0.0675000027 0.0126488591 -0.0032360679
v -0.0675000027 0.0133730536 0.0036541817
v -0.0675000027 0.0141683528 -0.0039125904
v -0.0675000027 0.0149999997 0.0040000002
v -0.0675000027 0.0158316474 -0.0039125904
v -0.0675000027 0.0166269466 0.0036541817
v -0.0675000027 0.0173511412 -0.0032360679
v -0.0675000027 0.0179725792 0.0026765224
v -0.0675000027 0.0184641015 -0.0020000001
v -0.0675000027 0.0188042261 0.0012360680
v -0.0675000027 0.0189780872 -0.0004181139
v -0.0675000027 0.0299999993 -0.0170000009
v -0.0675000027 0.0299999993 0.0170000009
v -0.0665000007 0.0110219121 -0.0004181139
v -0.0665000007 0.0111957742 0.0012360680
v -0.0665000007 0.0115358988 -0.0020000001
v -0.0665000007 0.0120274210 0.0026765224
v -0.0665000007 0.0126488591 -0.0032360679
v -0.0665000007 0.0133730536 0.0036541817
v -0.0665000007 0.0135000004 -0.0000000000
v -0.0665000007 0.0137009621 -0.0007500000
v -0.0665000007 0.0137009621 0.0007500000
v -0.0665000007 0.0141683528 -0.0039125904
v -0.0665000007 0.0142500000 -0.0012990381
v -0.0665000007 0.0142500000 0.0012990381
v -0.0665000007 0.0149999997 -0.0015000000
v -0.0665000007 0.0149999997 0.0015000000
v -0.0665000007 0.0149999997 0.0040000002
v -0.0665000007 0.0157500003 -0.0012990381
v -0.0665000007 0.0157500003 0.0012990381
v -0.0665000007 0.0158316474 -0.0039125904
v -0.0665000007 0.0162990373 -0.0007500000
v -0.0665000007 0.0162990373 0.0007500000
v -0.0665000007 0.0164999999 -0.0000000000
v -0.0665000007 0.0166269466 0.0036541817
v -0.0665000007 0.0173511412 -0.0032360679
v -0.0665000007 0.0179725792 0.0026765224
v -0.0665000007 0.0184641015 -0.0020000001
v -0.0665000007 0.0188042261 0.0012360680
v -0.0665000007 0.0189780872 -0.0004181139
v -0.0640000030 0.0118245734 -0.0000000000
v -0.0640000030 0.0134122865 -0.0027500000
v -0.0640000030 0.0134122865 0.0027500000
v -0.0640000030 0.0135000004 -0.0000000000
v -0.0640000030 0.0137009621 -0.0007500000
v -0.0640000030 0.0137009621 0.0007500000
v -0.0640000030 0.0142500000 -0.0012990381
v -0.0640000030 0.0142500000 0.0012990381
v -0.0640000030 0.0149999997 -0.0015000000
v -0.0640000030 0.0149999997 0.0015000000
v -0.0640000030 0.0157500003 -0.0012990381
v -0.0640000030 0.0157500003 0.0012990381
v -0.0640000030 0.0162990373 -0.0007500000
v -0.0640000030 0.0162990373 0.0007500000
v -0.0640000030 0.0164999999 -0.0000000000
v -0.0640000030 0.0165877137 -0.0027500000
v -0.0640000030 0.0165877137 0.0027500000
v -0.0640000030 0.0181754269 -0.0000000000
v -0.0640000030 0.0181754269 -0.0000000000
v -0.0619999990 0.0000000003 -0.0099999998
v -0.0619999990 0.0000000003 0.0099999998
v -0.0619999990 0.0118245734 -0.0000000000
v -0.0619999990 0.0134122865 -0.0027500000
v -0.0619999990 0.0134122865 0.0027500000
v -0.0619999990 0.0165877137 -0.0027500000
v -0.0619999990 0.0165877137 0.0027500000
v -0.0619999990 0.0181754269 -0.0000000000
v -0.0619999990 0.0299999993 -0.0099999998
v -0.0619999990 0.0299999993 0.0099999998
v -0.0555000007 0.0005500003 -0.0099999998
v -0.0555000007 0.0005500003 -0.0044999998
v -0.0555000007 0.0005500003 0.0044999998
v -0.0555000007 0.0005500003 0.0099999998
v -0.0555000007 0.0294499993 -0.0099999998
v -0.0555000007 0.0294499993 -0.0044999998
v -0.0555000007 0.0294499993 0.0044999998
v -0.0555000007 0.0294499993 0.0099999998
v -0.0509999990 0.0005500003 -0.0044999998
v -0.0509999990 0.0005500003 0.0044999998
v -0.0509999990 0.0294499993 -0.0044999998
v -0.0509999990 0.0294499993 0.0044999998
v -0.0505000018 0.0084999995 -0.0074999998
v -0.0505000018 0.0084999995 0.0074999998
v -0.0505000018 0.0086485464 -0.0081508253
v -0.0505000018 0.0086485464 -0.0068491744
v -0.0505000018 0.0086485464 0.0068491744
v -0.0505000018 0.0086485464 0.0081508253
v -0.0505000018 0.0090647656 -0.0086727468
v -0.0505000018 0.0090647656 -0.0063272528
v -0.0505000018 0.0090647656 0.0063272528
v -0.0505000018 0.0090647656 0.0086727468
v -0.0505000018 0.0096662184 -0.0089623919
v -0.0505000018 0.0096662184 -0.0060376083
v -0.0505000018 0.0096662184 0.0060376083
v -0.0505000018 0.0096662184 0.0089623919
v -0.0505000018 0.0099999998 -0.0074999998
v -0.0505000018 0.0099999998 0.0074999998
v -0.0505000018 0.0103337811 -0.0089623919
v -0.0505000018 0.0103337811 -0.0060376083
v -0.0505000018 0.0103337811 0.0060376083
v -0.0505000018 0.0103337811 0.0089623919
v -0.0505000018 0.0109352348 -0.0086727468
v -0.0505000018 0.0109352348 -0.0063272528
v -0.0505000018 0.0109352348 0.0063272528
v -0.0505000018 0.0109352348 0.0086727468
v -0.0505000018 0.0113514531 -0.0081508253
v -0.0505000018 0.0113514531 -0.0068491744
v -0.0505000018 0.0113514531 0.0068491744
v -0.0505000018 0.0113514531 0.0081508253
v -0.0505000018 0.0115000000 -0.0074999998
v -0.0505000018 0.0115000000 0.0074999998
v -0.0505000018 0.0185000002 -0.0074999998
v -0.0505000018 0.0185000002 0.0074999998
v -0.0505000018 0.0186485462 -0.0081508253
v -0.0505000018 0.0186485462 -0.0068491744
v -0.0505000018 0.0186485462 0.0068491744
v -0.0505000018 0.0186485462 0.0081508253
v -0.0505000018 0.0190647654 -0.0086727468
v -0.0505000018 0.0190647654 -0.0063272528
v -0.0505000018 0.0190647654 0.0063272528
v -0.0505000018 0.0190647654 0.0086727468
v -0.0505000018 0.0196662191 -0.0089623919
v -0.0505000018 0.0196662191 -0.0060376083
v -0.0505000018 0.0196662191 0.0060376083
v -0.0505000018 0.0196662191 0.0089623919
v -0.0505000018 0.0199999996 -0.0074999998
v -0.0505000018 0.0199999996 0.0074999998
v -0.0505000018 0.0203337818 -0.0089623919
v -0.0505000018 0.0203337818 -0.0060376083
v -0.0505000018 0.0203337818 0.0060376083
v -0.0505000018 0.0203337818 0.0089623919
v -0.0505000018 0.0209352337 -0.0086727468
v -0.0505000018 0.0209352337 -0.0063272528
v -0.0505000018 0.0209352337 0.0063272528
v -0.0505000018 0.0209352337 0.0086727468
v -0.0505000018 0.0213514529 -0.0081508253
v -0.0505000018 0.0213514529 -0.0068491744
v -0.0505000018 0.0213514529 0.0068491744
v -0.0505000018 0.0213514529 0.0081508253
v -0.0505000018 0.0215000007 -0.0074999998
v -0.0505000018 0.0215000007 0.0074999998
v -0.0474999994 0.0000000003 -0.0230000000
v -0.0474999994 0.0000000003 -0.0170000009
v -0.0474999994 0.0000000003 -0.0099999998
v -0.0474999994 0.0000000003 0.0099999998
v -0.0474999994 0.0000000003 0.0170000009
v -0.0474999994 0.0000000003 0.0230000000
v -0.0474999994 0.0005500003 -0.0099999998
v -0.0474999994 0.0005500003 0.0099999998
v -0.0474999994 0.0084999995 -0.0074999998
v -0.0474999994 0.0084999995 0.0074999998
v -0.0474999994 0.0086485464 -0.0081508253
v -0.0474999994 0.0086485464 -0.0068491744
v -0.0474999994 0.0086485464 0.0068491744
v -0.0474999994 0.0086485464 0.0081508253
v -0.0474999994 0.0087009622 -0.0082500000
v -0.0474999994 0.0087009622 -0.0067500002
v -0.0474999994 0.0087009622 0.0067500002
v -0.0474999994 0.0087009622 0.0082500000
v -0.0474999994 0.0090647656 -0.0086727468
v -0.0474999994 0.0090647656 -0.0063272528
v -0.0474999994 0.0090647656 0.0063272528
v -0.0474999994 0.0090647656 0.0086727468
v -0.0474999994 0.0092500001 -0.0087990379
v -0.0474999994 0.0092500001 -0.0062009618
v -0.0474999994 0.0092500001 0.0062009618
v -0.0474999994 0.0092500001 0.0087990379
v -0.0474999994 0.0096662184 -0.0089623919
v -0.0474999994 0.0096662184 -0.0060376083
v -0.0474999994 0.0096662184 0.0060376083
v -0.0474999994 0.0096662184 0.0089623919
v -0.0474999994 0.0099999998 -0.0089999996
v -0.0474999994 0.0099999998 -0.0060000001
v -0.0474999994 0.0099999998 0.0060000001
v -0.0474999994 0.0099999998 0.0089999996
v -0.0474999994 0.0103337811 -0.0089623919
v -0.0474999994 0.0103337811 -0.0060376083
v -0.0474999994 0.0103337811 0.0060376083
v -0.0474999994 0.0103337811 0.0089623919
v -0.0474999994 0.0107499994 -0.0087990379
v -0.0474999994 0.0107499994 -0.0062009618
v -0.0474999994 0.0107499994 0.0062009618
v -0.0474999994 0.0107499994 0.0087990379
v -0.0474999994 0.0109352348 -0.0086727468
v -0.0474999994 0.0109352348 -0.0063272528
v -0.0474999994 0.0109352348 0.0063272528
v -0.0474999994 0.0109352348 0.0086727468
v -0.0474999994 0.0112990383 -0.0082500000
v -0.0474999994 0.0112990383 -0.0067500002
v -0.0474999994 0.0112990383 0.0067500002
v -0.0474999994 0.0112990383 0.0082500000
v -0.0474999994 0.0113514531 -0.0081508253
v -0.0474999994 0.0113514531 -0.0068491744
v -0.0474999994 0.0113514531 0.0068491744
v -0.0474999994 0.0113514531 0.0081508253
v -0.0474999994 0.0115000000 -0.0074999998
v -0.0474999994 0.0115000000 0.0074999998
v -0.0474999994 0.0185000002 -0.0074999998
v -0.0474999994 0.0185000002 0.0074999998
v -0.0474999994 0.0186485462 -0.0081508253
v -0.0474999994 0.0186485462 -0.0068491744
v -0.0474999994 0.0186485462 0.0068491744
v -0.0474999994 0.0186485462 0.0081508253
v -0.0474999994 0.0187009610 -0.0082500000
v -0.0474999994 0.0187009610 -0.0067500002
v -0.0474999994 0.0187009610 0.0067500002
v -0.0474999994 0.0187009610 0.0082500000
v -0.0474999994 0.0190647654 -0.0086727468
v -0.0474999994 0.0190647654 -0.0063272528
v -0.0474999994 0.0190647654 0.0063272528
v -0.0474999994 0.0190647654 0.0086727468
v -0.0474999994 0.0192499999 -0.0087990379
v -0.0474999994 0.0192499999 -0.0062009618
v -0.0474999994 0.0192499999 0.0062009618
v -0.0474999994 0.0192499999 0.0087990379
v -0.0474999994 0.0196662191 -0.0089623919
v -0.0474999994 0.0196662191 -0.0060376083
v -0.0474999994 0.0196662191 0.0060376083
v -0.0474999994 0.0196662191 0.0089623919
v -0.0474999994 0.0199999996 -0.0089999996
v -0.0474999994 0.0199999996 -0.0060000001
v -0.0474999994 0.0199999996 0.0060000001
v -0.0474999994 0.0199999996 0.0089999996
v -0.0474999994 0.0203337818 -0.0089623919
v -0.0474999994 0.0203337818 -0.0060376083
v -0.0474999994 0.0203337818 0.0060376083
v -0.0474999994 0.0203337818 0.0089623919
v -0.0474999994 0.0207499992 -0.0087990379
v -0.0474999994 0.0207499992 -0.0062009618
v -0.0474999994 0.0207499992 0.0062009618
v -0.0474999994 0.0207499992 0.0087990379
v -0.0474999994 0.0209352337 -0.0086727468
v -0.0474999994 0.0209352337 -0.0063272528
v -0.0474999994 0.0209352337 0.0063272528
v -0.0474999994 0.0209352337 0.0086727468
v -0.0474999994 0.0212990381 -0.0082500000
v -0.0474999994 0.0212990381 -0.0067500002
v -0.0474999994 0.0212990381 0.0067500002
v -0.0474999994 0.0212990381 0.0082500000
v -0.0474999994 0.0213514529 -0.0081508253
v -0.0474999994 0.0213514529 -0.0068491744
v -0.0474999994 0.0213514529 0.0068491744
v -0.0474999994 0.0213514529 0.0081508253
v -0.0474999994 0.0215000007 -0.0074999998
v -0.0474999994 0.0215000007 0.0074999998
v -0.0474999994 0.0294499993 -0.0099999998
v -0.0474999994 0.0294499993 0.0099999998
v -0.0474999994 0.0299999993 -0.0230000000
v -0.0474999994 0.0299999993 -0.0170000009
v -0.0474999994 0.0299999993 -0.0099999998
v -0.0474999994 0.0299999993 0.0099999998
v -0.0474999994 0.0299999993 0.0170000009
v -0.0474999994 0.0299999993 0.0230000000
v -0.0425000004 0.0070218737 -0.0078616105
v -0.0425000004 0.0070218737 0.0071383901
v -0.0425000004 0.0071949512 -0.0064361854
v -0.0425000004 0.0071949512 0.0085638147
v -0.0425000004 0.0075310487 -0.0092041939
v -0.0425000004 0.0075310487 0.0057958057
v -0.0425000004 0.0080106324 -0.0052544679
v -0.0425000004 0.0080106324 0.0097455326
v -0.0425000004 0.0084999995 -0.0074999998
v -0.0425000004 0.0084999995 0.0074999998
v -0.0425000004 0.0086058304 -0.0101563679
v -0.0425000004 0.0086058304 0.0048436318
v -0.0425000004 0.0087009622 -0.0082500000
v -0.0425000004 0.0087009622 -0.0067500002
v -0.0425000004 0.0087009622 0.0067500002
v -0.0425000004 0.0087009622 0.0082500000
v -0.0425000004 0.0092500001 -0.0087990379
v -0.0425000004 0.0092500001 -0.0062009618
v -0.0425000004 0.0092500001 0.0062009618
v -0.0425000004 0.0092500001 0.0087990379
v -0.0425000004 0.0092820525 -0.0045871744
v -0.0425000004 0.0092820525 0.0104128253
v -0.0425000004 0.0099999998 -0.0104999999
v -0.0425000004 0.0099999998 -0.0089999996
v -0.0425000004 0.0099999998 -0.0060000001
v -0.0425000004 0.0099999998 0.0044999998
v -0.0425000004 0.0099999998 0.0060000001
v -0.0425000004 0.0099999998 0.0089999996
v -0.0425000004 0.0107179470 -0.0045871744
v -0.0425000004 0.0107179470 0.0104128253
v -0.0425000004 0.0107499994 -0.0087990379
v -0.0425000004 0.0107499994 -0.0062009618
v -0.0425000004 0.0107499994 0.0062009618
v -0.0425000004 0.0107499994 0.0087990379
v -0.0425000004 0.0112990383 -0.0082500000
v -0.0425000004 0.0112990383 -0.0067500002
v -0.0425000004 0.0112990383 0.0067500002
v -0.0425000004 0.0112990383 0.0082500000
v -0.0425000004 0.0113941692 -0.0101563679
v -0.0425000004 0.0113941692 0.0048436318
v -0.0425000004 0.0115000000 -0.0074999998
v -0.0425000004 0.0115000000 0.0074999998
v -0.0425000004 0.0119893681 -0.0052544679
v -0.0425000004 0.0119893681 0.0097455326
v -0.0425000004 0.0124689518 -0.0092041939
v -0.0425000004 0.0124689518 0.0057958057
v -0.0425000004 0.0128050484 -0.0064361854
v -0.0425000004 0.0128050484 0.0085638147
v -0.0425000004 0.0129781263 -0.0078616105
v -0.0425000004 0.0129781263 0.0071383901
v -0.0425000004 0.0170218740 -0.0078616105
v -0.0425000004 0.0170218740 0.0071383901
v -0.0425000004 0.0171949510 -0.0064361854
v -0.0425000004 0.0171949510 0.0085638147
v -0.0425000004 0.0175310485 -0.0092041939
v -0.0425000004 0.0175310485 0.0057958057
v -0.0425000004 0.0180106312 -0.0052544679
v -0.0425000004 0.0180106312 0.0097455326
v -0.0425000004 0.0185000002 -0.0074999998
v -0.0425000004 0.0185000002 0.0074999998
v -0.0425000004 0.0186058301 -0.0101563679
v -0.0425000004 0.0186058301 0.0048436318
v -0.0425000004 0.0187009610 -0.0082500000
v -0.0425000004 0.0187009610 -0.0067500002
v -0.0425000004 0.0187009610 0.0067500002
v -0.0425000004 0.0187009610 0.0082500000
v -0.0425000004 0.0192499999 -0.0087990379
v -0.0425000004 0.0192499999 -0.0062009618
v -0.0425000004 0.0192499999 0.0062009618
v -0.0425000004 0.0192499999 0.0087990379
v -0.0425000004 0.0192820523 -0.0045871744
v -0.0425000004 0.0192820523 0.0104128253
v -0.0425000004 0.0199999996 -0.0104999999
v -0.0425000004 0.0199999996 -0.0089999996
v -0.0425000004 0.0199999996 -0.0060000001
v -0.0425000004 0.0199999996 0.0044999998
v -0.0425000004 0.0199999996 0.0060000001
v -0.0425000004 0.0199999996 0.0089999996
v -0.0425000004 0.0207179468 -0.0045871744
v -0.0425000004 0.0207179468 0.0104128253
v -0.0425000004 0.0207499992 -0.0087990379
v -0.0425000004 0.0207499992 -0.0062009618
v -0.0425000004 0.0207499992 0.0062009618
v -0.0425000004 0.0207499992 0.0087990379
v -0.0425000004 0.0212990381 -0.0082500000
v -0.0425000004 0.0212990381 -0.0067500002
v -0.0425000004 0.0212990381 0.0067500002
v -0.0425000004 0.0212990381 0.0082500000
v -0.0425000004 0.0213941690 -0.0101563679
v -0.0425000004 0.0213941690 0.0048436318
v -0.0425000004 0.0215000007 -0.0074999998
v -0.0425000004 0.0215000007 0.0074999998
v -0.0425000004 0.0219893679 -0.0052544679
v -0.0425000004 0.0219893679 0.0097455326
v -0.0425000004 0.0224689506 -0.0092041939
v -0.0425000004 0.0224689506 0.0057958057
v -0.0425000004 0.0228050482 -0.0064361854
v -0.0425000004 0.0228050482 0.0085638147
v -0.0425000004 0.0229781270 -0.0078616105
v -0.0425000004 0.0229781270 0.0071383901
v -0.0375000015 0.0000000000 0.0149999997
v -0.0375000015 0.0000000000 -0.0149999997
v -0.0375000015 0.0000000000 0.0149999997
v -0.0375000015 0.0000000000 -0.0149999997
v -0.0375000015 0.0000000003 -0.0149999997
v -0.0375000015 0.0000000003 0.0149999997
v -0.0375000015 0.0032500001 -0.0149999997
v -0.0375000015 0.0032500001 0.0149999997
v -0.0375000015 0.0070218737 -0.0078616105
v -0.0375000015 0.0070218737 0.0071383901
v -0.0375000015 0.0071949512 -0.0064361854
v -0.0375000015 0.0071949512 0.0085638147
v -0.0375000015 0.0075310487 -0.0092041939
v -0.0375000015 0.0075310487 0.0057958057
v -0.0375000015 0.0080106324 -0.0052544679
v -0.0375000015 0.0080106324 0.0097455326
v -0.0375000015 0.0086058304 -0.0101563679
v -0.0375000015 0.0086058304 0.0048436318
v -0.0375000015 0.0092820525 -0.0045871744
v -0.0375000015 0.0092820525 0.0104128253
v -0.0375000015 0.0099999998 -0.0104999999
v -0.0375000015 0.0099999998 0.0044999998
v -0.0375000015 0.0107179470 -0.0045871744
v -0.0375000015 0.0107179470 0.0104128253
v -0.0375000015 0.0113941692 -0.0101563679
v -0.0375000015 0.0113941692 0.0048436318
v -0.0375000015 0.0119893681 -0.0052544679
v -0.0375000015 0.0119893681 0.0097455326
v -0.0375000015 0.0124689518 -0.0092041939
v -0.0375000015 0.0124689518 0.0057958057
v -0.0375000015 0.0128050484 -0.0064361854
v -0.0375000015 0.0128050484 0.0085638147
v -0.0375000015 0.0129781263 -0.0078616105
v -0.0375000015 0.0129781263 0.0071383901
v -0.0375000015 0.0170218740 -0.0078616105
v -0.0375000015 0.0170218740 0.0071383901
v -0.0375000015 0.0171949510 -0.0064361854
v -0.0375000015 0.0171949510 0.0085638147
v -0.0375000015 0.0175310485 -0.0092041939
v -0.0375000015 0.0175310485 0.0057958057
v -0.0375000015 0.0180106312 -0.0052544679
v -0.0375000015 0.0180106312 0.0097455326
v -0.0375000015 0.0186058301 -0.0101563679
v -0.0375000015 0.0186058301 0.0048436318
v -0.0375000015 0.0192820523 -0.0045871744
v -0.0375000015 0.0192820523 0.0104128253
v -0.0375000015 0.0199999996 -0.0104999999
v -0.0375000015 0.0199999996 0.0044999998
v -0.0375000015 0.0207179468 -0.0045871744
v -0.0375000015 0.0207179468 0.0104128253
v -0.0375000015 0.0213941690 -0.0101563679
v -0.0375000015 0.0213941690 0.0048436318
v -0.0375000015 0.0219893679 -0.0052544679
v -0.0375000015 0.0219893679 0.0097455326
v -0.0375000015 0.0224689506 -0.0092041939
v -0.0375000015 0.0224689506 0.0057958057
v -0.0375000015 0.0228050482 -0.0064361854
v -0.0375000015 0.0228050482 0.0085638147
v -0.0375000015 0.0228333846 -0.0149999997
v -0.0375000015 0.0228333846 0.0149999997
v -0.0375000015 0.0229781270 -0.0078616105
v -0.0375000015 0.0229781270 0.0071383901
v -0.0375000015 0.0257959347 -0.0149999997
v -0.0375000015 0.0257959347 0.0149999997
v -0.0375000015 0.0299999993 -0.0149999997
v -0.0375000015 0.0299999993 0.0149999997
v -0.0352500007 0.0034122870 -0.0230000000
v -0.0352500007 0.0034122870 -0.0199999996
v -0.0352500007 0.0065877135 -0.0230000000
v -0.0352500007 0.0065877135 -0.0199999996
v -0.0352500007 0.0234122872 -0.0230000000
v -0.0352500007 0.0234122872 -0.0199999996
v -0.0352500007 0.0265877135 -0.0230000000
v -0.0352500007 0.0265877135 -0.0199999996
v -0.0352299474 0.0046685240 0.0199999996
v -0.0352299474 0.0046685240 0.0230000000
v -0.0352299474 0.0246685240 0.0199999996
v -0.0352299474 0.0246685240 0.0230000000
v -0.0350712948 0.0059751640 0.0199999996
v -0.0350712948 0.0059751640 0.0230000000
v -0.0350712948 0.0259751640 0.0199999996
v -0.0350712948 0.0259751640 0.0230000000
v -0.0347632058 0.0034378220 0.0199999996
v -0.0347632058 0.0034378220 0.0230000000
v -0.0347632058 0.0234378222 0.0199999996
v -0.0347632058 0.0234378222 0.0230000000
v -0.0344999991 0.0078332303 -0.0149999997
v -0.0344999991 0.0078332303 0.0149999997
v -0.0344999991 0.0173335411 -0.0149999997
v -0.0344999991 0.0173335411 0.0149999997
v -0.0343235880 0.0070584049 0.0199999996
v -0.0343235880 0.0070584049 0.0230000000
v -0.0343235880 0.0270584039 0.0199999996
v -0.0343235880 0.0270584039 0.0230000000
v -0.0342499986 0.0000000000 0.0149999997
v -0.0342499986 0.0000000000 -0.0149999997
v -0.0342499986 0.0032500001 -0.0149999997
v -0.0342499986 0.0032500001 0.0149999997
v -0.0342499986 0.0081490194 -0.0149999997
v -0.0342499986 0.0081490194 0.0149999997
v -0.0342499986 0.0176493302 -0.0149999997
v -0.0342499986 0.0176493302 0.0149999997
v -0.0342499986 0.0228333846 -0.0149999997
v -0.0342499986 0.0228333846 0.0149999997
v -0.0342499986 0.0257959347 -0.0149999997
v -0.0342499986 0.0257959347 0.0149999997
v -0.0342499986 0.0299999993 -0.0149999997
v -0.0342499986 0.0299999993 0.0149999997
v -0.0340000018 0.0049999999 -0.0149999997
v -0.0340000018 0.0049999999 0.0149999997
v -0.0340000018 0.0250000004 -0.0149999997
v -0.0340000018 0.0250000004 0.0149999997
v -0.0339999981 0.0050000004 -0.0199999996
v -0.0339999981 0.0050000004 -0.0149999997
v -0.0339999981 0.0050000004 0.0149999997
v -0.0339999981 0.0050000004 0.0199999996
v -0.0339999981 0.0250000004 -0.0199999996
v -0.0339999981 0.0250000004 -0.0149999997
v -0.0339999981 0.0250000004 0.0149999997
v -0.0339999981 0.0250000004 0.0199999996
v -0.0337990373 0.0042499998 -0.0199999996
v -0.0337990373 0.0042499998 -0.0149999997
v -0.0337990373 0.0042499998 0.0149999997
v -0.0337990373 0.0042499998 0.0199999996
v -0.0337990373 0.0042500002 -0.0149999997
v -0.0337990373 0.0042500002 0.0149999997
v -0.0337990373 0.0057500000 -0.0199999996
v -0.0337990373 0.0057500000 -0.0149999997
v -0.0337990373 0.0057500000 0.0149999997
v -0.0337990373 0.0057500000 0.0199999996
v -0.0337990373 0.0242500007 -0.0199999996
v -0.0337990373 0.0242500007 -0.0149999997
v -0.0337990373 0.0242500007 0.0149999997
v -0.0337990373 0.0242500007 0.0199999996
v -0.0337990373 0.0257500000 -0.0199999996
v -0.0337990373 0.0257500000 -0.0149999997
v -0.0337990373 0.0257500000 0.0149999997
v -0.0337990373 0.0257500000 0.0199999996
v -0.0337779894 0.0025649958 0.0199999996
v -0.0337779894 0.0025649958 0.0230000000
v -0.0337779894 0.0225649960 0.0199999996
v -0.0337779894 0.0225649960 0.0230000000
v -0.0332500003 0.0037009616 -0.0199999996
v -0.0332500003 0.0037009616 -0.0149999997
v -0.0332500003 0.0037009616 0.0149999997
v -0.0332500003 0.0037009616 0.0199999996
v -0.0332500003 0.0037009618 -0.0149999997
v -0.0332500003 0.0037009618 0.0149999997
v -0.0332500003 0.0062990380 -0.0199999996
v -0.0332500003 0.0062990380 -0.0149999997
v -0.0332500003 0.0062990380 0.0149999997
v -0.0332500003 0.0062990380 0.0199999996
v -0.0332500003 0.0237009618 -0.0199999996
v -0.0332500003 0.0237009618 -0.0149999997
v -0.0332500003 0.0237009618 0.0149999997
v -0.0332500003 0.0237009618 0.0199999996
v -0.0332500003 0.0262990389 -0.0199999996
v -0.0332500003 0.0262990389 -0.0149999997
v -0.0332500003 0.0262990389 0.0149999997
v -0.0332500003 0.0262990389 0.0199999996
v -0.0331581198 0.0076700901 0.0199999996
v -0.0331581198 0.0076700901 0.0230000000
v -0.0331581198 0.0276700910 0.0199999996
v -0.0331581198 0.0276700910 0.0230000000
v -0.0324999988 0.0018245740 -0.0230000000
v -0.0324999988 0.0018245740 -0.0199999996
v -0.0324999988 0.0022500001 0.0199999996
v -0.0324999988 0.0022500001 0.0230000000
v -0.0324999988 0.0034999999 -0.0199999996
v -0.0324999988 0.0034999999 -0.0149999997
v -0.0324999988 0.0034999999 0.0149999997
v -0.0324999988 0.0034999999 0.0199999996
v -0.0324999988 0.0035000001 -0.0149999997
v -0.0324999988 0.0035000001 0.0149999997
v -0.0324999988 0.0064999997 -0.0199999996
v -0.0324999988 0.0064999997 -0.0149999997
v -0.0324999988 0.0064999997 0.0149999997
v -0.0324999988 0.0064999997 0.0199999996
v -0.0324999988 0.0065000001 -0.0149999997
v -0.0324999988 0.0065000001 0.0149999997
v -0.0324999988 0.0081754262 -0.0230000000
v -0.0324999988 0.0081754262 -0.0199999996
v -0.0324999988 0.0218245741 -0.0230000000
v -0.0324999988 0.0218245741 -0.0199999996
v -0.0324999988 0.0222500004 0.0199999996
v -0.0324999988 0.0222500004 0.0230000000
v -0.0324999988 0.0234999992 -0.0149999997
v -0.0324999988 0.0234999992 0.0149999997
v -0.0324999988 0.0235000011 -0.0199999996
v -0.0324999988 0.0235000011 -0.0149999997
v -0.0324999988 0.0235000011 0.0149999997
v -0.0324999988 0.0235000011 0.0199999996
v -0.0324999988 0.0264999997 -0.0199999996
v -0.0324999988 0.0264999997 -0.0149999997
v -0.0324999988 0.0264999997 0.0149999997
v -0.0324999988 0.0264999997 0.0199999996
v -0.0324999988 0.0281754266 -0.0230000000
v -0.0324999988 0.0281754266 -0.0199999996
v -0.0318418816 0.0076700901 0.0199999996
v -0.0318418816 0.0076700901 0.0230000000
v -0.0318418816 0.0276700910 0.0199999996
v -0.0318418816 0.0276700910 0.0230000000
v -0.0317500010 0.0037009616 -0.0199999996
v -0.0317500010 0.0037009616 -0.0149999997
v -0.0317500010 0.0037009616 0.0149999997
v -0.0317500010 0.0037009616 0.0199999996
v -0.0317500010 0.0037009618 -0.0149999997
v -0.0317500010 0.0037009618 0.0149999997
v -0.0317500010 0.0062990380 -0.0199999996
v -0.0317500010 0.0062990380 -0.0149999997
v -0.0317500010 0.0062990380 0.0149999997
v -0.0317500010 0.0062990380 0.0199999996
v -0.0317500010 0.0237009618 -0.0199999996
v -0.0317500010 0.0237009618 -0.0149999997
v -0.0317500010 0.0237009618 0.0149999997
v -0.0317500010 0.0237009618 0.0199999996
v -0.0317500010 0.0262990389 -0.0199999996
v -0.0317500010 0.0262990389 -0.0149999997
v -0.0317500010 0.0262990389 0.0149999997
v -0.0317500010 0.0262990389 0.0199999996
v -0.0312220100 0.0025649958 0.0199999996
v -0.0312220100 0.0025649958 0.0230000000
v -0.0312220100 0.0225649960 0.0199999996
v -0.0312220100 0.0225649960 0.0230000000
v -0.0312009621 0.0042499998 -0.0199999996
v -0.0312009621 0.0042499998 -0.0149999997
v -0.0312009621 0.0042499998 0.0149999997
v -0.0312009621 0.0042499998 0.0199999996
v -0.0312009621 0.0057500000 -0.0199999996
v -0.0312009621 0.0057500000 -0.0149999997
v -0.0312009621 0.0057500000 0.0149999997
v -0.0312009621 0.0057500000 0.0199999996
v -0.0312009621 0.0242500007 -0.0199999996
v -0.0312009621 0.0242500007 -0.0149999997
v -0.0312009621 0.0242500007 0.0149999997
v -0.0312009621 0.0242500007 0.0199999996
v -0.0312009621 0.0257500000 -0.0199999996
v -0.0312009621 0.0257500000 -0.0149999997
v -0.0312009621 0.0257500000 0.0149999997
v -0.0312009621 0.0257500000 0.0199999996
v -0.0312009603 0.0042500002 -0.0149999997
v -0.0312009603 0.0042500002 0.0149999997
v -0.0312009603 0.0057500000 -0.0149999997
v -0.0312009603 0.0057500000 0.0149999997
v -0.0312009603 0.0242500007 -0.0149999997
v -0.0312009603 0.0242500007 0.0149999997
v -0.0312009603 0.0257500000 -0.0149999997
v -0.0312009603 0.0257500000 0.0149999997
v -0.0309999995 0.0049999999 -0.0149999997
v -0.0309999995 0.0049999999 0.0149999997
v -0.0309999995 0.0050000004 -0.0199999996
v -0.0309999995 0.0050000004 -0.0149999997
v -0.0309999995 0.0050000004 0.0149999997
v -0.0309999995 0.0050000004 0.0199999996
v -0.0309999995 0.0250000004 -0.0199999996
v -0.0309999995 0.0250000004 -0.0149999997
v -0.0309999995 0.0250000004 0.0149999997
v -0.0309999995 0.0250000004 0.0199999996
v -0.0308368467 0.0000000000 -0.0149999997
v -0.0308368467 0.0000000000 0.0149999997
v -0.0308368467 0.0032500001 -0.0149999997
v -0.0308368467 0.0032500001 0.0149999997
v -0.0308368467 0.0124603715 -0.0149999997
v -0.0308368467 0.0124603715 0.0149999997
v -0.0308368467 0.0219606813 -0.0149999997
v -0.0308368467 0.0219606813 0.0149999997
v -0.0308368467 0.0228333846 -0.0149999997
v -0.0308368467 0.0228333846 0.0149999997
v -0.0308368467 0.0257959347 -0.0149999997
v -0.0308368467 0.0257959347 0.0149999997
v -0.0308368467 0.0299999993 -0.0149999997
v -0.0308368467 0.0299999993 0.0149999997
v -0.0306764115 0.0070584049 0.0199999996
v -0.0306764115 0.0070584049 0.0230000000
v -0.0306764115 0.0270584039 0.0199999996
v -0.0306764115 0.0270584039 0.0230000000
v -0.0306736920 0.0030000000 -0.0149999997
v -0.0306736920 0.0030000000 0.0149999997
v -0.0304757748 0.0032500001 -0.0149999997
v -0.0304757748 0.0032500001 0.0149999997
v -0.0302367937 0.0034378220 0.0199999996
v -0.0302367937 0.0034378220 0.0230000000
v -0.0302367937 0.0234378222 0.0199999996
v -0.0302367937 0.0234378222 0.0230000000
v -0.0301459562 0.0228333846 -0.0149999997
v -0.0301459562 0.0228333846 0.0149999997
v -0.0299287047 0.0059751640 0.0199999996
v -0.0299287047 0.0059751640 0.0230000000
v -0.0299287047 0.0259751640 0.0199999996
v -0.0299287047 0.0259751640 0.0230000000
v -0.0297700502 0.0046685240 0.0199999996
v -0.0297700502 0.0046685240 0.0230000000
v -0.0297700502 0.0246685240 0.0199999996
v -0.0297700502 0.0246685240 0.0230000000
v -0.0297499988 0.0034122870 -0.0230000000
v -0.0297499988 0.0034122870 -0.0199999996
v -0.0297499988 0.0065877135 -0.0230000000
v -0.0297499988 0.0065877135 -0.0199999996
v -0.0297499988 0.0234122872 -0.0230000000
v -0.0297499988 0.0234122872 -0.0199999996
v -0.0297499988 0.0265877135 -0.0230000000
v -0.0297499988 0.0265877135 -0.0199999996
v -0.0278006047 0.0257959347 -0.0149999997
v -0.0278006047 0.0257959347 0.0149999997
v -0.0268473849 0.0270000007 -0.0149999997
v -0.0268473849 0.0270000007 0.0149999997
v -0.0226248764 0.0228333846 -0.0149999997
v -0.0226248764 0.0228333846 0.0149999997
v -0.0202795248 0.0257959347 -0.0149999997
v -0.0202795248 0.0257959347 0.0149999997
v -0.0202500001 0.0234122872 -0.0230000000
v -0.0202500001 0.0234122872 -0.0199999996
v -0.0202500001 0.0265877135 -0.0230000000
v -0.0202500001 0.0265877135 -0.0199999996
v -0.0202299487 0.0246685240 0.0199999996
v -0.0202299487 0.0246685240 0.0230000000
v -0.0200712942 0.0259751640 0.0199999996
v -0.0200712942 0.0259751640 0.0230000000
v -0.0197632052 0.0234378222 0.0199999996
v -0.0197632052 0.0234378222 0.0230000000
v -0.0193263069 0.0270000007 -0.0149999997
v -0.0193263069 0.0270000007 0.0149999997
v -0.0193235874 0.0270584039 0.0199999996
v -0.0193235874 0.0270584039 0.0230000000
v -0.0191631541 0.0000000000 0.0149999997
v -0.0191631541 0.0000000000 -0.0149999997
v -0.0191631541 0.0030000000 -0.0149999997
v -0.0191631541 0.0030000000 0.0149999997
v -0.0191631541 0.0175396297 -0.0149999997
v -0.0191631541 0.0175396297 0.0149999997
v -0.0191631541 0.0228333846 -0.0149999997
v -0.0191631541 0.0228333846 0.0149999997
v -0.0191631541 0.0257959347 -0.0149999997
v -0.0191631541 0.0257959347 0.0149999997
v -0.0191631541 0.0299999993 -0.0149999997
v -0.0191631541 0.0299999993 0.0149999997
v -0.0189999994 0.0250000004 -0.0199999996
v -0.0189999994 0.0250000004 -0.0149999997
v -0.0189999994 0.0250000004 0.0149999997
v -0.0189999994 0.0250000004 0.0199999996
v -0.0187990386 0.0242500007 -0.0149999997
v -0.0187990386 0.0242500007 0.0149999997
v -0.0187990386 0.0257500000 -0.0149999997
v -0.0187990386 0.0257500000 0.0149999997
v -0.0187990367 0.0242500007 -0.0199999996
v -0.0187990367 0.0242500007 -0.0149999997
v -0.0187990367 0.0242500007 0.0149999997
v -0.0187990367 0.0242500007 0.0199999996
v -0.0187990367 0.0257500000 -0.0199999996
v -0.0187990367 0.0257500000 -0.0149999997
v -0.0187990367 0.0257500000 0.0149999997
v -0.0187990367 0.0257500000 0.0199999996
v -0.0187779889 0.0225649960 0.0199999996
v -0.0187779889 0.0225649960 0.0230000000
v -0.0182499997 0.0237009618 -0.0199999996
v -0.0182499997 0.0237009618 -0.0149999997
v -0.0182499997 0.0237009618 0.0149999997
v -0.0182499997 0.0237009618 0.0199999996
v -0.0182499997 0.0262990389 -0.0199999996
v -0.0182499997 0.0262990389 -0.0149999997
v -0.0182499997 0.0262990389 0.0149999997
v -0.0182499997 0.0262990389 0.0199999996
v -0.0181581173 0.0276700910 0.0199999996
v -0.0181581173 0.0276700910 0.0230000000
v -0.0175000001 0.0218245741 -0.0230000000
v -0.0175000001 0.0218245741 -0.0199999996
v -0.0175000001 0.0222500004 0.0199999996
v -0.0175000001 0.0222500004 0.0230000000
v -0.0175000001 0.0234999992 -0.0149999997
v -0.0175000001 0.0234999992 0.0149999997
v -0.0175000001 0.0235000011 -0.0199999996
v -0.0175000001 0.0235000011 -0.0149999997
v -0.0175000001 0.0235000011 0.0149999997
v -0.0175000001 0.0235000011 0.0199999996
v -0.0175000001 0.0264999997 -0.0199999996
v -0.0175000001 0.0264999997 -0.0149999997
v -0.0175000001 0.0264999997 0.0149999997
v -0.0175000001 0.0264999997 0.0199999996
v -0.0175000001 0.0281754266 -0.0230000000
v -0.0175000001 0.0281754266 -0.0199999996
v -0.0168418810 0.0276700910 0.0199999996
v -0.0168418810 0.0276700910 0.0230000000
v -0.0167500004 0.0237009618 -0.0149999997
v -0.0167500004 0.0237009618 0.0149999997
v -0.0167500004 0.0262990389 -0.0149999997
v -0.0167500004 0.0262990389 0.0149999997
v -0.0167499986 0.0237009618 -0.0199999996
v -0.0167499986 0.0237009618 -0.0149999997
v -0.0167499986 0.0237009618 0.0149999997
v -0.0167499986 0.0237009618 0.0199999996
v -0.0167499986 0.0262990389 -0.0199999996
v -0.0167499986 0.0262990389 -0.0149999997
v -0.0167499986 0.0262990389 0.0149999997
v -0.0167499986 0.0262990389 0.0199999996
v -0.0162220113 0.0225649960 0.0199999996
v -0.0162220113 0.0225649960 0.0230000000
v -0.0162009615 0.0242500007 -0.0149999997
v -0.0162009615 0.0242500007 0.0149999997
v -0.0162009615 0.0257500000 -0.0149999997
v -0.0162009615 0.0257500000 0.0149999997
v -0.0162009597 0.0242500007 -0.0199999996
v -0.0162009597 0.0242500007 -0.0149999997
v -0.0162009597 0.0242500007 0.0149999997
v -0.0162009597 0.0242500007 0.0199999996
v -0.0162009597 0.0257500000 -0.0199999996
v -0.0162009597 0.0257500000 -0.0149999997
v -0.0162009597 0.0257500000 0.0149999997
v -0.0162009597 0.0257500000 0.0199999996
v -0.0160000008 0.0250000004 -0.0149999997
v -0.0160000008 0.0250000004 0.0149999997
v -0.0159999989 0.0250000004 -0.0199999996
v -0.0159999989 0.0250000004 -0.0149999997
v -0.0159999989 0.0250000004 0.0149999997
v -0.0159999989 0.0250000004 0.0199999996
v -0.0157500003 0.0000000000 -0.0149999997
v -0.0157500003 0.0000000000 0.0149999997
v -0.0157500003 0.0030000000 -0.0149999997
v -0.0157500003 0.0030000000 0.0149999997
v -0.0157500003 0.0218509808 -0.0149999997
v -0.0157500003 0.0218509808 0.0149999997
v -0.0157500003 0.0228333846 -0.0149999997
v -0.0157500003 0.0228333846 0.0149999997
v -0.0157500003 0.0257959347 -0.0149999997
v -0.0157500003 0.0257959347 0.0149999997
v -0.0157500003 0.0299999993 -0.0149999997
v -0.0157500003 0.0299999993 0.0149999997
v -0.0156764127 0.0270584039 0.0199999996
v -0.0156764127 0.0270584039 0.0230000000
v -0.0154999997 0.0030000000 -0.0149999997
v -0.0154999997 0.0030000000 0.0149999997
v -0.0154999997 0.0032500001 -0.0149999997
v -0.0154999997 0.0032500001 0.0149999997
v -0.0154999997 0.0221667700 -0.0149999997
v -0.0154999997 0.0221667700 0.0149999997
v -0.0152367959 0.0234378222 0.0199999996
v -0.0152367959 0.0234378222 0.0230000000
v -0.0149287069 0.0259751640 0.0199999996
v -0.0149287069 0.0259751640 0.0230000000
v -0.0147700505 0.0246685240 0.0199999996
v -0.0147700505 0.0246685240 0.0230000000
v -0.0147500010 0.0234122872 -0.0230000000
v -0.0147500010 0.0234122872 -0.0199999996
v -0.0147500010 0.0265877135 -0.0230000000
v -0.0147500010 0.0265877135 -0.0199999996
v -0.0125000002 0.0000000000 0.0149999997
v -0.0125000002 0.0000000000 -0.0149999997
v -0.0125000002 0.0000000003 -0.0230000000
v -0.0125000002 0.0000000003 -0.0149999997
v -0.0125000002 0.0000000003 0.0149999997
v -0.0125000002 0.0000000003 0.0230000000
v -0.0125000002 0.0032500001 -0.0149999997
v -0.0125000002 0.0032500001 0.0149999997
v -0.0125000002 0.0228333846 -0.0149999997
v -0.0125000002 0.0228333846 0.0149999997
v -0.0125000002 0.0257959347 -0.0149999997
v -0.0125000002 0.0257959347 0.0149999997
v -0.0125000002 0.0299999993 -0.0230000000
v -0.0125000002 0.0299999993 -0.0149999997
v -0.0125000002 0.0299999993 0.0149999997
v -0.0125000002 0.0299999993 0.0230000000
v -0.0094999997 0.0063443510 -0.0149999997
v -0.0094999997 0.0063443510 0.0149999997
v -0.0094999997 0.0228333846 -0.0149999997
v -0.0094999997 0.0228333846 0.0149999997
v -0.0094999997 0.0240918677 -0.0149999997
v -0.0094999997 0.0240918677 0.0149999997
v -0.0094106253 0.0059311171 -0.0149999997
v -0.0094106253 0.0059311171 0.0149999997
v -0.0093833543 0.0245605744 -0.0149999997
v -0.0093833543 0.0245605744 0.0149999997
v -0.0091584753 0.0055917487 -0.0149999997
v -0.0091584753 0.0055917487 0.0149999997
v -0.0090606287 0.0249199346 -0.0149999997
v -0.0090606287 0.0249199346 0.0149999997
v -0.0087886229 0.0053869081 -0.0149999997
v -0.0087886229 0.0053869081 0.0149999997
v -0.0086071137 0.0250861142 -0.0149999997
v -0.0086071137 0.0250861142 0.0149999997
v -0.0083671790 0.0053532110 -0.0149999997
v -0.0083671790 0.0053532110 0.0149999997
v -0.0081286095 0.0250203442 -0.0149999997
v -0.0081286095 0.0250203442 0.0149999997
v -0.0079694772 0.0054966803 -0.0149999997
v -0.0079694772 0.0054966803 0.0149999997
v -0.0045583518 0.0039786305 -0.0149999997
v -0.0045583518 0.0039786305 0.0149999997
v -0.0044384999 0.0044751232 -0.0149999997
v -0.0044384999 0.0044751232 0.0149999997
v -0.0044173943 0.0034877127 -0.0149999997
v -0.0044173943 0.0034877127 0.0149999997
v -0.0040891031 0.0048476709 -0.0149999997
v -0.0040891031 0.0048476709 0.0149999997
v -0.0040523987 0.0031304348 -0.0149999997
v -0.0040523987 0.0031304348 0.0149999997
v -0.0035585805 0.0030000000 -0.0149999997
v -0.0035585805 0.0030000000 0.0149999997
v -0.0019898347 0.0257959347 -0.0149999997
v -0.0019898347 0.0257959347 0.0149999997
v 0.0054165376 0.0228333846 -0.0149999997
v 0.0054165376 0.0228333846 0.0149999997
v 0.0091715408 0.0181002840 -0.0149999997
v 0.0091715408 0.0181002840 0.0149999997
v 0.0093306722 0.0163241364 -0.0149999997
v 0.0093306722 0.0163241364 0.0149999997
v 0.0095318956 0.0178533848 -0.0149999997
v 0.0095318956 0.0178533848 0.0149999997
v 0.0096414005 0.0166311618 -0.0149999997
v 0.0096414005 0.0166311618 0.0149999997
v 0.0097526228 0.0174764302 -0.0149999997
v 0.0097526228 0.0174764302 0.0149999997
v 0.0097916042 0.0170413498 -0.0149999997
v 0.0097916042 0.0170413498 0.0149999997
v 0.0100000007 0.0030000000 -0.0149999997
v 0.0100000007 0.0030000000 0.0149999997
v 0.0104999999 0.0031339745 -0.0149999997
v 0.0104999999 0.0031339745 0.0149999997
v 0.0108660245 0.0035000001 -0.0149999997
v 0.0108660245 0.0035000001 0.0149999997
v 0.0109999990 0.0040000002 -0.0149999997
v 0.0109999990 0.0040000002 0.0149999997
v 0.0109999990 0.0142913237 -0.0149999997
v 0.0109999990 0.0142913237 0.0149999997
v 0.0125000002 0.0000000000 0.0149999997
v 0.0125000002 0.0000000000 -0.0149999997
v 0.0125000002 0.0032500001 -0.0149999997
v 0.0125000002 0.0032500001 0.0149999997
v 0.0125000002 0.0199999996 -0.0149999997
v 0.0125000002 0.0199999996 0.0149999997
v 0.0139999995 0.0030000000 -0.0149999997
v 0.0139999995 0.0030000000 0.0149999997
v 0.0139999995 0.0032500001 -0.0149999997
v 0.0139999995 0.0032500001 0.0149999997
v 0.0139999995 0.0146918679 -0.0149999997
v 0.0139999995 0.0146918679 0.0149999997
v 0.0141166458 0.0151605746 -0.0149999997
v 0.0141166458 0.0151605746 0.0149999997
v 0.0144393714 0.0155199356 -0.0149999997
v 0.0144393714 0.0155199356 0.0149999997
v 0.0148928864 0.0156861152 -0.0149999997
v 0.0148928864 0.0156861152 0.0149999997
v 0.0153713906 0.0156203452 -0.0149999997
v 0.0153713906 0.0156203452 0.0149999997
v 0.0344999991 0.0030000000 -0.0149999997
v 0.0344999991 0.0030000000 0.0149999997
v 0.0344999991 0.0032500001 -0.0149999997
v 0.0344999991 0.0032500001 0.0149999997
v 0.0344999991 0.0079689007 -0.0149999997
v 0.0344999991 0.0079689007 0.0149999997
v 0.0375000015 0.0000000000 -0.0149999997
v 0.0375000015 0.0000000000 0.0149999997
v 0.0375000015 0.0032500001 -0.0149999997
v 0.0375000015 0.0032500001 0.0149999997
v 0.0375000015 0.0099999998 -0.0149999997
v 0.0375000015 0.0099999998 0.0149999997
f 817 818 856
f 856 818 857
f 856 857 858
f 858 857 859
f 858 859 886
f 886 859 887
f 886 887 912
f 912 887 913
f 909 908 911
f 911 908 910
f 911 910 913
f 913 910 912
f 360 361 454
f 454 361 455
f 454 455 619
f 619 455 618
f 619 618 684
f 684 618 685
f 684 685 775
f 775 685 774
f 775 774 804
f 804 774 805
f 804 805 882
f 882 805 883
f 882 883 909
f 909 883 908
f 425 424 423
f 423 424 422
f 423 422 419
f 419 422 418
f 419 418 367
f 367 418 366
f 367 366 362
f 362 366 363
f 900 906 901
f 901 906 907
f 892 893 890
f 890 893 891
f 890 891 888
f 888 891 889
f 902 888 903
f 903 888 889
f 793 792 791
f 791 792 790
f 791 790 789
f 789 790 788
f 792 793 778
f 778 793 779
f 778 779 688
f 688 779 689
f 688 689 638
f 638 689 639
f 638 639 636
f 636 639 637
f 664 680 665
f 665 680 681
f 664 665 662
f 662 665 663
f 662 663 644
f 644 663 645
f 644 645 624
f 624 645 625
f 624 625 460
f 460 625 461
f 460 461 448
f 448 461 449
f 446 448 447
f 447 448 449
f 879 881 878
f 878 881 880
f 850 880 851
f 851 880 881
f 843 863 842
f 842 863 862
f 840 860 841
f 841 860 861
f 728 729 742
f 742 729 743
f 742 743 756
f 756 743 757
f 756 757 768
f 768 757 769
f 768 769 758
f 758 769 759
f 758 759 744
f 744 759 745
f 744 745 735
f 735 745 736
f 735 736 719
f 719 736 720
f 719 720 702
f 702 720 703
f 702 703 697
f 697 703 698
f 697 698 700
f 700 698 701
f 700 701 715
f 715 701 716
f 715 716 728
f 728 716 729
f 546 547 573
f 573 547 574
f 573 574 604
f 604 574 605
f 604 605 615
f 615 605 616
f 615 616 606
f 606 616 607
f 606 607 577
f 577 607 578
f 577 578 553
f 553 578 554
f 553 554 517
f 517 554 518
f 517 518 495
f 495 518 496
f 495 496 470
f 470 496 471
f 470 471 491
f 491 471 492
f 491 492 513
f 513 492 514
f 513 514 546
f 546 514 547
f 818 817 785
f 785 817 784
f 785 784 695
f 695 784 694
f 695 694 631
f 631 694 630
f 631 630 467
f 467 630 466
f 467 466 425
f 425 466 424
f 907 906 905
f 905 906 904
f 905 904 903
f 903 904 902
f 789 788 777
f 777 788 776
f 777 776 687
f 687 776 686
f 687 686 637
f 637 686 636
f 446 447 458
f 458 447 459
f 458 459 622
f 622 459 623
f 622 623 666
f 666 623 667
f 666 667 668
f 668 667 669
f 668 669 680
f 680 669 681
f 872 854 873
f 873 854 855
f 824 825 822
f 822 825 823
f 822 823 820
f 820 823 821
f 532 533 566
f 566 533 567
f 566 567 600
f 600 567 601
f 600 601 608
f 608 601 609
f 608 609 602
f 602 609 603
f 602 603 569
f 569 603 570
f 569 570 538
f 538 570 539
f 538 539 509
f 509 539 510
f 509 510 487
f 487 510 488
f 487 488 468
f 468 488 469
f 468 469 484
f 484 469 485
f 484 485 506
f 506 485 507
f 506 507 532
f 532 507 533
f 644 626 628
f 626 644 624
f 688 690 780
f 735 719 694
f 735 694 744
f 744 694 784
f 744 784 758
f 700 690 697
f 697 690 692
f 697 692 702
f 702 692 719
f 700 715 690
f 690 715 728
f 690 728 780
f 780 728 742
f 780 742 756
f 630 553 466
f 466 553 517
f 466 517 464
f 517 495 464
f 464 495 470
f 464 470 462
f 462 470 491
f 462 491 513
f 626 546 573
f 573 604 626
f 626 604 615
f 626 615 628
f 628 615 606
f 628 606 630
f 630 606 577
f 630 577 553
f 898 896 886
f 883 874 884
f 884 874 876
f 876 878 884
f 884 878 880
f 884 880 886
f 886 870 868
f 870 886 866
f 866 886 880
f 866 880 862
f 820 810 822
f 822 810 812
f 822 812 824
f 820 826 810
f 810 826 830
f 810 830 834
f 862 880 842
f 842 880 850
f 842 850 838
f 838 850 846
f 838 846 834
f 834 846 844
f 834 844 810
f 868 864 886
f 886 864 860
f 886 860 858
f 858 860 840
f 858 840 856
f 856 840 836
f 856 836 814
f 814 836 832
f 814 832 828
f 896 894 886
f 886 894 892
f 886 892 884
f 884 892 890
f 884 890 883
f 883 890 888
f 883 888 908
f 908 888 902
f 908 902 910
f 910 902 904
f 910 904 912
f 912 904 906
f 912 906 886
f 886 906 900
f 886 900 898
f 688 638 620
f 618 636 685
f 685 636 686
f 685 686 774
f 774 686 776
f 774 776 805
f 805 776 788
f 805 788 810
f 810 788 790
f 810 790 812
f 812 790 792
f 812 792 780
f 780 792 778
f 780 778 688
f 468 484 456
f 608 602 622
f 602 569 622
f 622 569 538
f 622 538 458
f 458 538 509
f 458 509 487
f 600 608 620
f 620 608 622
f 620 622 688
f 688 622 666
f 688 666 690
f 690 666 668
f 690 668 692
f 692 668 680
f 484 506 456
f 456 506 532
f 456 532 620
f 620 532 566
f 620 566 600
f 487 468 458
f 458 468 456
f 458 456 446
f 446 456 366
f 446 366 448
f 448 366 418
f 448 418 460
f 513 546 462
f 462 546 626
f 462 626 460
f 460 626 624
f 719 692 694
f 694 692 680
f 694 680 630
f 630 680 664
f 630 664 628
f 628 664 662
f 628 662 644
f 844 848 810
f 810 848 852
f 810 852 805
f 805 852 854
f 805 854 883
f 883 854 872
f 883 872 874
f 768 758 782
f 782 758 784
f 782 784 814
f 814 784 817
f 814 817 856
f 828 824 814
f 814 824 812
f 814 812 782
f 782 812 780
f 782 780 768
f 768 780 756
f 460 418 462
f 462 418 422
f 462 422 464
f 464 422 424
f 464 424 466
f 638 636 620
f 620 636 618
f 620 618 456
f 456 618 455
f 456 455 366
f 366 455 361
f 637 639 621
f 818 815 857
f 695 693 703
f 703 720 695
f 695 720 736
f 695 736 785
f 785 736 745
f 785 745 783
f 745 759 783
f 783 759 769
f 783 769 781
f 781 769 757
f 781 757 743
f 729 716 691
f 691 716 701
f 691 701 698
f 631 554 578
f 631 578 629
f 629 578 607
f 629 607 616
f 554 631 518
f 518 631 467
f 518 467 496
f 496 467 465
f 496 465 471
f 471 465 463
f 471 463 492
f 616 605 627
f 605 574 627
f 627 574 547
f 627 547 463
f 463 547 514
f 463 514 492
f 869 871 887
f 881 879 885
f 804 853 811
f 811 853 849
f 811 849 845
f 811 835 831
f 829 833 815
f 815 833 837
f 815 837 857
f 857 837 841
f 857 841 859
f 859 841 861
f 859 861 887
f 887 861 865
f 887 865 869
f 835 811 839
f 839 811 845
f 839 845 843
f 845 847 843
f 843 847 851
f 843 851 863
f 863 851 881
f 863 881 867
f 867 881 871
f 831 827 811
f 811 827 821
f 811 821 813
f 813 821 823
f 813 823 815
f 815 823 825
f 815 825 829
f 895 897 887
f 895 887 893
f 871 881 887
f 887 881 885
f 887 885 893
f 897 899 887
f 887 899 901
f 887 901 913
f 913 901 907
f 913 907 911
f 911 907 905
f 911 905 909
f 909 905 903
f 909 903 882
f 882 903 889
f 882 889 885
f 885 889 891
f 885 891 893
f 743 729 781
f 781 729 691
f 781 691 779
f 779 691 689
f 621 639 623
f 623 639 689
f 623 689 667
f 667 689 691
f 667 691 693
f 693 691 698
f 693 698 703
f 637 619 687
f 687 619 684
f 687 684 775
f 813 793 811
f 811 793 791
f 811 791 804
f 804 791 789
f 804 789 775
f 775 789 777
f 775 777 687
f 449 461 463
f 463 461 625
f 463 625 627
f 627 625 645
f 627 645 663
f 419 367 447
f 447 367 457
f 447 457 459
f 507 457 533
f 533 457 621
f 533 621 567
f 459 510 623
f 623 510 539
f 623 539 570
f 570 603 623
f 623 603 609
f 623 609 621
f 621 609 601
f 621 601 567
f 507 485 457
f 457 485 469
f 457 469 459
f 459 469 488
f 459 488 510
f 616 627 629
f 629 627 663
f 629 663 631
f 631 663 665
f 631 665 695
f 695 665 681
f 695 681 693
f 693 681 669
f 693 669 667
f 879 877 885
f 885 877 875
f 885 875 882
f 882 875 873
f 882 873 804
f 804 873 855
f 804 855 853
f 447 449 419
f 419 449 463
f 419 463 423
f 423 463 465
f 423 465 425
f 425 465 467
f 637 621 619
f 619 621 457
f 619 457 454
f 454 457 367
f 454 367 360
f 779 793 781
f 781 793 813
f 781 813 783
f 783 813 815
f 783 815 785
f 785 815 818
f 843 842 839
f 839 842 838
f 839 838 835
f 835 838 834
f 835 834 831
f 831 834 830
f 831 830 827
f 827 830 826
f 827 826 821
f 821 826 820
f 825 824 829
f 829 824 828
f 829 828 833
f 833 828 832
f 833 832 837
f 837 832 836
f 837 836 841
f 841 836 840
f 893 892 895
f 895 892 894
f 895 894 897
f 897 894 896
f 897 896 899
f 899 896 898
f 899 898 901
f 901 898 900
f 872 873 874
f 874 873 875
f 874 875 876
f 876 875 877
f 876 877 878
f 878 877 879
f 850 851 846
f 846 851 847
f 846 847 844
f 844 847 845
f 844 845 848
f 848 845 849
f 848 849 852
f 852 849 853
f 852 853 854
f 854 853 855
f 861 860 865
f 865 860 864
f 865 864 869
f 869 864 868
f 869 868 871
f 871 868 870
f 871 870 867
f 867 870 866
f 867 866 863
f 863 866 862
f 77 76 84
f 84 76 154
f 84 154 85
f 85 154 155
f 85 155 78
f 78 155 79
f 82 83 87
f 87 83 253
f 87 253 86
f 86 253 252
f 86 252 81
f 81 252 80
f 80 76 81
f 81 76 77
f 79 83 78
f 78 83 82
f 155 253 79
f 79 253 83
f 252 154 80
f 80 154 76
f 155 157 161
f 158 156 154
f 161 169 155
f 155 169 177
f 155 177 185
f 155 225 253
f 253 225 233
f 253 233 241
f 240 232 252
f 192 231 239
f 157 155 160
f 160 155 154
f 160 154 168
f 241 249 253
f 253 249 251
f 253 251 252
f 252 251 248
f 252 248 240
f 193 205 185
f 185 205 209
f 185 209 155
f 155 209 217
f 155 217 225
f 168 154 176
f 176 154 156
f 176 156 159
f 232 224 252
f 252 224 216
f 252 216 208
f 159 167 176
f 176 167 175
f 176 175 184
f 184 175 183
f 239 247 192
f 192 247 252
f 192 252 200
f 200 252 208
f 200 208 203
f 203 208 205
f 203 205 201
f 201 205 193
f 247 250 252
f 252 250 246
f 252 246 238
f 191 204 183
f 183 204 207
f 183 207 184
f 184 207 215
f 184 215 192
f 192 215 223
f 192 223 231
f 190 214 198
f 198 214 206
f 198 206 202
f 202 206 204
f 202 204 199
f 199 204 191
f 182 174 154
f 154 174 166
f 154 166 158
f 190 182 214
f 214 182 154
f 214 154 222
f 222 154 252
f 222 252 230
f 230 252 238
f 86 81 84
f 84 81 77
f 82 87 78
f 78 87 85
f 87 86 85
f 85 86 84
f 89 157 92
f 92 157 160
f 92 160 96
f 96 160 168
f 96 168 100
f 100 168 176
f 100 176 106
f 106 176 184
f 106 184 110
f 110 184 192
f 110 192 114
f 114 192 200
f 114 200 117
f 117 200 203
f 117 203 115
f 115 203 201
f 115 201 111
f 111 201 193
f 111 193 107
f 107 193 185
f 107 185 101
f 101 185 177
f 101 177 97
f 97 177 169
f 97 169 93
f 93 169 161
f 93 161 89
f 89 161 157
f 89 92 103
f 89 103 93
f 107 101 103
f 103 101 97
f 103 97 93
f 117 115 103
f 103 115 111
f 103 111 107
f 106 110 103
f 103 110 114
f 103 114 117
f 92 96 103
f 103 96 100
f 103 100 106
f 118 204 120
f 120 204 206
f 120 206 124
f 124 206 214
f 124 214 128
f 128 214 222
f 128 222 134
f 134 222 230
f 134 230 138
f 138 230 238
f 138 238 142
f 142 238 246
f 142 246 146
f 146 246 250
f 146 250 143
f 143 250 247
f 143 247 139
f 139 247 239
f 139 239 135
f 135 239 231
f 135 231 129
f 129 231 223
f 129 223 125
f 125 223 215
f 125 215 121
f 121 215 207
f 121 207 118
f 118 207 204
f 118 120 132
f 118 132 121
f 135 129 132
f 132 129 125
f 132 125 121
f 146 143 132
f 132 143 139
f 132 139 135
f 134 138 132
f 132 138 142
f 132 142 146
f 120 124 132
f 132 124 128
f 132 128 134
f 119 205 122
f 122 205 208
f 122 208 126
f 126 208 216
f 126 216 130
f 130 216 224
f 130 224 136
f 136 224 232
f 136 232 140
f 140 232 240
f 140 240 144
f 144 240 248
f 144 248 147
f 147 248 251
f 147 251 145
f 145 251 249
f 145 249 141
f 141 249 241
f 141 241 137
f 137 241 233
f 137 233 131
f 131 233 225
f 131 225 127
f 127 225 217
f 127 217 123
f 123 217 209
f 123 209 119
f 119 209 205
f 147 145 133
f 147 133 144
f 130 136 133
f 133 136 140
f 133 140 144
f 119 122 133
f 133 122 126
f 133 126 130
f 131 127 133
f 133 127 123
f 133 123 119
f 145 141 133
f 133 141 137
f 133 137 131
f 88 156 90
f 90 156 158
f 90 158 94
f 94 158 166
f 94 166 98
f 98 166 174
f 98 174 104
f 104 174 182
f 104 182 108
f 108 182 190
f 108 190 112
f 112 190 198
f 112 198 116
f 116 198 202
f 116 202 113
f 113 202 199
f 113 199 109
f 109 199 191
f 109 191 105
f 105 191 183
f 105 183 99
f 99 183 175
f 99 175 95
f 95 175 167
f 95 167 91
f 91 167 159
f 91 159 88
f 88 159 156
f 116 113 102
f 116 102 112
f 98 104 102
f 102 104 108
f 102 108 112
f 88 90 102
f 102 90 94
f 102 94 98
f 99 95 102
f 102 95 91
f 102 91 88
f 113 109 102
f 102 109 105
f 102 105 99
f 284 179 291
f 291 179 187
f 291 187 295
f 295 187 195
f 295 195 300
f 300 195 202
f 300 202 294
f 294 202 194
f 294 194 290
f 290 194 186
f 290 186 283
f 283 186 178
f 283 178 276
f 276 178 170
f 276 170 272
f 272 170 162
f 272 162 268
f 268 162 156
f 268 156 273
f 273 156 163
f 273 163 277
f 277 163 171
f 277 171 284
f 284 171 179
f 334 227 341
f 341 227 235
f 341 235 345
f 345 235 243
f 345 243 350
f 350 243 250
f 350 250 344
f 344 250 242
f 344 242 340
f 340 242 234
f 340 234 333
f 333 234 226
f 333 226 326
f 326 226 218
f 326 218 322
f 322 218 210
f 322 210 318
f 318 210 204
f 318 204 323
f 323 204 211
f 323 211 327
f 327 211 219
f 327 219 334
f 334 219 227
f 337 229 343
f 343 229 237
f 343 237 347
f 347 237 245
f 347 245 351
f 351 245 251
f 351 251 346
f 346 251 244
f 346 244 342
f 342 244 236
f 342 236 336
f 336 236 228
f 336 228 328
f 328 228 220
f 328 220 324
f 324 220 212
f 324 212 319
f 319 212 205
f 319 205 325
f 325 205 213
f 325 213 329
f 329 213 221
f 329 221 337
f 337 221 229
f 287 181 293
f 293 181 189
f 293 189 297
f 297 189 197
f 297 197 301
f 301 197 203
f 301 203 296
f 296 203 196
f 296 196 292
f 292 196 188
f 292 188 286
f 286 188 180
f 286 180 278
f 278 180 172
f 278 172 274
f 274 172 164
f 274 164 269
f 269 164 157
f 269 157 275
f 275 157 165
f 275 165 279
f 279 165 173
f 279 173 287
f 287 173 181
f 737 736 753
f 753 736 752
f 753 752 767
f 767 752 766
f 767 766 773
f 773 766 772
f 773 772 763
f 763 772 762
f 763 762 749
f 749 762 748
f 749 748 733
f 733 748 732
f 733 732 717
f 717 732 716
f 717 716 707
f 707 716 706
f 707 706 699
f 699 706 698
f 699 698 711
f 711 698 710
f 711 710 721
f 721 710 720
f 721 720 737
f 737 720 736
f 555 554 579
f 579 554 578
f 579 578 599
f 599 578 598
f 599 598 617
f 617 598 616
f 617 616 595
f 595 616 594
f 595 594 575
f 575 594 574
f 575 574 551
f 551 574 550
f 551 550 515
f 515 550 514
f 515 514 493
f 493 514 492
f 493 492 479
f 479 492 478
f 479 478 497
f 497 478 496
f 497 496 519
f 519 496 518
f 519 518 555
f 555 518 554
f 537 536 571
f 571 536 570
f 571 570 591
f 591 570 590
f 591 590 613
f 613 590 612
f 613 612 587
f 587 612 586
f 587 586 565
f 565 586 564
f 565 564 531
f 531 564 530
f 531 530 505
f 505 530 504
f 505 504 483
f 483 504 482
f 483 482 475
f 475 482 474
f 475 474 489
f 489 474 488
f 489 488 511
f 511 488 510
f 511 510 537
f 537 510 536
f 32 55 35
f 35 55 57
f 35 57 38
f 38 57 59
f 38 59 40
f 40 59 61
f 40 61 39
f 39 61 60
f 39 60 36
f 36 60 58
f 36 58 33
f 33 58 56
f 33 56 31
f 31 56 54
f 31 54 28
f 28 54 52
f 28 52 26
f 26 52 50
f 26 50 27
f 27 50 51
f 27 51 30
f 30 51 53
f 30 53 32
f 32 53 55
f 735 734 751
f 751 734 750
f 751 750 765
f 765 750 764
f 765 764 771
f 771 764 770
f 771 770 761
f 761 770 760
f 761 760 747
f 747 760 746
f 747 746 731
f 731 746 730
f 731 730 715
f 715 730 714
f 715 714 705
f 705 714 704
f 705 704 697
f 697 704 696
f 697 696 709
f 709 696 708
f 709 708 719
f 719 708 718
f 719 718 735
f 735 718 734
f 553 552 577
f 577 552 576
f 577 576 597
f 597 576 596
f 597 596 615
f 615 596 614
f 615 614 593
f 593 614 592
f 593 592 573
f 573 592 572
f 573 572 549
f 549 572 548
f 549 548 513
f 513 548 512
f 513 512 491
f 491 512 490
f 491 490 477
f 477 490 476
f 477 476 495
f 495 476 494
f 495 494 517
f 517 494 516
f 517 516 553
f 553 516 552
f 535 534 569
f 569 534 568
f 569 568 589
f 589 568 588
f 589 588 611
f 611 588 610
f 611 610 585
f 585 610 584
f 585 584 563
f 563 584 562
f 563 562 529
f 529 562 528
f 529 528 503
f 503 528 502
f 503 502 481
f 481 502 480
f 481 480 473
f 473 480 472
f 473 472 487
f 487 472 486
f 487 486 509
f 509 486 508
f 509 508 535
f 535 508 534
f 75 257 67
f 67 257 151
f 150 256 66
f 66 256 74
f 181 173 151
f 151 173 165
f 151 165 157
f 256 226 234
f 164 179 157
f 157 179 171
f 157 171 151
f 151 171 163
f 151 163 150
f 150 163 156
f 150 156 162
f 251 245 257
f 202 195 196
f 196 195 187
f 234 242 256
f 256 242 250
f 256 250 257
f 257 250 243
f 257 243 235
f 245 237 257
f 257 237 229
f 257 229 151
f 229 221 151
f 151 221 213
f 151 213 181
f 181 213 189
f 212 220 227
f 227 220 228
f 227 228 235
f 235 228 236
f 235 236 257
f 257 236 244
f 257 244 251
f 164 172 179
f 179 172 180
f 179 180 187
f 187 180 188
f 187 188 196
f 205 203 213
f 213 203 197
f 213 197 189
f 162 170 150
f 150 170 178
f 150 178 256
f 256 178 186
f 256 186 226
f 226 186 218
f 218 186 210
f 210 186 194
f 210 194 204
f 204 194 202
f 204 202 211
f 211 202 196
f 211 196 219
f 219 196 203
f 219 203 227
f 227 203 205
f 227 205 212
f 153 259 152
f 152 259 258
f 388 384 424
f 424 384 380
f 424 380 364
f 364 380 376
f 414 410 424
f 410 406 424
f 424 406 402
f 424 402 388
f 388 402 392
f 413 417 425
f 425 417 421
f 425 421 424
f 424 421 415
f 424 415 411
f 370 381 377
f 371 375 365
f 397 401 365
f 365 401 405
f 365 405 425
f 425 405 409
f 425 409 413
f 408 411 404
f 404 411 407
f 408 412 411
f 411 412 416
f 411 416 424
f 424 416 420
f 424 420 414
f 376 372 364
f 364 372 368
f 364 368 370
f 370 377 364
f 364 377 373
f 364 373 365
f 365 373 369
f 365 369 371
f 375 379 365
f 365 379 383
f 365 383 397
f 403 396 407
f 407 396 400
f 407 400 404
f 398 386 402
f 402 386 390
f 402 390 392
f 383 387 397
f 397 387 391
f 397 391 395
f 395 391 393
f 395 393 399
f 399 393 389
f 399 389 385
f 370 374 381
f 381 374 378
f 381 378 385
f 385 378 382
f 385 382 386
f 398 394 386
f 386 394 396
f 386 396 385
f 385 396 403
f 385 403 399
f 255 254 149
f 149 254 148
f 151 150 364
f 808 809 365
f 365 809 153
f 365 153 152
f 806 807 148
f 148 807 364
f 148 364 149
f 149 364 150
f 149 150 1
f 1 150 66
f 1 66 2
f 2 66 67
f 2 67 152
f 152 67 151
f 152 151 365
f 365 151 364
f 802 738 816
f 670 654 656
f 738 672 660
f 802 816 800
f 800 816 806
f 800 806 724
f 660 672 658
f 738 660 816
f 816 660 556
f 816 556 254
f 254 556 432
f 254 432 430
f 148 254 428
f 428 254 430
f 428 430 540
f 540 430 542
f 540 542 656
f 656 542 658
f 656 658 670
f 670 658 672
f 670 724 654
f 654 724 806
f 654 806 524
f 524 806 148
f 524 148 426
f 426 148 428
f 255 425 424
f 817 816 424
f 424 816 254
f 424 254 255
f 819 818 259
f 259 818 425
f 259 425 258
f 258 425 257
f 258 257 19
f 19 257 75
f 19 75 18
f 18 75 74
f 18 74 255
f 255 74 256
f 255 256 425
f 425 256 257
f 755 727 809
f 641 581 809
f 809 581 527
f 809 527 153
f 153 527 499
f 787 797 819
f 819 797 799
f 819 799 809
f 809 799 795
f 809 795 755
f 499 443 153
f 153 443 435
f 153 435 439
f 441 453 259
f 259 453 523
f 259 523 561
f 259 723 819
f 819 723 741
f 819 741 787
f 679 559 713
f 713 559 633
f 713 633 727
f 727 633 647
f 727 647 809
f 809 647 651
f 809 651 641
f 653 643 521
f 521 643 583
f 521 583 451
f 451 583 545
f 451 545 439
f 439 545 501
f 439 501 153
f 153 501 445
f 153 445 259
f 259 445 437
f 259 437 441
f 635 675 561
f 561 675 677
f 561 677 259
f 259 677 683
f 259 683 723
f 635 649 675
f 675 649 653
f 675 653 679
f 679 653 521
f 679 521 559
f 747 731 807
f 817 771 807
f 807 771 761
f 807 761 747
f 573 473 593
f 593 473 487
f 593 487 615
f 529 364 563
f 563 364 807
f 563 807 585
f 735 751 817
f 817 751 765
f 817 765 771
f 731 589 807
f 807 589 611
f 807 611 585
f 735 817 719
f 719 817 424
f 719 424 709
f 529 503 364
f 364 503 481
f 364 481 473
f 573 549 473
f 473 549 513
f 473 513 364
f 364 513 491
f 364 491 424
f 491 477 424
f 424 477 495
f 424 495 517
f 705 509 715
f 715 509 535
f 715 535 731
f 731 535 569
f 731 569 589
f 517 553 424
f 424 553 577
f 424 577 709
f 709 577 597
f 709 597 697
f 697 597 615
f 697 615 705
f 705 615 487
f 705 487 509
f 806 816 807
f 807 816 817
f 766 752 818
f 818 752 736
f 818 736 425
f 425 736 720
f 425 720 710
f 482 504 365
f 365 504 530
f 365 530 808
f 808 530 564
f 716 732 808
f 518 496 425
f 425 496 478
f 732 748 808
f 808 748 762
f 808 762 818
f 818 762 772
f 818 772 766
f 492 536 478
f 478 536 510
f 478 510 425
f 425 510 488
f 425 488 365
f 365 488 474
f 365 474 482
f 492 514 536
f 536 514 550
f 536 550 570
f 570 550 574
f 570 574 710
f 710 574 594
f 710 594 616
f 616 598 710
f 710 598 578
f 710 578 425
f 425 578 554
f 425 554 518
f 710 698 570
f 570 698 706
f 570 706 590
f 590 706 716
f 590 716 612
f 612 716 808
f 612 808 586
f 586 808 564
f 818 819 808
f 808 819 809
f 19 2 258
f 258 2 152
f 8 6 2
f 2 6 4
f 2 4 1
f 1 4 3
f 1 3 5
f 5 7 1
f 1 7 9
f 1 9 18
f 18 9 11
f 18 11 13
f 13 15 18
f 18 15 17
f 18 17 19
f 19 17 16
f 16 14 19
f 19 14 12
f 19 12 2
f 2 12 10
f 2 10 8
f 1 18 149
f 149 18 255
f 75 73 74
f 74 73 71
f 74 71 66
f 71 69 66
f 66 69 68
f 66 68 67
f 67 68 70
f 67 70 75
f 75 70 72
f 75 72 73
f 35 37 32
f 32 37 29
f 32 29 30
f 30 29 24
f 30 24 27
f 27 24 22
f 27 22 26
f 36 43 39
f 39 43 45
f 39 45 40
f 40 45 46
f 40 46 38
f 38 46 44
f 38 44 35
f 35 44 42
f 35 42 37
f 22 20 26
f 26 20 21
f 26 21 28
f 28 21 23
f 28 23 31
f 31 23 25
f 31 25 33
f 33 25 34
f 33 34 36
f 36 34 41
f 36 41 43
f 34 10 41
f 41 10 12
f 41 12 43
f 43 12 14
f 43 14 45
f 45 14 16
f 45 16 46
f 46 16 17
f 46 17 44
f 44 17 15
f 44 15 42
f 42 15 13
f 42 13 37
f 37 13 11
f 37 11 29
f 29 11 9
f 29 9 24
f 24 9 7
f 24 7 22
f 22 7 5
f 22 5 20
f 20 5 3
f 20 3 21
f 21 3 4
f 21 4 23
f 23 4 6
f 23 6 25
f 25 6 8
f 25 8 34
f 34 8 10
f 541 429 540
f 540 429 428
f 429 427 428
f 428 427 426
f 427 525 426
f 426 525 524
f 525 655 524
f 524 655 654
f 655 657 654
f 654 657 656
f 657 541 656
f 656 541 540
f 525 528 655
f 655 528 562
f 562 584 655
f 655 584 610
f 655 610 657
f 427 429 486
f 610 588 657
f 657 588 568
f 657 568 541
f 541 568 534
f 541 534 429
f 429 534 508
f 429 508 486
f 486 472 427
f 427 472 480
f 427 480 525
f 525 480 502
f 525 502 528
f 543 659 542
f 542 659 658
f 659 661 658
f 658 661 660
f 661 557 660
f 660 557 556
f 557 433 556
f 556 433 432
f 433 431 432
f 432 431 430
f 431 543 430
f 430 543 542
f 431 433 494
f 659 543 548
f 548 572 659
f 659 572 592
f 659 592 661
f 661 592 614
f 614 596 661
f 661 596 576
f 661 576 557
f 557 576 552
f 557 552 433
f 433 552 516
f 433 516 494
f 494 476 431
f 431 476 490
f 431 490 543
f 543 490 512
f 543 512 548
f 725 801 724
f 724 801 800
f 801 803 800
f 800 803 802
f 803 739 802
f 802 739 738
f 739 673 738
f 738 673 672
f 673 671 672
f 672 671 670
f 671 725 670
f 670 725 724
f 739 718 673
f 673 718 708
f 673 708 671
f 671 708 696
f 801 760 803
f 803 760 770
f 770 764 803
f 803 764 750
f 803 750 739
f 739 750 734
f 739 734 718
f 696 704 671
f 671 704 714
f 671 714 725
f 725 714 730
f 725 730 801
f 801 730 746
f 801 746 760
f 65 62 73
f 73 62 71
f 62 48 71
f 71 48 69
f 48 47 69
f 69 47 68
f 47 49 68
f 68 49 70
f 49 63 70
f 70 63 72
f 63 64 72
f 72 64 73
f 49 47 50
f 48 53 47
f 47 53 51
f 47 51 50
f 50 52 49
f 49 52 54
f 49 54 63
f 54 56 63
f 63 56 58
f 63 58 64
f 64 58 60
f 60 61 64
f 64 61 59
f 64 59 62
f 62 59 57
f 62 57 48
f 48 57 55
f 48 55 53
f 632 558 537
f 537 558 520
f 537 520 511
f 511 520 450
f 511 450 489
f 489 450 438
f 489 438 475
f 475 438 434
f 475 434 483
f 483 434 442
f 483 442 505
f 505 442 498
f 505 498 531
f 531 498 526
f 531 526 565
f 565 526 580
f 565 580 587
f 587 580 640
f 587 640 613
f 613 640 650
f 613 650 591
f 591 650 646
f 591 646 571
f 571 646 632
f 571 632 537
f 526 527 580
f 580 527 581
f 580 581 640
f 640 581 641
f 640 641 650
f 650 641 651
f 650 651 646
f 646 651 647
f 646 647 632
f 632 647 633
f 632 633 558
f 558 633 559
f 558 559 520
f 520 559 521
f 520 521 450
f 450 521 451
f 450 451 438
f 438 451 439
f 438 439 434
f 434 439 435
f 434 435 442
f 442 435 443
f 442 443 498
f 498 443 499
f 498 499 526
f 526 499 527
f 634 560 555
f 555 560 522
f 555 522 519
f 519 522 452
f 519 452 497
f 497 452 440
f 497 440 479
f 479 440 436
f 479 436 493
f 493 436 444
f 493 444 515
f 515 444 500
f 515 500 551
f 551 500 544
f 551 544 575
f 575 544 582
f 575 582 595
f 595 582 642
f 595 642 617
f 617 642 652
f 617 652 599
f 599 652 648
f 599 648 579
f 579 648 634
f 579 634 555
f 544 545 582
f 582 545 583
f 582 583 642
f 642 583 643
f 642 643 652
f 652 643 653
f 652 653 648
f 648 653 649
f 648 649 634
f 634 649 635
f 634 635 560
f 560 635 561
f 560 561 522
f 522 561 523
f 522 523 452
f 452 523 453
f 452 453 440
f 440 453 441
f 440 441 436
f 436 441 437
f 436 437 444
f 444 437 445
f 444 445 500
f 500 445 501
f 500 501 544
f 544 501 545
f 786 740 737
f 737 740 722
f 737 722 721
f 721 722 682
f 721 682 711
f 711 682 676
f 711 676 699
f 699 676 674
f 699 674 707
f 707 674 678
f 707 678 717
f 717 678 712
f 717 712 733
f 733 712 726
f 733 726 749
f 749 726 754
f 749 754 763
f 763 754 794
f 763 794 773
f 773 794 798
f 773 798 767
f 767 798 796
f 767 796 753
f 753 796 786
f 753 786 737
f 726 727 754
f 754 727 755
f 754 755 794
f 794 755 795
f 794 795 798
f 798 795 799
f 798 799 796
f 796 799 797
f 796 797 786
f 786 797 787
f 786 787 740
f 740 787 741
f 740 741 722
f 722 741 723
f 722 723 682
f 682 723 683
f 682 683 676
f 676 683 677
f 676 677 674
f 674 677 675
f 674 675 678
f 678 675 679
f 678 679 712
f 712 679 713
f 712 713 726
f 726 713 727
f 285 381 299
f 299 381 385
f 299 385 305
f 305 385 389
f 305 389 309
f 309 389 393
f 309 393 307
f 307 393 391
f 307 391 303
f 303 391 387
f 303 387 289
f 289 387 383
f 289 383 281
f 281 383 379
f 281 379 267
f 267 379 375
f 267 375 263
f 263 375 371
f 263 371 261
f 261 371 369
f 261 369 265
f 265 369 373
f 265 373 271
f 271 373 377
f 271 377 285
f 285 377 381
f 303 289 287
f 287 289 281
f 287 281 279
f 279 281 267
f 279 267 275
f 275 267 263
f 275 263 269
f 269 263 261
f 269 261 274
f 274 261 265
f 274 265 278
f 278 265 271
f 278 271 286
f 286 271 285
f 286 285 292
f 292 285 299
f 292 299 296
f 296 299 305
f 296 305 301
f 301 305 309
f 301 309 297
f 297 309 307
f 297 307 293
f 293 307 303
f 293 303 287
f 335 407 349
f 349 407 411
f 349 411 355
f 355 411 415
f 355 415 359
f 359 415 421
f 359 421 357
f 357 421 417
f 357 417 353
f 353 417 413
f 353 413 339
f 339 413 409
f 339 409 331
f 331 409 405
f 331 405 317
f 317 405 401
f 317 401 313
f 313 401 397
f 313 397 311
f 311 397 395
f 311 395 315
f 315 395 399
f 315 399 321
f 321 399 403
f 321 403 335
f 335 403 407
f 353 339 337
f 337 339 331
f 337 331 329
f 329 331 317
f 329 317 325
f 325 317 313
f 325 313 319
f 319 313 311
f 319 311 324
f 324 311 315
f 324 315 328
f 328 315 321
f 328 321 336
f 336 321 335
f 336 335 342
f 342 335 349
f 342 349 346
f 346 349 355
f 346 355 351
f 351 355 359
f 351 359 347
f 347 359 357
f 347 357 343
f 343 357 353
f 343 353 337
f 332 406 348
f 348 406 410
f 348 410 354
f 354 410 414
f 354 414 358
f 358 414 420
f 358 420 356
f 356 420 416
f 356 416 352
f 352 416 412
f 352 412 338
f 338 412 408
f 338 408 330
f 330 408 404
f 330 404 316
f 316 404 400
f 316 400 312
f 312 400 396
f 312 396 310
f 310 396 394
f 310 394 314
f 314 394 398
f 314 398 320
f 320 398 402
f 320 402 332
f 332 402 406
f 352 338 334
f 334 338 330
f 334 330 327
f 327 330 316
f 327 316 323
f 323 316 312
f 323 312 318
f 318 312 310
f 318 310 322
f 322 310 314
f 322 314 326
f 326 314 320
f 326 320 333
f 333 320 332
f 333 332 340
f 340 332 348
f 340 348 344
f 344 348 354
f 344 354 350
f 350 354 358
f 350 358 345
f 345 358 356
f 345 356 341
f 341 356 352
f 341 352 334
f 282 380 298
f 298 380 384
f 298 384 304
f 304 384 388
f 304 388 308
f 308 388 392
f 308 392 306
f 306 392 390
f 306 390 302
f 302 390 386
f 302 386 288
f 288 386 382
f 288 382 280
f 280 382 378
f 280 378 266
f 266 378 374
f 266 374 262
f 262 374 370
f 262 370 260
f 260 370 368
f 260 368 264
f 264 368 372
f 264 372 270
f 270 372 376
f 270 376 282
f 282 376 380
f 302 288 284
f 284 288 280
f 284 280 277
f 277 280 266
f 277 266 273
f 273 266 262
f 273 262 268
f 268 262 260
f 268 260 272
f 272 260 264
f 272 264 276
f 276 264 270
f 276 270 283
f 283 270 282
f 283 282 290
f 290 282 298
f 290 298 294
f 294 298 304
f 294 304 300
f 300 304 308
f 300 308 295
f 295 308 306
f 295 306 291
f 291 306 302
f 291 302 284

