# https://github.com/mikedh/trimesh
v -0.0389683694 -0.0015703717 0.0079500005
v -0.0389683694 -0.0015703717 0.0120000001
v -0.0387156457 0.0047009303 0.0079500005
v -0.0387156457 0.0047009303 0.0120000001
v -0.0382118337 -0.0078010019 0.0079500005
v -0.0382118337 -0.0078010019 0.0120000001
v -0.0374602079 0.0108504808 0.0079500005
v -0.0374602079 0.0108504808 0.0120000001
v -0.0364656337 -0.0138295908 0.0079500005
v -0.0364656337 -0.0138295908 0.0120000001
v -0.0352345668 0.0167190097 0.0079500005
v -0.0352345668 0.0167190097 0.0120000001
v -0.0346250013 -0.0424229577 0.0199999996
v -0.0346250013 -0.0421355665 0.0189098306
v -0.0346250013 -0.0407151692 0.0161221474
v -0.0346250013 -0.0385028534 0.0139098298
v -0.0346250013 -0.0357151702 0.0124894343
v -0.0346250013 -0.0326250009 0.0119999992
v -0.0346250013 -0.0246249996 0.0199999996
v -0.0346250013 -0.0229081716 0.0119999992
v -0.0346250013 -0.0189081710 0.0199999996
v -0.0346250013 -0.0058456715 0.0119999992
v -0.0346250013 -0.0058456715 0.0199999996
v -0.0346250013 -0.0012500000 0.0199999996
v -0.0346250013 0.0012500000 0.0199999996
v -0.0346250013 0.0058456715 0.0119999992
v -0.0346250013 0.0058456715 0.0199999996
v -0.0346250013 0.0246249996 0.0199999996
v -0.0346250013 0.0326250009 0.0119999992
v -0.0346250013 0.0357151702 0.0124894343
v -0.0346250013 0.0385028534 0.0139098298
v -0.0346250013 0.0407151692 0.0161221474
v -0.0346250013 0.0421355665 0.0189098306
v -0.0346250013 0.0424229577 0.0199999996
v -0.0344148986 -0.0277151708 0.0204894356
v -0.0344148986 0.0277151708 0.0204894356
v -0.0338051617 -0.0305028521 0.0219098292
v -0.0338051617 0.0305028521 0.0219098292
v -0.0337749906 -0.0195000004 0.0079500005
v -0.0337749906 -0.0195000004 0.0120000001
v -0.0337664522 -0.0426249988 0.0219999999
v -0.0337664522 0.0426249988 0.0219999999
v -0.0328554735 -0.0327151716 0.0241221469
v -0.0328554735 0.0327151716 0.0241221469
v -0.0320963711 0.0221545249 0.0079500005
v -0.0320963711 0.0221545249 0.0120000001
v -0.0316737443 -0.0426249988 0.0268750004
v -0.0316737443 0.0426249988 0.0268750004
v -0.0316587947 -0.0341355652 0.0269098300
v -0.0316587947 0.0341355652 0.0269098300
v -0.0303322654 -0.0346250013 0.0299999993
v -0.0303322654 0.0346250013 0.0299999993
v -0.0302095935 -0.0246653687 0.0079500005
v -0.0302095935 -0.0246653687 0.0120000001
v -0.0299566519 -0.0346250013 0.0308749992
v -0.0299566519 0.0346250013 0.0308749992
v -0.0281268954 0.0270162504 0.0079500005
v -0.0281268954 0.0270162504 0.0120000001
v -0.0274688527 0.0013085026 0.0074499999
v -0.0274688527 0.0013085026 0.0079500005
v -0.0272200890 -0.0039136582 0.0074499999
v -0.0272200890 -0.0039136582 0.0079500005
v -0.0270000007 -0.0063456716 0.0120000001
v -0.0270000007 -0.0020000001 0.0120000001
v -0.0270000007 -0.0000000000 0.0074499999
v -0.0270000007 -0.0000000000 0.0079500005
v -0.0270000007 0.0020000001 0.0120000001
v -0.0270000007 0.0063456716 0.0120000001
v -0.0270000007 0.0260956716 0.0120000001
v -0.0267248172 0.0064833709 0.0074499999
v -0.0267248172 0.0064833709 0.0079500005
v -0.0264812019 -0.0052674385 0.0074499999
v -0.0264812019 -0.0052674385 0.0079500005
v -0.0264812019 0.0052674385 0.0074499999
v -0.0264812019 0.0052674385 0.0079500005
v -0.0259875227 -0.0089943688 0.0074499999
v -0.0259875227 -0.0089943688 0.0079500005
v -0.0258617830 -0.0291919187 0.0079500005
v -0.0258617830 -0.0291919187 0.0120000001
v -0.0250148792 0.0114239128 0.0074499999
v -0.0250148792 0.0114239128 0.0079500005
v -0.0249447469 -0.0103324531 0.0074499999
v -0.0249447469 -0.0103324531 0.0079500005
v -0.0249447469 0.0103324531 0.0074499999
v -0.0249447469 0.0103324531 0.0079500005
v -0.0248125009 -0.0326250009 0.0119999992
v -0.0248125009 -0.0246249996 0.0199999996
v -0.0248125009 -0.0229081716 0.0119999992
v -0.0248125009 -0.0189081710 0.0199999996
v -0.0248125009 -0.0058456715 0.0119999992
v -0.0248125009 -0.0058456715 0.0199999996
v -0.0248125009 -0.0012500000 0.0199999996
v -0.0248125009 0.0012500000 0.0199999996
v -0.0248125009 0.0058456715 0.0119999992
v -0.0248125009 0.0058456715 0.0199999996
v -0.0248125009 0.0246249996 0.0199999996
v -0.0248125009 0.0326250009 0.0119999992
v -0.0238156989 -0.0137499999 0.0074499999
v -0.0238156989 -0.0137499999 0.0079500005
v -0.0234289486 0.0311782677 0.0079500005
v -0.0234289486 0.0311782677 0.0120000001
v -0.0224999990 -0.0346250013 0.0299999993
v -0.0224999990 -0.0346250013 0.0465000011
v -0.0224999990 -0.0342842601 0.0274118092
v -0.0224999990 -0.0332852565 0.0250000004
v -0.0224999990 -0.0316960700 0.0229289327
v -0.0224999990 -0.0296250004 0.0213397462
v -0.0224999990 -0.0272131898 0.0203407425
v -0.0224999990 -0.0246249996 0.0199999996
v -0.0224999990 0.0246249996 0.0199999996
v -0.0224999990 0.0272131916 0.0203407425
v -0.0224999990 0.0296250004 0.0213397462
v -0.0224999990 0.0316960663 0.0229289327
v -0.0224999990 0.0332852527 0.0250000004
v -0.0224999990 0.0342842564 0.0274118092
v -0.0224999990 0.0346249975 0.0299999993
v -0.0224999990 0.0346249975 0.0465000011
v -0.0224854369 -0.0426249988 0.0482793301
v -0.0224854369 -0.0346250013 0.0482793301
v -0.0224854369 0.0346250013 0.0482793301
v -0.0224854369 0.0426249988 0.0482793301
v -0.0224496797 -0.0150003964 0.0074499999
v -0.0224496797 -0.0150003964 0.0079500005
v -0.0224496797 0.0150003964 0.0074499999
v -0.0224496797 0.0150003964 0.0079500005
v -0.0224008393 0.0159515645 0.0074499999
v -0.0224008393 0.0159515645 0.0079500005
v -0.0208441671 -0.0329624116 0.0079500005
v -0.0208441671 -0.0329624116 0.0120000001
v -0.0207831133 -0.0180086698 0.0074499999
v -0.0207831133 -0.0180086698 0.0079500005
v -0.0197499990 -0.0346250013 0.0332500003
v -0.0197499990 -0.0246249996 0.0332500003
v -0.0197499990 0.0246249996 0.0332500003
v -0.0197499990 0.0346249975 0.0332500003
v -0.0194485579 -0.0346250013 0.0321249999
v -0.0194485579 -0.0346250013 0.0343750007
v -0.0194485579 -0.0246249996 0.0321249999
v -0.0194485579 -0.0246249996 0.0343750007
v -0.0194485579 0.0246249996 0.0321249999
v -0.0194485579 0.0246249996 0.0343750007
v -0.0194485579 0.0346249975 0.0321249999
v -0.0194485579 0.0346249975 0.0343750007
v -0.0190918837 -0.0190918837 0.0074499999
v -0.0190918837 -0.0190918837 0.0079500005
v -0.0190918837 0.0190918837 0.0074499999
v -0.0190918837 0.0190918837 0.0079500005
v -0.0189999994 -0.0426249988 0.0332500003
v -0.0189999994 -0.0346250013 0.0332500003
v -0.0189999994 0.0346250013 0.0332500003
v -0.0189999994 0.0426249988 0.0332500003
v -0.0189771727 0.0199026857 0.0074499999
v -0.0189771727 0.0199026857 0.0079500005
v -0.0187990386 -0.0426249988 0.0324999988
v -0.0187990386 -0.0426249988 0.0340000018
v -0.0187990386 -0.0346250013 0.0324999988
v -0.0187990386 -0.0346250013 0.0340000018
v -0.0187990386 0.0346250013 0.0324999988
v -0.0187990386 0.0346250013 0.0340000018
v -0.0187990386 0.0426249988 0.0324999988
v -0.0187990386 0.0426249988 0.0340000018
v -0.0186250005 -0.0346250013 0.0313014425
v -0.0186250005 -0.0346250013 0.0351985581
v -0.0186250005 -0.0246249996 0.0313014425
v -0.0186250005 -0.0246249996 0.0351985581
v -0.0186250005 0.0246249996 0.0313014425
v -0.0186250005 0.0246249996 0.0351985581
v -0.0186250005 0.0346249975 0.0313014425
v -0.0186250005 0.0346249975 0.0351985581
v -0.0182499997 -0.0426249988 0.0319509618
v -0.0182499997 -0.0426249988 0.0345490389
v -0.0182499997 -0.0346250013 0.0319509618
v -0.0182499997 -0.0346250013 0.0345490389
v -0.0182499997 0.0346250013 0.0319509618
v -0.0182499997 0.0346250013 0.0345490389
v -0.0182499997 0.0426249988 0.0319509618
v -0.0182499997 0.0426249988 0.0345490389
v -0.0181242041 0.0345327854 0.0079500005
v -0.0181242041 0.0345327854 0.0120000001
v -0.0175000001 -0.0426249988 0.0317500010
v -0.0175000001 -0.0426249988 0.0347499996
v -0.0175000001 -0.0346250013 0.0309999995
v -0.0175000001 -0.0346250013 0.0317500010
v -0.0175000001 -0.0346250013 0.0347499996
v -0.0175000001 -0.0346250013 0.0355000012
v -0.0175000001 -0.0246249996 0.0309999995
v -0.0175000001 -0.0246249996 0.0332500003
v -0.0175000001 -0.0246249996 0.0355000012
v -0.0175000001 0.0246249996 0.0309999995
v -0.0175000001 0.0246249996 0.0332500003
v -0.0175000001 0.0246249996 0.0355000012
v -0.0175000001 0.0346249975 0.0309999995
v -0.0175000001 0.0346249975 0.0355000012
v -0.0175000001 0.0346250013 0.0317500010
v -0.0175000001 0.0346250013 0.0347499996
v -0.0175000001 0.0426249988 0.0317500010
v -0.0175000001 0.0426249988 0.0347499996
v -0.0173997451 -0.0021127115 0.0019499999
v -0.0173997451 -0.0021127115 0.0079500005
v -0.0173997451 0.0021127115 0.0019499999
v -0.0173997451 0.0021127115 0.0079500005
v -0.0173724052 -0.0021093918 0.0000000000
v -0.0173724052 -0.0021093918 0.0019499999
v -0.0173724052 0.0021093918 0.0000000000
v -0.0173724052 0.0021093918 0.0019499999
v -0.0169993713 -0.0216164608 0.0074499999
v -0.0169993713 -0.0216164608 0.0079500005
v -0.0167500004 -0.0426249988 0.0319509618
v -0.0167500004 -0.0426249988 0.0345490389
v -0.0167500004 -0.0346250013 0.0319509618
v -0.0167500004 -0.0346250013 0.0345490389
v -0.0167500004 0.0346250013 0.0319509618
v -0.0167500004 0.0346250013 0.0345490389
v -0.0167500004 0.0426249988 0.0319509618
v -0.0167500004 0.0426249988 0.0345490389
v -0.0163885355 -0.0062153516 0.0019499999
v -0.0163885355 -0.0062153516 0.0079500005
v -0.0163885355 0.0062153516 0.0019499999
v -0.0163885355 0.0062153516 0.0079500005
v -0.0163749997 -0.0346250013 0.0313014425
v -0.0163749997 -0.0346250013 0.0351985581
v -0.0163749997 -0.0246249996 0.0313014425
v -0.0163749997 -0.0246249996 0.0351985581
v -0.0163749997 0.0246249996 0.0313014425
v -0.0163749997 0.0246249996 0.0351985581
v -0.0163749997 0.0346249975 0.0313014425
v -0.0163749997 0.0346249975 0.0351985581
v -0.0163627844 -0.0062055853 0.0000000000
v -0.0163627844 -0.0062055853 0.0019499999
v -0.0163627844 0.0062055853 0.0000000000
v -0.0163627844 0.0062055853 0.0019499999
v -0.0162499994 -0.0058456715 0.0000000000
v -0.0162499994 0.0058456715 0.0000000000
v -0.0162009615 -0.0426249988 0.0324999988
v -0.0162009615 -0.0426249988 0.0340000018
v -0.0162009615 -0.0346250013 0.0324999988
v -0.0162009615 -0.0346250013 0.0340000018
v -0.0162009615 0.0346250013 0.0324999988
v -0.0162009615 0.0346250013 0.0340000018
v -0.0162009615 0.0426249988 0.0324999988
v -0.0162009615 0.0426249988 0.0340000018
v -0.0160000008 -0.0426249988 0.0332500003
v -0.0160000008 -0.0346250013 0.0332500003
v -0.0160000008 0.0346250013 0.0332500003
v -0.0160000008 0.0426249988 0.0332500003
v -0.0155514432 -0.0346250013 0.0321249999
v -0.0155514432 -0.0346250013 0.0343750007
v -0.0155514432 -0.0246249996 0.0321249999
v -0.0155514432 -0.0246249996 0.0343750007
v -0.0155514432 0.0246249996 0.0321249999
v -0.0155514432 0.0246249996 0.0343750007
v -0.0155514432 0.0346249975 0.0321249999
v -0.0155514432 0.0346249975 0.0343750007
v -0.0152866980 -0.0358791985 0.0079500005
v -0.0152866980 -0.0358791985 0.0120000001
v -0.0152500002 -0.0346250013 0.0332500003
v -0.0152500002 -0.0246249996 0.0332500003
v -0.0152500002 0.0246249996 0.0332500003
v -0.0152500002 0.0346249975 0.0332500003
v -0.0150003964 -0.0224496797 0.0074499999
v -0.0150003964 -0.0224496797 0.0079500005
v -0.0150003964 0.0224496797 0.0074499999
v -0.0150003964 0.0224496797 0.0079500005
v -0.0149999997 -0.0000000000 0.0119999992
v -0.0149999997 -0.0000000000 0.0199999996
v -0.0149999997 -0.0000000000 0.0000000000
v -0.0149999997 -0.0000000000 0.0120000001
v -0.0148676224 0.0231344718 0.0074499999
v -0.0148676224 0.0231344718 0.0079500005
v -0.0147990379 -0.0007500000 0.0000000000
v -0.0147990379 -0.0007500000 0.0119999992
v -0.0147990379 -0.0007500000 0.0120000001
v -0.0147990379 -0.0007500000 0.0199999996
v -0.0147990379 0.0007500000 0.0000000000
v -0.0147990379 0.0007500000 0.0119999992
v -0.0147990379 0.0007500000 0.0120000001
v -0.0147990379 0.0007500000 0.0199999996
v -0.0144248838 -0.0099567780 0.0019499999
v -0.0144248838 -0.0099567780 0.0079500005
v -0.0144248838 0.0099567780 0.0019499999
v -0.0144248838 0.0099567780 0.0079500005
v -0.0144022172 -0.0099411327 0.0000000000
v -0.0144022172 -0.0099411327 0.0019499999
v -0.0144022172 0.0099411327 0.0000000000
v -0.0144022172 0.0099411327 0.0019499999
v -0.0142500000 -0.0012990381 0.0000000000
v -0.0142500000 -0.0012990381 0.0119999992
v -0.0142500000 -0.0012990381 0.0120000001
v -0.0142500000 -0.0012990381 0.0199999996
v -0.0142500000 0.0012990381 0.0000000000
v -0.0142500000 0.0012990381 0.0119999992
v -0.0142500000 0.0012990381 0.0120000001
v -0.0142500000 0.0012990381 0.0199999996
v -0.0135243535 -0.0426249988 0.0691543296
v -0.0135243535 -0.0346250013 0.0691543296
v -0.0135243535 0.0346250013 0.0691543296
v -0.0135243535 0.0426249988 0.0691543296
v -0.0135000004 -0.0015000000 0.0000000000
v -0.0135000004 -0.0015000000 0.0119999992
v -0.0135000004 -0.0015000000 0.0120000001
v -0.0135000004 -0.0015000000 0.0199999996
v -0.0135000004 0.0015000000 0.0000000000
v -0.0135000004 0.0015000000 0.0119999992
v -0.0135000004 0.0015000000 0.0120000001
v -0.0135000004 0.0015000000 0.0199999996
v -0.0127499998 -0.0012990381 0.0000000000
v -0.0127499998 -0.0012990381 0.0119999992
v -0.0127499998 -0.0012990381 0.0120000001
v -0.0127499998 -0.0012990381 0.0199999996
v -0.0127499998 0.0012990381 0.0000000000
v -0.0127499998 0.0012990381 0.0119999992
v -0.0127499998 0.0012990381 0.0120000001
v -0.0127499998 0.0012990381 0.0199999996
v -0.0126012294 -0.0244429745 0.0074499999
v -0.0126012294 -0.0244429745 0.0079500005
v -0.0125000002 -0.0346250013 0.0299999993
v -0.0125000002 -0.0346250013 0.0465000011
v -0.0125000002 -0.0342842601 0.0274118092
v -0.0125000002 -0.0332852565 0.0250000004
v -0.0125000002 -0.0316960700 0.0229289327
v -0.0125000002 -0.0296250004 0.0213397462
v -0.0125000002 -0.0272131898 0.0203407425
v -0.0125000002 -0.0246249996 0.0199999996
v -0.0125000002 0.0246249996 0.0199999996
v -0.0125000002 0.0272131916 0.0203407425
v -0.0125000002 0.0296250004 0.0213397462
v -0.0125000002 0.0316960663 0.0229289327
v -0.0125000002 0.0332852527 0.0250000004
v -0.0125000002 0.0342842564 0.0274118092
v -0.0125000002 0.0346249975 0.0299999993
v -0.0125000002 0.0346249975 0.0465000011
v -0.0123500517 0.0369929224 0.0079500005
v -0.0123500517 0.0369929224 0.0120000001
v -0.0122009618 -0.0007500000 0.0000000000
v -0.0122009618 -0.0007500000 0.0119999992
v -0.0122009618 -0.0007500000 0.0120000001
v -0.0122009618 -0.0007500000 0.0199999996
v -0.0122009618 0.0007500000 0.0000000000
v -0.0122009618 0.0007500000 0.0119999992
v -0.0122009618 0.0007500000 0.0120000001
v -0.0122009618 0.0007500000 0.0199999996
v -0.0120000001 -0.0000000000 0.0000000000
v -0.0120000001 -0.0000000000 0.0119999992
v -0.0120000001 -0.0000000000 0.0120000001
v -0.0120000001 -0.0000000000 0.0199999996
v -0.0116229095 -0.0131195532 0.0019499999
v -0.0116229095 -0.0131195532 0.0079500005
v -0.0116229095 0.0131195532 0.0019499999
v -0.0116229095 0.0131195532 0.0079500005
v -0.0116046462 -0.0130989384 0.0000000000
v -0.0116046462 -0.0130989384 0.0019499999
v -0.0116046462 0.0130989384 0.0000000000
v -0.0116046462 0.0130989384 0.0019499999
v -0.0103324531 -0.0249447469 0.0074499999
v -0.0103324531 -0.0249447469 0.0079500005
v -0.0103324531 0.0249447469 0.0074499999
v -0.0103324531 0.0249447469 0.0079500005
v -0.0102207176 0.0255301185 0.0074499999
v -0.0102207176 0.0255301185 0.0079500005
v -0.0101250000 -0.0326250009 0.0119999992
v -0.0101250000 -0.0246249996 0.0199999996
v -0.0101250000 -0.0229081716 0.0119999992
v -0.0101250000 -0.0189081710 0.0199999996
v -0.0101250000 -0.0063456716 0.0120000001
v -0.0101250000 -0.0058456715 0.0000000000
v -0.0101250000 -0.0058456715 0.0119999992
v -0.0101250000 -0.0058456715 0.0199999996
v -0.0101250000 -0.0020000001 0.0120000001
v -0.0101250000 -0.0012500000 0.0199999996
v -0.0101250000 0.0012500000 0.0199999996
v -0.0101250000 0.0020000001 0.0120000001
v -0.0101250000 0.0058456715 0.0000000000
v -0.0101250000 0.0058456715 0.0119999992
v -0.0101250000 0.0058456715 0.0199999996
v -0.0101250000 0.0063456716 0.0120000001
v -0.0101250000 0.0246249996 0.0199999996
v -0.0101250000 0.0260956716 0.0120000001
v -0.0101250000 0.0326250009 0.0119999992
v -0.0093333106 -0.0378667302 0.0079500005
v -0.0093333106 -0.0378667302 0.0120000001
v -0.0085055716 -0.0426249988 0.0808456764
v -0.0085055716 -0.0346250013 0.0808456764
v -0.0085055716 0.0346250013 0.0808456764
v -0.0085055716 0.0426249988 0.0808456764
v -0.0082500000 -0.0116913430 0.0000000000
v -0.0082500000 -0.0116913430 0.0119999992
v -0.0082500000 -0.0116913430 0.0120000001
v -0.0082500000 -0.0116913430 0.0199999996
v -0.0082500000 0.0116913430 0.0000000000
v -0.0082500000 0.0116913430 0.0119999992
v -0.0082500000 0.0116913430 0.0120000001
v -0.0082500000 0.0116913430 0.0199999996
v -0.0081454543 -0.0155198667 0.0019499999
v -0.0081454543 -0.0155198667 0.0079500005
v -0.0081454543 0.0155198667 0.0019499999
v -0.0081454543 0.0155198667 0.0079500005
v -0.0081326552 -0.0154954800 0.0000000000
v -0.0081326552 -0.0154954800 0.0019499999
v -0.0081326552 0.0154954800 0.0000000000
v -0.0081326552 0.0154954800 0.0019499999
v -0.0080490382 -0.0124413427 0.0000000000
v -0.0080490382 -0.0124413427 0.0119999992
v -0.0080490382 -0.0124413427 0.0120000001
v -0.0080490382 -0.0124413427 0.0199999996
v -0.0080490382 -0.0109413434 0.0000000000
v -0.0080490382 -0.0109413434 0.0119999992
v -0.0080490382 -0.0109413434 0.0120000001
v -0.0080490382 -0.0109413434 0.0199999996
v -0.0080490382 0.0109413434 0.0000000000
v -0.0080490382 0.0109413434 0.0119999992
v -0.0080490382 0.0109413434 0.0120000001
v -0.0080490382 0.0109413434 0.0199999996
v -0.0080490382 0.0124413427 0.0000000000
v -0.0080490382 0.0124413427 0.0119999992
v -0.0080490382 0.0124413427 0.0120000001
v -0.0080490382 0.0124413427 0.0199999996
v -0.0077476455 -0.0263860561 0.0074499999
v -0.0077476455 -0.0263860561 0.0079500005
v -0.0074999998 -0.0129903806 0.0000000000
v -0.0074999998 -0.0129903806 0.0119999992
v -0.0074999998 -0.0129903806 0.0120000001
v -0.0074999998 -0.0129903806 0.0199999996
v -0.0074999998 -0.0103923045 0.0000000000
v -0.0074999998 -0.0103923045 0.0119999992
v -0.0074999998 -0.0103923045 0.0120000001
v -0.0074999998 -0.0103923045 0.0199999996
v -0.0074999998 0.0103923045 0.0000000000
v -0.0074999998 0.0103923045 0.0119999992
v -0.0074999998 0.0103923045 0.0120000001
v -0.0074999998 0.0103923045 0.0199999996
v -0.0074999998 0.0129903806 0.0000000000
v -0.0074999998 0.0129903806 0.0119999992
v -0.0074999998 0.0129903806 0.0120000001
v -0.0074999998 0.0129903806 0.0199999996
v -0.0067500002 -0.0131913433 0.0000000000
v -0.0067500002 -0.0131913433 0.0119999992
v -0.0067500002 -0.0131913433 0.0120000001
v -0.0067500002 -0.0131913433 0.0199999996
v -0.0067500002 -0.0101913428 0.0000000000
v -0.0067500002 -0.0101913428 0.0119999992
v -0.0067500002 -0.0101913428 0.0120000001
v -0.0067500002 -0.0101913428 0.0199999996
v -0.0067500002 0.0101913428 0.0000000000
v -0.0067500002 0.0101913428 0.0119999992
v -0.0067500002 0.0101913428 0.0120000001
v -0.0067500002 0.0101913428 0.0199999996
v -0.0067500002 0.0131913433 0.0000000000
v -0.0067500002 0.0131913433 0.0119999992
v -0.0067500002 0.0131913433 0.0120000001
v -0.0067500002 0.0131913433 0.0199999996
v -0.0062560402 0.0384949595 0.0079500005
v -0.0062560402 0.0384949595 0.0120000001
v -0.0061889724 -0.0426249988 0.0862422362
v -0.0061889724 -0.0346250013 0.0862422362
v -0.0061889724 0.0346250013 0.0862422362
v -0.0061889724 0.0426249988 0.0862422362
v -0.0060000001 -0.0129903806 0.0000000000
v -0.0060000001 -0.0129903806 0.0119999992
v -0.0060000001 -0.0129903806 0.0120000001
v -0.0060000001 -0.0129903806 0.0199999996
v -0.0060000001 -0.0103923045 0.0000000000
v -0.0060000001 -0.0103923045 0.0119999992
v -0.0060000001 -0.0103923045 0.0120000001
v -0.0060000001 -0.0103923045 0.0199999996
v -0.0060000001 0.0103923045 0.0000000000
v -0.0060000001 0.0103923045 0.0119999992
v -0.0060000001 0.0103923045 0.0120000001
v -0.0060000001 0.0103923045 0.0199999996
v -0.0060000001 0.0129903806 0.0000000000
v -0.0060000001 0.0129903806 0.0119999992
v -0.0060000001 0.0129903806 0.0120000001
v -0.0060000001 0.0129903806 0.0199999996
v -0.0055000000 -0.0426249988 0.0219999999
v -0.0055000000 -0.0426249988 0.0268750004
v -0.0055000000 -0.0426249988 0.0482793301
v -0.0055000000 -0.0426249988 0.0691543296
v -0.0055000000 -0.0426249988 0.0808456764
v -0.0055000000 -0.0346250013 0.0299999993
v -0.0055000000 -0.0346250013 0.0308749992
v -0.0055000000 -0.0346250013 0.0482793301
v -0.0055000000 -0.0346250013 0.0691543296
v -0.0055000000 -0.0346250013 0.0808456764
v -0.0055000000 0.0346250013 0.0299999993
v -0.0055000000 0.0346250013 0.0308749992
v -0.0055000000 0.0346250013 0.0482793301
v -0.0055000000 0.0346250013 0.0691543296
v -0.0055000000 0.0346250013 0.0808456764
v -0.0055000000 0.0426249988 0.0219999999
v -0.0055000000 0.0426249988 0.0268750004
v -0.0055000000 0.0426249988 0.0482793301
v -0.0055000000 0.0426249988 0.0691543296
v -0.0055000000 0.0426249988 0.0808456764
v -0.0054509621 -0.0124413427 0.0000000000
v -0.0054509621 -0.0124413427 0.0119999992
v -0.0054509621 -0.0124413427 0.0120000001
v -0.0054509621 -0.0124413427 0.0199999996
v -0.0054509621 -0.0109413434 0.0000000000
v -0.0054509621 -0.0109413434 0.0119999992
v -0.0054509621 -0.0109413434 0.0120000001
v -0.0054509621 -0.0109413434 0.0199999996
v -0.0054509621 0.0109413434 0.0000000000
v -0.0054509621 0.0109413434 0.0119999992
v -0.0054509621 0.0109413434 0.0120000001
v -0.0054509621 0.0109413434 0.0199999996
v -0.0054509621 0.0124413427 0.0000000000
v -0.0054509621 0.0124413427 0.0119999992
v -0.0054509621 0.0124413427 0.0120000001
v -0.0054509621 0.0124413427 0.0199999996
v -0.0052674385 -0.0264812019 0.0074499999
v -0.0052674385 -0.0264812019 0.0079500005
v -0.0052674385 0.0264812019 0.0074499999
v -0.0052674385 0.0264812019 0.0079500005
v -0.0052499999 -0.0116913430 0.0000000000
v -0.0052499999 -0.0116913430 0.0119999992
v -0.0052499999 -0.0116913430 0.0120000001
v -0.0052499999 -0.0116913430 0.0199999996
v -0.0052499999 0.0116913430 0.0000000000
v -0.0052499999 0.0116913430 0.0119999992
v -0.0052499999 0.0116913430 0.0120000001
v -0.0052499999 0.0116913430 0.0199999996
v -0.0052044094 0.0270030387 0.0074499999
v -0.0052044094 0.0270030387 0.0079500005
v -0.0041946154 -0.0170182232 0.0019499999
v -0.0041946154 -0.0170182232 0.0079500005
v -0.0041946154 0.0170182232 0.0019499999
v -0.0041946154 0.0170182232 0.0079500005
v -0.0041880240 -0.0169914812 0.0000000000
v -0.0041880240 -0.0169914812 0.0019499999
v -0.0041880240 0.0169914812 0.0000000000
v -0.0041880240 0.0169914812 0.0019499999
v -0.0031984951 -0.0426249988 0.0915553570
v -0.0031984951 -0.0346250013 0.0915553570
v -0.0031984951 0.0346250013 0.0915553570
v -0.0031984951 0.0426249988 0.0915553570
v -0.0031381962 -0.0388735346 0.0079500005
v -0.0031381962 -0.0388735346 0.0120000001
v -0.0026140411 -0.0273754783 0.0074499999
v -0.0026140411 -0.0273754783 0.0079500005
v -0.0000000000 -0.0390000008 0.0120000001
v -0.0000000000 -0.0063456716 0.0120000001
v -0.0000000000 -0.0020000001 0.0120000001
v -0.0000000000 0.0020000001 0.0120000001
v -0.0000000000 0.0063456716 0.0120000001
v -0.0000000000 0.0260956716 0.0120000001
v -0.0000000000 -0.0326250009 0.0119999992
v -0.0000000000 -0.0246249996 0.0199999996
v -0.0000000000 -0.0229081716 0.0119999992
v -0.0000000000 -0.0189081710 0.0199999996
v -0.0000000000 -0.0058456715 0.0119999992
v -0.0000000000 -0.0058456715 0.0199999996
v -0.0000000000 -0.0012500000 0.0199999996
v -0.0000000000 0.0012500000 0.0199999996
v -0.0000000000 0.0058456715 0.0119999992
v -0.0000000000 0.0058456715 0.0199999996
v -0.0000000000 0.0246249996 0.0199999996
v -0.0000000000 0.0326250009 0.0119999992
v -0.0000000000 0.0390000008 0.0079500005
v -0.0000000000 0.0270000007 0.0074499999
v -0.0000000000 0.0270000007 0.0079500005
v -0.0000000000 0.0274999999 0.0074499999
v -0.0000000000 0.0175000001 0.0000000000
v -0.0000000000 0.0175275411 0.0019499999
v -0.0000000000 0.0175000001 0.0000000000
v -0.0000000000 0.0175000001 0.0019499999
v -0.0000000000 0.0175275411 0.0019499999
v -0.0000000000 0.0175275411 0.0079500005
v -0.0000000000 0.0270000007 0.0074499999
v -0.0000000000 0.0274999999 0.0074499999
v -0.0000000000 0.0274999999 0.0079500005
v -0.0000000000 0.0390000008 0.0079500005
v -0.0000000000 0.0390000008 0.0120000001
v 0.0000000000 -0.0175275411 0.0019499999
v 0.0000000000 -0.0175275411 0.0079500005
v 0.0000000000 -0.0175000001 0.0000000000
v 0.0000000000 -0.0175000001 0.0019499999
v 0.0000000000 -0.0270000007 0.0074499999
v 0.0000000000 -0.0270000007 0.0079500005
v 0.0000000000 -0.0175275411 0.0019499999
v 0.0000000000 -0.0175275411 0.0079500005
v 0.0000000000 -0.0175000001 0.0019499999
v 0.0000000000 -0.0153456712 0.0000000000
v 0.0000000000 -0.0058456715 0.0000000000
v 0.0000000000 0.0058456715 0.0000000000
v 0.0008536513 -0.0426249988 0.0961108357
v 0.0008536513 -0.0346250013 0.0961108357
v 0.0008536513 0.0346250013 0.0961108357
v 0.0008536513 0.0426249988 0.0961108357
v 0.0026140411 -0.0273754783 0.0074499999
v 0.0026140411 -0.0273754783 0.0079500005
v 0.0031381962 -0.0388735346 0.0079500005
v 0.0031381962 -0.0388735346 0.0120000001
v 0.0041880240 -0.0169914812 0.0000000000
v 0.0041880240 -0.0169914812 0.0019499999
v 0.0041880240 0.0169914812 0.0000000000
v 0.0041880240 0.0169914812 0.0019499999
v 0.0041946154 -0.0170182232 0.0019499999
v 0.0041946154 -0.0170182232 0.0079500005
v 0.0041946154 0.0170182232 0.0019499999
v 0.0041946154 0.0170182232 0.0079500005
v 0.0049999999 -0.0426249988 0.0750000030
v 0.0049999999 -0.0346250013 0.0750000030
v 0.0049999999 0.0346250013 0.0750000030
v 0.0049999999 0.0426249988 0.0750000030
v 0.0052009621 -0.0426249988 0.0742499977
v 0.0052009621 -0.0426249988 0.0757500008
v 0.0052009621 -0.0346250013 0.0742499977
v 0.0052009621 -0.0346250013 0.0757500008
v 0.0052009621 0.0346250013 0.0742499977
v 0.0052009621 0.0346250013 0.0757500008
v 0.0052009621 0.0426249988 0.0742499977
v 0.0052009621 0.0426249988 0.0757500008
v 0.0052044094 0.0270030387 0.0074499999
v 0.0052044094 0.0270030387 0.0079500005
v 0.0052499999 -0.0116913430 0.0000000000
v 0.0052499999 -0.0116913430 0.0119999992
v 0.0052499999 -0.0116913430 0.0120000001
v 0.0052499999 -0.0116913430 0.0199999996
v 0.0052499999 0.0116913430 0.0000000000
v 0.0052499999 0.0116913430 0.0119999992
v 0.0052499999 0.0116913430 0.0120000001
v 0.0052499999 0.0116913430 0.0199999996
v 0.0052674385 -0.0264812019 0.0074499999
v 0.0052674385 -0.0264812019 0.0079500005
v 0.0052674385 0.0264812019 0.0074499999
v 0.0052674385 0.0264812019 0.0079500005
v 0.0054509621 -0.0124413427 0.0000000000
v 0.0054509621 -0.0124413427 0.0119999992
v 0.0054509621 -0.0124413427 0.0120000001
v 0.0054509621 -0.0124413427 0.0199999996
v 0.0054509621 -0.0109413434 0.0000000000
v 0.0054509621 -0.0109413434 0.0119999992
v 0.0054509621 -0.0109413434 0.0120000001
v 0.0054509621 -0.0109413434 0.0199999996
v 0.0054509621 0.0109413434 0.0000000000
v 0.0054509621 0.0109413434 0.0119999992
v 0.0054509621 0.0109413434 0.0120000001
v 0.0054509621 0.0109413434 0.0199999996
v 0.0054509621 0.0124413427 0.0000000000
v 0.0054509621 0.0124413427 0.0119999992
v 0.0054509621 0.0124413427 0.0120000001
v 0.0054509621 0.0124413427 0.0199999996
v 0.0057500000 -0.0426249988 0.0737009645
v 0.0057500000 -0.0426249988 0.0762990415
v 0.0057500000 -0.0346250013 0.0737009645
v 0.0057500000 -0.0346250013 0.0762990415
v 0.0057500000 0.0346250013 0.0737009645
v 0.0057500000 0.0346250013 0.0762990415
v 0.0057500000 0.0426249988 0.0737009645
v 0.0057500000 0.0426249988 0.0762990415
v 0.0057820221 -0.0426249988 0.0997001901
v 0.0057820221 -0.0346250013 0.0997001901
v 0.0057820221 0.0346250013 0.0997001901
v 0.0057820221 0.0426249988 0.0997001901
v 0.0060000001 -0.0129903806 0.0000000000
v 0.0060000001 -0.0129903806 0.0119999992
v 0.0060000001 -0.0129903806 0.0120000001
v 0.0060000001 -0.0129903806 0.0199999996
v 0.0060000001 -0.0103923045 0.0000000000
v 0.0060000001 -0.0103923045 0.0119999992
v 0.0060000001 -0.0103923045 0.0120000001
v 0.0060000001 -0.0103923045 0.0199999996
v 0.0060000001 0.0103923045 0.0000000000
v 0.0060000001 0.0103923045 0.0119999992
v 0.0060000001 0.0103923045 0.0120000001
v 0.0060000001 0.0103923045 0.0199999996
v 0.0060000001 0.0129903806 0.0000000000
v 0.0060000001 0.0129903806 0.0119999992
v 0.0060000001 0.0129903806 0.0120000001
v 0.0060000001 0.0129903806 0.0199999996
v 0.0062560402 0.0384949595 0.0079500005
v 0.0062560402 0.0384949595 0.0120000001
v 0.0065000001 -0.0426249988 0.0734999999
v 0.0065000001 -0.0426249988 0.0764999986
v 0.0065000001 -0.0346250013 0.0734999999
v 0.0065000001 -0.0346250013 0.0764999986
v 0.0065000001 0.0346250013 0.0734999999
v 0.0065000001 0.0346250013 0.0764999986
v 0.0065000001 0.0426249988 0.0734999999
v 0.0065000001 0.0426249988 0.0764999986
v 0.0067500002 -0.0131913433 0.0000000000
v 0.0067500002 -0.0131913433 0.0119999992
v 0.0067500002 -0.0131913433 0.0120000001
v 0.0067500002 -0.0131913433 0.0199999996
v 0.0067500002 -0.0101913428 0.0000000000
v 0.0067500002 -0.0101913428 0.0119999992
v 0.0067500002 -0.0101913428 0.0120000001
v 0.0067500002 -0.0101913428 0.0199999996
v 0.0067500002 0.0101913428 0.0000000000
v 0.0067500002 0.0101913428 0.0119999992
v 0.0067500002 0.0101913428 0.0120000001
v 0.0067500002 0.0101913428 0.0199999996
v 0.0067500002 0.0131913433 0.0000000000
v 0.0067500002 0.0131913433 0.0119999992
v 0.0067500002 0.0131913433 0.0120000001
v 0.0067500002 0.0131913433 0.0199999996
v 0.0072499998 -0.0426249988 0.0737009645
v 0.0072499998 -0.0426249988 0.0762990415
v 0.0072499998 -0.0346250013 0.0737009645
v 0.0072499998 -0.0346250013 0.0762990415
v 0.0072499998 0.0346250013 0.0737009645
v 0.0072499998 0.0346250013 0.0762990415
v 0.0072499998 0.0426249988 0.0737009645
v 0.0072499998 0.0426249988 0.0762990415
v 0.0074999998 -0.0129903806 0.0000000000
v 0.0074999998 -0.0129903806 0.0119999992
v 0.0074999998 -0.0129903806 0.0120000001
v 0.0074999998 -0.0129903806 0.0199999996
v 0.0074999998 -0.0103923045 0.0000000000
v 0.0074999998 -0.0103923045 0.0119999992
v 0.0074999998 -0.0103923045 0.0120000001
v 0.0074999998 -0.0103923045 0.0199999996
v 0.0074999998 0.0103923045 0.0000000000
v 0.0074999998 0.0103923045 0.0119999992
v 0.0074999998 0.0103923045 0.0120000001
v 0.0074999998 0.0103923045 0.0199999996
v 0.0074999998 0.0129903806 0.0000000000
v 0.0074999998 0.0129903806 0.0119999992
v 0.0074999998 0.0129903806 0.0120000001
v 0.0074999998 0.0129903806 0.0199999996
v 0.0077476455 -0.0263860561 0.0074499999
v 0.0077476455 -0.0263860561 0.0079500005
v 0.0077990382 -0.0426249988 0.0742499977
v 0.0077990382 -0.0426249988 0.0757500008
v 0.0077990382 -0.0346250013 0.0742499977
v 0.0077990382 -0.0346250013 0.0757500008
v 0.0077990382 0.0346250013 0.0742499977
v 0.0077990382 0.0346250013 0.0757500008
v 0.0077990382 0.0426249988 0.0742499977
v 0.0077990382 0.0426249988 0.0757500008
v 0.0080000004 -0.0426249988 0.0750000030
v 0.0080000004 -0.0346250013 0.0750000030
v 0.0080000004 0.0346250013 0.0750000030
v 0.0080000004 0.0426249988 0.0750000030
v 0.0080490382 -0.0124413427 0.0000000000
v 0.0080490382 -0.0124413427 0.0119999992
v 0.0080490382 -0.0124413427 0.0120000001
v 0.0080490382 -0.0124413427 0.0199999996
v 0.0080490382 -0.0109413434 0.0000000000
v 0.0080490382 -0.0109413434 0.0119999992
v 0.0080490382 -0.0109413434 0.0120000001
v 0.0080490382 -0.0109413434 0.0199999996
v 0.0080490382 0.0109413434 0.0000000000
v 0.0080490382 0.0109413434 0.0119999992
v 0.0080490382 0.0109413434 0.0120000001
v 0.0080490382 0.0109413434 0.0199999996
v 0.0080490382 0.0124413427 0.0000000000
v 0.0080490382 0.0124413427 0.0119999992
v 0.0080490382 0.0124413427 0.0120000001
v 0.0080490382 0.0124413427 0.0199999996
v 0.0081326552 -0.0154954800 0.0000000000
v 0.0081326552 -0.0154954800 0.0019499999
v 0.0081326552 0.0154954800 0.0000000000
v 0.0081326552 0.0154954800 0.0019499999
v 0.0081454543 -0.0155198667 0.0019499999
v 0.0081454543 -0.0155198667 0.0079500005
v 0.0081454543 0.0155198667 0.0019499999
v 0.0081454543 0.0155198667 0.0079500005
v 0.0082500000 -0.0116913430 0.0000000000
v 0.0082500000 -0.0116913430 0.0119999992
v 0.0082500000 -0.0116913430 0.0120000001
v 0.0082500000 -0.0116913430 0.0199999996
v 0.0082500000 0.0116913430 0.0000000000
v 0.0082500000 0.0116913430 0.0119999992
v 0.0082500000 0.0116913430 0.0120000001
v 0.0082500000 0.0116913430 0.0199999996
v 0.0093333106 -0.0378667302 0.0079500005
v 0.0093333106 -0.0378667302 0.0120000001
v 0.0098750005 -0.0426249988 0.0219999999
v 0.0098750005 -0.0426249988 0.0268750004
v 0.0098750005 -0.0426249988 0.0482793301
v 0.0098750005 -0.0426249988 0.0691543296
v 0.0098750005 -0.0426249988 0.0808456764
v 0.0098750005 -0.0346250013 0.0299999993
v 0.0098750005 -0.0346250013 0.0308749992
v 0.0098750005 -0.0346250013 0.0482793301
v 0.0098750005 -0.0346250013 0.0691543296
v 0.0098750005 -0.0346250013 0.0808456764
v 0.0098750005 0.0346250013 0.0299999993
v 0.0098750005 0.0346250013 0.0308749992
v 0.0098750005 0.0346250013 0.0482793301
v 0.0098750005 0.0346250013 0.0691543296
v 0.0098750005 0.0346250013 0.0808456764
v 0.0098750005 0.0426249988 0.0219999999
v 0.0098750005 0.0426249988 0.0268750004
v 0.0098750005 0.0426249988 0.0482793301
v 0.0098750005 0.0426249988 0.0691543296
v 0.0098750005 0.0426249988 0.0808456764
v 0.0101250000 -0.0326250009 0.0119999992
v 0.0101250000 -0.0246249996 0.0199999996
v 0.0101250000 -0.0229081716 0.0119999992
v 0.0101250000 -0.0189081710 0.0199999996
v 0.0101250000 -0.0063456716 0.0120000001
v 0.0101250000 -0.0058456715 0.0000000000
v 0.0101250000 -0.0058456715 0.0119999992
v 0.0101250000 -0.0058456715 0.0199999996
v 0.0101250000 -0.0020000001 0.0120000001
v 0.0101250000 -0.0012500000 0.0199999996
v 0.0101250000 0.0012500000 0.0199999996
v 0.0101250000 0.0020000001 0.0120000001
v 0.0101250000 0.0058456715 0.0000000000
v 0.0101250000 0.0058456715 0.0119999992
v 0.0101250000 0.0058456715 0.0199999996
v 0.0101250000 0.0063456716 0.0120000001
v 0.0101250000 0.0246249996 0.0199999996
v 0.0101250000 0.0260956716 0.0120000001
v 0.0101250000 0.0326250009 0.0119999992
v 0.0102207176 0.0255301185 0.0074499999
v 0.0102207176 0.0255301185 0.0079500005
v 0.0103324531 -0.0249447469 0.0074499999
v 0.0103324531 -0.0249447469 0.0079500005
v 0.0103324531 0.0249447469 0.0074499999
v 0.0103324531 0.0249447469 0.0079500005
v 0.0113610728 -0.0426249988 0.1021591425
v 0.0113610728 -0.0346250013 0.1021591425
v 0.0113610728 0.0346250013 0.1021591425
v 0.0113610728 0.0426249988 0.1021591425
v 0.0116046462 -0.0130989384 0.0000000000
v 0.0116046462 -0.0130989384 0.0019499999
v 0.0116046462 0.0130989384 0.0000000000
v 0.0116046462 0.0130989384 0.0019499999
v 0.0116229095 -0.0131195532 0.0019499999
v 0.0116229095 -0.0131195532 0.0079500005
v 0.0116229095 0.0131195532 0.0019499999
v 0.0116229095 0.0131195532 0.0079500005
v 0.0117499996 -0.0426249988 0.0633086562
v 0.0117499996 -0.0426249988 0.0866913497
v 0.0117499996 -0.0346250013 0.0633086562
v 0.0117499996 -0.0346250013 0.0866913497
v 0.0117499996 0.0346250013 0.0633086562
v 0.0117499996 0.0346250013 0.0866913497
v 0.0117499996 0.0426249988 0.0633086562
v 0.0117499996 0.0426249988 0.0866913497
v 0.0119509622 -0.0426249988 0.0625586584
v 0.0119509622 -0.0426249988 0.0640586615
v 0.0119509622 -0.0426249988 0.0859413445
v 0.0119509622 -0.0426249988 0.0874413475
v 0.0119509622 -0.0346250013 0.0625586584
v 0.0119509622 -0.0346250013 0.0640586615
v 0.0119509622 -0.0346250013 0.0859413445
v 0.0119509622 -0.0346250013 0.0874413475
v 0.0119509622 0.0346250013 0.0625586584
v 0.0119509622 0.0346250013 0.0640586615
v 0.0119509622 0.0346250013 0.0859413445
v 0.0119509622 0.0346250013 0.0874413475
v 0.0119509622 0.0426249988 0.0625586584
v 0.0119509622 0.0426249988 0.0640586615
v 0.0119509622 0.0426249988 0.0859413445
v 0.0119509622 0.0426249988 0.0874413475
v 0.0120000001 -0.0000000000 0.0119999992
v 0.0120000001 -0.0000000000 0.0199999996
v 0.0120000001 -0.0000000000 0.0000000000
v 0.0120000001 -0.0000000000 0.0120000001
v 0.0122009618 -0.0007500000 0.0000000000
v 0.0122009618 -0.0007500000 0.0119999992
v 0.0122009618 -0.0007500000 0.0120000001
v 0.0122009618 -0.0007500000 0.0199999996
v 0.0122009618 0.0007500000 0.0000000000
v 0.0122009618 0.0007500000 0.0119999992
v 0.0122009618 0.0007500000 0.0120000001
v 0.0122009618 0.0007500000 0.0199999996
v 0.0123500517 0.0369929224 0.0079500005
v 0.0123500517 0.0369929224 0.0120000001
v 0.0125000002 -0.0426249988 0.0620096177
v 0.0125000002 -0.0426249988 0.0646076947
v 0.0125000002 -0.0426249988 0.0853923112
v 0.0125000002 -0.0426249988 0.0879903808
v 0.0125000002 -0.0346250013 0.0620096177
v 0.0125000002 -0.0346250013 0.0646076947
v 0.0125000002 -0.0346250013 0.0853923112
v 0.0125000002 -0.0346250013 0.0879903808
v 0.0125000002 0.0346250013 0.0620096177
v 0.0125000002 0.0346250013 0.0646076947
v 0.0125000002 0.0346250013 0.0853923112
v 0.0125000002 0.0346250013 0.0879903808
v 0.0125000002 0.0426249988 0.0620096177
v 0.0125000002 0.0426249988 0.0646076947
v 0.0125000002 0.0426249988 0.0853923112
v 0.0125000002 0.0426249988 0.0879903808
v 0.0126012294 -0.0244429745 0.0074499999
v 0.0126012294 -0.0244429745 0.0079500005
v 0.0127499998 -0.0012990381 0.0000000000
v 0.0127499998 -0.0012990381 0.0119999992
v 0.0127499998 -0.0012990381 0.0120000001
v 0.0127499998 -0.0012990381 0.0199999996
v 0.0127499998 0.0012990381 0.0000000000
v 0.0127499998 0.0012990381 0.0119999992
v 0.0127499998 0.0012990381 0.0120000001
v 0.0127499998 0.0012990381 0.0199999996
v 0.0132499998 -0.0426249988 0.0618086569
v 0.0132499998 -0.0426249988 0.0648086593
v 0.0132499998 -0.0426249988 0.0851913467
v 0.0132499998 -0.0426249988 0.0881913453
v 0.0132499998 -0.0346250013 0.0618086569
v 0.0132499998 -0.0346250013 0.0648086593
v 0.0132499998 -0.0346250013 0.0851913467
v 0.0132499998 -0.0346250013 0.0881913453
v 0.0132499998 0.0346250013 0.0618086569
v 0.0132499998 0.0346250013 0.0648086593
v 0.0132499998 0.0346250013 0.0851913467
v 0.0132499998 0.0346250013 0.0881913453
v 0.0132499998 0.0426249988 0.0618086569
v 0.0132499998 0.0426249988 0.0648086593
v 0.0132499998 0.0426249988 0.0851913467
v 0.0132499998 0.0426249988 0.0881913453
v 0.0135000004 -0.0015000000 0.0000000000
v 0.0135000004 -0.0015000000 0.0119999992
v 0.0135000004 -0.0015000000 0.0120000001
v 0.0135000004 -0.0015000000 0.0199999996
v 0.0135000004 0.0015000000 0.0000000000
v 0.0135000004 0.0015000000 0.0119999992
v 0.0135000004 0.0015000000 0.0120000001
v 0.0135000004 0.0015000000 0.0199999996
v 0.0140000004 -0.0426249988 0.0620096177
v 0.0140000004 -0.0426249988 0.0646076947
v 0.0140000004 -0.0426249988 0.0853923112
v 0.0140000004 -0.0426249988 0.0879903808
v 0.0140000004 -0.0346250013 0.0620096177
v 0.0140000004 -0.0346250013 0.0646076947
v 0.0140000004 -0.0346250013 0.0853923112
v 0.0140000004 -0.0346250013 0.0879903808
v 0.0140000004 0.0346250013 0.0620096177
v 0.0140000004 0.0346250013 0.0646076947
v 0.0140000004 0.0346250013 0.0853923112
v 0.0140000004 0.0346250013 0.0879903808
v 0.0140000004 0.0426249988 0.0620096177
v 0.0140000004 0.0426249988 0.0646076947
v 0.0140000004 0.0426249988 0.0853923112
v 0.0140000004 0.0426249988 0.0879903808
v 0.0142500000 -0.0012990381 0.0000000000
v 0.0142500000 -0.0012990381 0.0119999992
v 0.0142500000 -0.0012990381 0.0120000001
v 0.0142500000 -0.0012990381 0.0199999996
v 0.0142500000 0.0012990381 0.0000000000
v 0.0142500000 0.0012990381 0.0119999992
v 0.0142500000 0.0012990381 0.0120000001
v 0.0142500000 0.0012990381 0.0199999996
v 0.0144022172 -0.0099411327 0.0000000000
v 0.0144022172 -0.0099411327 0.0019499999
v 0.0144022172 0.0099411327 0.0000000000
v 0.0144022172 0.0099411327 0.0019499999
v 0.0144248838 -0.0099567780 0.0019499999
v 0.0144248838 -0.0099567780 0.0079500005
v 0.0144248838 0.0099567780 0.0019499999
v 0.0144248838 0.0099567780 0.0079500005
v 0.0145490384 -0.0426249988 0.0625586584
v 0.0145490384 -0.0426249988 0.0640586615
v 0.0145490384 -0.0426249988 0.0859413445
v 0.0145490384 -0.0426249988 0.0874413475
v 0.0145490384 -0.0346250013 0.0625586584
v 0.0145490384 -0.0346250013 0.0640586615
v 0.0145490384 -0.0346250013 0.0859413445
v 0.0145490384 -0.0346250013 0.0874413475
v 0.0145490384 0.0346250013 0.0625586584
v 0.0145490384 0.0346250013 0.0640586615
v 0.0145490384 0.0346250013 0.0859413445
v 0.0145490384 0.0346250013 0.0874413475
v 0.0145490384 0.0426249988 0.0625586584
v 0.0145490384 0.0426249988 0.0640586615
v 0.0145490384 0.0426249988 0.0859413445
v 0.0145490384 0.0426249988 0.0874413475
v 0.0147500001 -0.0426249988 0.0633086562
v 0.0147500001 -0.0426249988 0.0866913497
v 0.0147500001 -0.0346250013 0.0633086562
v 0.0147500001 -0.0346250013 0.0866913497
v 0.0147500001 0.0346250013 0.0633086562
v 0.0147500001 0.0346250013 0.0866913497
v 0.0147500001 0.0426249988 0.0633086562
v 0.0147500001 0.0426249988 0.0866913497
v 0.0147990379 -0.0007500000 0.0000000000
v 0.0147990379 -0.0007500000 0.0119999992
v 0.0147990379 -0.0007500000 0.0120000001
v 0.0147990379 -0.0007500000 0.0199999996
v 0.0147990379 0.0007500000 0.0000000000
v 0.0147990379 0.0007500000 0.0119999992
v 0.0147990379 0.0007500000 0.0120000001
v 0.0147990379 0.0007500000 0.0199999996
v 0.0148676224 0.0231344718 0.0074499999
v 0.0148676224 0.0231344718 0.0079500005
v 0.0149999997 -0.0000000000 0.0000000000
v 0.0149999997 -0.0000000000 0.0119999992
v 0.0149999997 -0.0000000000 0.0120000001
v 0.0149999997 -0.0000000000 0.0199999996
v 0.0149999997 -0.0000000000 0.0199999996
v 0.0150003964 -0.0224496797 0.0074499999
v 0.0150003964 -0.0224496797 0.0079500005
v 0.0150003964 0.0224496797 0.0074499999
v 0.0150003964 0.0224496797 0.0079500005
v 0.0152866980 -0.0358791985 0.0079500005
v 0.0152866980 -0.0358791985 0.0120000001
v 0.0163627844 -0.0062055853 0.0000000000
v 0.0163627844 -0.0062055853 0.0019499999
v 0.0163627844 0.0062055853 0.0000000000
v 0.0163627844 0.0062055853 0.0019499999
v 0.0163885355 -0.0062153516 0.0019499999
v 0.0163885355 -0.0062153516 0.0079500005
v 0.0163885355 0.0062153516 0.0019499999
v 0.0163885355 0.0062153516 0.0079500005
v 0.0169993713 -0.0216164608 0.0074499999
v 0.0169993713 -0.0216164608 0.0079500005
v 0.0173354801 -0.0426249988 0.1033751741
v 0.0173354801 -0.0346250013 0.1033751741
v 0.0173354801 0.0346250013 0.1033751741
v 0.0173354801 0.0426249988 0.1033751741
v 0.0173724052 -0.0021093918 0.0000000000
v 0.0173724052 -0.0021093918 0.0019499999
v 0.0173724052 0.0021093918 0.0000000000
v 0.0173724052 0.0021093918 0.0019499999
v 0.0173997451 -0.0021127115 0.0019499999
v 0.0173997451 -0.0021127115 0.0079500005
v 0.0173997451 0.0021127115 0.0019499999
v 0.0173997451 0.0021127115 0.0079500005
v 0.0181242041 0.0345327854 0.0079500005
v 0.0181242041 0.0345327854 0.0120000001
v 0.0189771727 0.0199026857 0.0074499999
v 0.0189771727 0.0199026857 0.0079500005
v 0.0190918837 -0.0190918837 0.0074499999
v 0.0190918837 -0.0190918837 0.0079500005
v 0.0190918837 0.0190918837 0.0074499999
v 0.0190918837 0.0190918837 0.0079500005
v 0.0191229638 -0.0246249996 0.0199999996
v 0.0191229638 -0.0189081710 0.0199999996
v 0.0191229638 -0.0058456715 0.0199999996
v 0.0191229638 -0.0012500000 0.0199999996
v 0.0191229638 0.0012500000 0.0199999996
v 0.0191229638 0.0058456715 0.0199999996
v 0.0191229638 0.0246249996 0.0199999996
v 0.0199999996 -0.0426249988 0.0219999999
v 0.0199999996 -0.0426249988 0.0268750004
v 0.0199999996 -0.0426249988 0.0482793301
v 0.0199999996 -0.0426249988 0.0691543296
v 0.0199999996 -0.0426249988 0.0808456764
v 0.0199999996 -0.0346250013 0.0299999993
v 0.0199999996 -0.0346250013 0.0308749992
v 0.0199999996 -0.0346250013 0.0482793301
v 0.0199999996 -0.0346250013 0.0691543296
v 0.0199999996 -0.0346250013 0.0808456764
v 0.0199999996 0.0346250013 0.0299999993
v 0.0199999996 0.0346250013 0.0308749992
v 0.0199999996 0.0346250013 0.0482793301
v 0.0199999996 0.0346250013 0.0691543296
v 0.0199999996 0.0346250013 0.0808456764
v 0.0199999996 0.0426249988 0.0219999999
v 0.0199999996 0.0426249988 0.0268750004
v 0.0199999996 0.0426249988 0.0482793301
v 0.0199999996 0.0426249988 0.0691543296
v 0.0199999996 0.0426249988 0.0808456764
v 0.0200021788 -0.0426249988 0.1035000011
v 0.0200021788 -0.0346250013 0.1035000011
v 0.0200021788 0.0346250013 0.1035000011
v 0.0200021788 0.0426249988 0.1035000011
v 0.0207831133 -0.0180086698 0.0074499999
v 0.0207831133 -0.0180086698 0.0079500005
v 0.0208441671 -0.0329624116 0.0079500005
v 0.0208441671 -0.0329624116 0.0120000001
v 0.0224008393 0.0159515645 0.0074499999
v 0.0224008393 0.0159515645 0.0079500005
v 0.0224496797 -0.0150003964 0.0074499999
v 0.0224496797 -0.0150003964 0.0079500005
v 0.0224496797 0.0150003964 0.0074499999
v 0.0224496797 0.0150003964 0.0079500005
v 0.0225866549 -0.0063456716 0.0120000001
v 0.0225866549 -0.0020000001 0.0120000001
v 0.0225866549 0.0020000001 0.0120000001
v 0.0225866549 0.0063456716 0.0120000001
v 0.0225866549 0.0260956716 0.0120000001
v 0.0232459288 -0.0010000000 0.0195000004
v 0.0232459288 -0.0010000000 0.0199999996
v 0.0232459288 0.0010000000 0.0195000004
v 0.0232459288 0.0010000000 0.0199999996
v 0.0234289486 0.0311782677 0.0079500005
v 0.0234289486 0.0311782677 0.0120000001
v 0.0234318282 -0.0426249988 0.1032926291
v 0.0234318282 -0.0346250013 0.1032926291
v 0.0234318282 0.0346250013 0.1032926291
v 0.0234318282 0.0426249988 0.1032926291
v 0.0238156989 -0.0137499999 0.0074499999
v 0.0238156989 -0.0137499999 0.0079500005
v 0.0249447469 -0.0103324531 0.0074499999
v 0.0249447469 -0.0103324531 0.0079500005
v 0.0249447469 0.0103324531 0.0074499999
v 0.0249447469 0.0103324531 0.0079500005
v 0.0249779802 0.0000000000 0.0195000004
v 0.0249779802 0.0000000000 0.0199999996
v 0.0249779802 0.0000000000 0.0195000004
v 0.0249779802 0.0000000000 0.0199999996
v 0.0250148792 0.0114239128 0.0074499999
v 0.0250148792 0.0114239128 0.0079500005
v 0.0252500009 -0.0426249988 0.0633086562
v 0.0252500009 -0.0426249988 0.0866913497
v 0.0252500009 -0.0346250013 0.0633086562
v 0.0252500009 -0.0346250013 0.0866913497
v 0.0252500009 0.0346250013 0.0633086562
v 0.0252500009 0.0346250013 0.0866913497
v 0.0252500009 0.0426249988 0.0633086562
v 0.0252500009 0.0426249988 0.0866913497
v 0.0254509617 -0.0426249988 0.0625586584
v 0.0254509617 -0.0426249988 0.0640586615
v 0.0254509617 -0.0426249988 0.0859413445
v 0.0254509617 -0.0426249988 0.0874413475
v 0.0254509617 -0.0346250013 0.0625586584
v 0.0254509617 -0.0346250013 0.0640586615
v 0.0254509617 -0.0346250013 0.0859413445
v 0.0254509617 -0.0346250013 0.0874413475
v 0.0254509617 0.0346250013 0.0625586584
v 0.0254509617 0.0346250013 0.0640586615
v 0.0254509617 0.0346250013 0.0859413445
v 0.0254509617 0.0346250013 0.0874413475
v 0.0254509617 0.0426249988 0.0625586584
v 0.0254509617 0.0426249988 0.0640586615
v 0.0254509617 0.0426249988 0.0859413445
v 0.0254509617 0.0426249988 0.0874413475
v 0.0258617830 -0.0291919187 0.0079500005
v 0.0258617830 -0.0291919187 0.0120000001
v 0.0259875227 -0.0089943688 0.0074499999
v 0.0259875227 -0.0089943688 0.0079500005
v 0.0260000005 -0.0426249988 0.0620096177
v 0.0260000005 -0.0426249988 0.0646076947
v 0.0260000005 -0.0426249988 0.0853923112
v 0.0260000005 -0.0426249988 0.0879903808
v 0.0260000005 -0.0346250013 0.0620096177
v 0.0260000005 -0.0346250013 0.0646076947
v 0.0260000005 -0.0346250013 0.0853923112
v 0.0260000005 -0.0346250013 0.0879903808
v 0.0260000005 0.0346250013 0.0620096177
v 0.0260000005 0.0346250013 0.0646076947
v 0.0260000005 0.0346250013 0.0853923112
v 0.0260000005 0.0346250013 0.0879903808
v 0.0260000005 0.0426249988 0.0620096177
v 0.0260000005 0.0426249988 0.0646076947
v 0.0260000005 0.0426249988 0.0853923112
v 0.0260000005 0.0426249988 0.0879903808
v 0.0264812019 -0.0052674385 0.0074499999
v 0.0264812019 -0.0052674385 0.0079500005
v 0.0264812019 0.0052674385 0.0074499999
v 0.0264812019 0.0052674385 0.0079500005
v 0.0267248172 0.0064833709 0.0074499999
v 0.0267248172 0.0064833709 0.0079500005
v 0.0267500002 -0.0426249988 0.0618086569
v 0.0267500002 -0.0426249988 0.0648086593
v 0.0267500002 -0.0426249988 0.0851913467
v 0.0267500002 -0.0426249988 0.0881913453
v 0.0267500002 -0.0346250013 0.0618086569
v 0.0267500002 -0.0346250013 0.0648086593
v 0.0267500002 -0.0346250013 0.0851913467
v 0.0267500002 -0.0346250013 0.0881913453
v 0.0267500002 0.0346250013 0.0618086569
v 0.0267500002 0.0346250013 0.0648086593
v 0.0267500002 0.0346250013 0.0851913467
v 0.0267500002 0.0346250013 0.0881913453
v 0.0267500002 0.0426249988 0.0618086569
v 0.0267500002 0.0426249988 0.0648086593
v 0.0267500002 0.0426249988 0.0851913467
v 0.0267500002 0.0426249988 0.0881913453
v 0.0270000007 -0.0000000000 0.0074499999
v 0.0270000007 -0.0000000000 0.0079500005
v 0.0272200890 -0.0039136582 0.0074499999
v 0.0272200890 -0.0039136582 0.0079500005
v 0.0274688527 0.0013085026 0.0074499999
v 0.0274688527 0.0013085026 0.0079500005
v 0.0274999999 -0.0426249988 0.0620096177
v 0.0274999999 -0.0426249988 0.0646076947
v 0.0274999999 -0.0426249988 0.0853923112
v 0.0274999999 -0.0426249988 0.0879903808
v 0.0274999999 -0.0346250013 0.0620096177
v 0.0274999999 -0.0346250013 0.0646076947
v 0.0274999999 -0.0346250013 0.0853923112
v 0.0274999999 -0.0346250013 0.0879903808
v 0.0274999999 0.0346250013 0.0620096177
v 0.0274999999 0.0346250013 0.0646076947
v 0.0274999999 0.0346250013 0.0853923112
v 0.0274999999 0.0346250013 0.0879903808
v 0.0274999999 0.0426249988 0.0620096177
v 0.0274999999 0.0426249988 0.0646076947
v 0.0274999999 0.0426249988 0.0853923112
v 0.0274999999 0.0426249988 0.0879903808
v 0.0280490387 -0.0426249988 0.0625586584
v 0.0280490387 -0.0426249988 0.0640586615
v 0.0280490387 -0.0426249988 0.0859413445
v 0.0280490387 -0.0426249988 0.0874413475
v 0.0280490387 -0.0346250013 0.0625586584
v 0.0280490387 -0.0346250013 0.0640586615
v 0.0280490387 -0.0346250013 0.0859413445
v 0.0280490387 -0.0346250013 0.0874413475
v 0.0280490387 0.0346250013 0.0625586584
v 0.0280490387 0.0346250013 0.0640586615
v 0.0280490387 0.0346250013 0.0859413445
v 0.0280490387 0.0346250013 0.0874413475
v 0.0280490387 0.0426249988 0.0625586584
v 0.0280490387 0.0426249988 0.0640586615
v 0.0280490387 0.0426249988 0.0859413445
v 0.0280490387 0.0426249988 0.0874413475
v 0.0281268954 0.0270162504 0.0079500005
v 0.0281268954 0.0270162504 0.0120000001
v 0.0282499995 -0.0426249988 0.0633086562
v 0.0282499995 -0.0426249988 0.0866913497
v 0.0282499995 -0.0346250013 0.0633086562
v 0.0282499995 -0.0346250013 0.0866913497
v 0.0282499995 0.0346250013 0.0633086562
v 0.0282499995 0.0346250013 0.0866913497
v 0.0282499995 0.0426249988 0.0633086562
v 0.0282499995 0.0426249988 0.0866913497
v 0.0293711200 -0.0426249988 0.1019152775
v 0.0293711200 -0.0346250013 0.1019152775
v 0.0293711200 0.0346250013 0.1019152775
v 0.0293711200 0.0426249988 0.1019152775
v 0.0301249996 -0.0426249988 0.0219999999
v 0.0301249996 -0.0426249988 0.0268750004
v 0.0301249996 -0.0426249988 0.0482793301
v 0.0301249996 -0.0426249988 0.0691543296
v 0.0301249996 -0.0426249988 0.0808456764
v 0.0301249996 -0.0346250013 0.0299999993
v 0.0301249996 -0.0346250013 0.0308749992
v 0.0301249996 -0.0346250013 0.0482793301
v 0.0301249996 -0.0346250013 0.0691543296
v 0.0301249996 -0.0346250013 0.0808456764
v 0.0301249996 0.0346250013 0.0299999993
v 0.0301249996 0.0346250013 0.0308749992
v 0.0301249996 0.0346250013 0.0482793301
v 0.0301249996 0.0346250013 0.0691543296
v 0.0301249996 0.0346250013 0.0808456764
v 0.0301249996 0.0426249988 0.0219999999
v 0.0301249996 0.0426249988 0.0268750004
v 0.0301249996 0.0426249988 0.0482793301
v 0.0301249996 0.0426249988 0.0691543296
v 0.0301249996 0.0426249988 0.0808456764
v 0.0301733110 -0.0024999999 0.0117499996
v 0.0301733110 -0.0024999999 0.0120000001
v 0.0301733110 -0.0020000001 0.0120000001
v 0.0301733110 0.0020000001 0.0120000001
v 0.0301733110 0.0024999999 0.0117499996
v 0.0301733110 0.0024999999 0.0120000001
v 0.0302095935 -0.0246653687 0.0079500005
v 0.0302095935 -0.0246653687 0.0120000001
v 0.0320000015 -0.0426249988 0.0750000030
v 0.0320000015 -0.0346250013 0.0750000030
v 0.0320000015 0.0346250013 0.0750000030
v 0.0320000015 0.0426249988 0.0750000030
v 0.0320963711 0.0221545249 0.0079500005
v 0.0320963711 0.0221545249 0.0120000001
v 0.0322009623 -0.0426249988 0.0742499977
v 0.0322009623 -0.0426249988 0.0757500008
v 0.0322009623 -0.0346250013 0.0742499977
v 0.0322009623 -0.0346250013 0.0757500008
v 0.0322009623 0.0346250013 0.0742499977
v 0.0322009623 0.0346250013 0.0757500008
v 0.0322009623 0.0426249988 0.0742499977
v 0.0322009623 0.0426249988 0.0757500008
v 0.0327499993 -0.0426249988 0.0737009645
v 0.0327499993 -0.0426249988 0.0762990415
v 0.0327499993 -0.0346250013 0.0737009645
v 0.0327499993 -0.0346250013 0.0762990415
v 0.0327499993 0.0346250013 0.0737009645
v 0.0327499993 0.0346250013 0.0762990415
v 0.0327499993 0.0426249988 0.0737009645
v 0.0327499993 0.0426249988 0.0762990415
v 0.0335000008 -0.0426249988 0.0734999999
v 0.0335000008 -0.0426249988 0.0764999986
v 0.0335000008 -0.0346250013 0.0734999999
v 0.0335000008 -0.0346250013 0.0764999986
v 0.0335000008 0.0346250013 0.0734999999
v 0.0335000008 0.0346250013 0.0764999986
v 0.0335000008 0.0426249988 0.0734999999
v 0.0335000008 0.0426249988 0.0764999986
v 0.0337749906 -0.0195000004 0.0079500005
v 0.0337749906 -0.0195000004 0.0120000001
v 0.0342499986 -0.0426249988 0.0737009645
v 0.0342499986 -0.0426249988 0.0762990415
v 0.0342499986 -0.0346250013 0.0737009645
v 0.0342499986 -0.0346250013 0.0762990415
v 0.0342499986 0.0346250013 0.0737009645
v 0.0342499986 0.0346250013 0.0762990415
v 0.0342499986 0.0426249988 0.0737009645
v 0.0342499986 0.0426249988 0.0762990415
v 0.0345034376 -0.0000000000 0.0117499996
v 0.0345034376 -0.0000000000 0.0120000001
v 0.0345034376 -0.0000000000 0.0117499996
v 0.0345034376 -0.0000000000 0.0120000001
v 0.0346250013 -0.0424229577 0.0199999996
v 0.0346250013 -0.0421355665 0.0189098306
v 0.0346250013 -0.0407151692 0.0161221474
v 0.0346250013 -0.0385028534 0.0139098298
v 0.0346250013 -0.0357151702 0.0124894343
v 0.0346250013 -0.0326250009 0.0119999992
v 0.0346250013 -0.0246249996 0.0199999996
v 0.0346250013 -0.0229081716 0.0119999992
v 0.0346250013 -0.0189081710 0.0199999996
v 0.0346250013 -0.0058456715 0.0119999992
v 0.0346250013 -0.0058456715 0.0199999996
v 0.0346250013 -0.0012500000 0.0199999996
v 0.0346250013 0.0012500000 0.0199999996
v 0.0346250013 0.0058456715 0.0119999992
v 0.0346250013 0.0058456715 0.0199999996
v 0.0346250013 0.0246249996 0.0199999996
v 0.0346250013 0.0326250009 0.0119999992
v 0.0346250013 0.0357151702 0.0124894343
v 0.0346250013 0.0385028534 0.0139098298
v 0.0346250013 0.0407151692 0.0161221474
v 0.0346250013 0.0421355665 0.0189098306
v 0.0346250013 0.0424229577 0.0199999996
v 0.0347576179 -0.0277151708 0.0204894356
v 0.0347576179 0.0277151708 0.0204894356
v 0.0347990394 -0.0426249988 0.0742499977
v 0.0347990394 -0.0426249988 0.0757500008
v 0.0347990394 -0.0346250013 0.0742499977
v 0.0347990394 -0.0346250013 0.0757500008
v 0.0347990394 0.0346250013 0.0742499977
v 0.0347990394 0.0346250013 0.0757500008
v 0.0347990394 0.0426249988 0.0742499977
v 0.0347990394 0.0426249988 0.0757500008
v 0.0348815471 -0.0426249988 0.0993061662
v 0.0348815471 -0.0346250013 0.0993061662
v 0.0348815471 0.0346250013 0.0993061662
v 0.0348815471 0.0426249988 0.0993061662
v 0.0350000001 -0.0426249988 0.0750000030
v 0.0350000001 -0.0346250013 0.0750000030
v 0.0350000001 0.0346250013 0.0750000030
v 0.0350000001 0.0426249988 0.0750000030
v 0.0351424851 -0.0305028521 0.0219098292
v 0.0351424851 0.0305028521 0.0219098292
v 0.0351669155 -0.0426249988 0.0219999999
v 0.0351669155 0.0426249988 0.0219999999
v 0.0352345668 0.0167190097 0.0079500005
v 0.0352345668 0.0167190097 0.0120000001
v 0.0357419290 -0.0327151716 0.0241221469
v 0.0357419290 0.0327151716 0.0241221469
v 0.0364656337 -0.0138295908 0.0079500005
v 0.0364656337 -0.0138295908 0.0120000001
v 0.0364878364 -0.0426249988 0.0268750004
v 0.0364878364 0.0426249988 0.0268750004
v 0.0364972726 -0.0341355652 0.0269098300
v 0.0364972726 0.0341355652 0.0269098300
v 0.0373345800 -0.0346250013 0.0299999993
v 0.0373345800 0.0346250013 0.0299999993
v 0.0374602079 0.0108504808 0.0079500005
v 0.0374602079 0.0108504808 0.0120000001
v 0.0375716649 -0.0346250013 0.0308749992
v 0.0375716649 0.0346250013 0.0308749992
v 0.0382118337 -0.0078010019 0.0079500005
v 0.0382118337 -0.0078010019 0.0120000001
v 0.0387156457 0.0047009303 0.0079500005
v 0.0387156457 0.0047009303 0.0120000001
v 0.0389683694 -0.0015703717 0.0079500005
v 0.0389683694 -0.0015703717 0.0120000001
v 0.0397109240 -0.0426249988 0.0955846906
v 0.0397109240 -0.0346250013 0.0955846906
v 0.0397109240 0.0346250013 0.0955846906
v 0.0397109240 0.0426249988 0.0955846906
v 0.0417499989 0.0346250013 0.0462956056
v 0.0417499989 0.0346250013 0.0482793301
v 0.0417499989 0.0346250013 0.0691543296
v 0.0417499989 0.0346250013 0.0808456764
v 0.0417499989 0.0426249988 0.0462956056
v 0.0417499989 0.0426249988 0.0482793301
v 0.0417499989 0.0426249988 0.0691543296
v 0.0417499989 0.0426249988 0.0808456764
v 0.0422875062 0.0346250013 0.0482793301
v 0.0422875062 0.0426249988 0.0482793301
v 0.0436382405 -0.0426249988 0.0909211710
v 0.0436382405 -0.0346250013 0.0909211710
v 0.0436382405 0.0346250013 0.0909211710
v 0.0436382405 0.0426249988 0.0909211710
v 0.0464837663 -0.0426249988 0.0855290219
v 0.0464837663 -0.0346250013 0.0855290219
v 0.0464837663 0.0346250013 0.0855290219
v 0.0464837663 0.0426249988 0.0855290219
v 0.0475080870 -0.0426249988 0.0675464720
v 0.0475080870 -0.0346250013 0.0675464720
v 0.0475080870 0.0346250013 0.0675464720
v 0.0475080870 0.0426249988 0.0675464720
v 0.0481172688 -0.0426249988 0.0796550140
v 0.0481172688 -0.0346250013 0.0796550140
v 0.0481172688 0.0346250013 0.0796550140
v 0.0481172688 0.0426249988 0.0796550140
v 0.0484640002 -0.0426249988 0.0735679716
v 0.0484640002 -0.0346250013 0.0735679716
v 0.0484640002 0.0346250013 0.0735679716
v 0.0484640002 0.0426249988 0.0735679716
f 317 323 331
f 331 323 324
f 331 324 330
f 317 316 323
f 323 316 318
f 323 318 319
f 319 320 323
f 323 320 321
f 323 321 322
f 327 324 326
f 326 324 325
f 327 328 324
f 324 328 329
f 324 329 330
f 117 169 143
f 142 168 116
f 116 168 192
f 116 192 330
f 330 192 226
f 226 252 330
f 330 252 259
f 330 259 331
f 117 143 116
f 116 143 135
f 116 135 142
f 259 253 331
f 331 253 227
f 331 227 117
f 117 227 193
f 117 193 169
f 104 102 109
f 109 102 103
f 109 103 110
f 110 103 117
f 108 107 106
f 108 106 109
f 109 106 105
f 109 105 104
f 117 116 110
f 110 116 115
f 110 115 114
f 114 113 110
f 110 113 112
f 110 112 111
f 137 163 103
f 103 163 185
f 103 185 317
f 185 221 317
f 317 221 247
f 317 247 316
f 316 247 256
f 316 256 246
f 137 103 132
f 132 103 102
f 132 102 136
f 246 220 316
f 316 220 182
f 316 182 102
f 102 182 162
f 102 162 136
f 117 103 331
f 331 103 317
f 109 110 323
f 323 110 324
f 316 102 104
f 316 104 318
f 318 104 105
f 318 105 319
f 319 105 106
f 319 106 320
f 320 106 107
f 320 107 321
f 321 107 108
f 321 108 322
f 322 108 109
f 322 109 323
f 116 330 329
f 116 329 115
f 115 329 328
f 115 328 114
f 114 328 327
f 114 327 113
f 113 327 326
f 113 326 112
f 112 326 325
f 112 325 111
f 111 325 324
f 111 324 110
f 189 192 166
f 166 192 168
f 166 168 140
f 140 168 142
f 140 142 134
f 134 142 135
f 134 135 141
f 141 135 143
f 141 143 167
f 167 143 169
f 167 169 191
f 191 169 193
f 191 193 225
f 225 193 227
f 225 227 251
f 251 227 253
f 251 253 258
f 258 253 259
f 258 259 250
f 250 259 252
f 250 252 224
f 224 252 226
f 224 226 189
f 189 226 192
f 250 224 190
f 190 224 189
f 190 189 166
f 225 251 190
f 190 251 258
f 190 258 250
f 141 167 190
f 190 167 191
f 190 191 225
f 166 140 190
f 190 140 134
f 190 134 141
f 188 185 165
f 165 185 163
f 165 163 139
f 139 163 137
f 139 137 133
f 133 137 132
f 133 132 138
f 138 132 136
f 138 136 164
f 164 136 162
f 164 162 186
f 186 162 182
f 186 182 222
f 222 182 220
f 222 220 248
f 248 220 246
f 248 246 257
f 257 246 256
f 257 256 249
f 249 256 247
f 249 247 223
f 223 247 221
f 223 221 188
f 188 221 185
f 249 223 187
f 187 223 188
f 187 188 165
f 222 248 187
f 187 248 257
f 187 257 249
f 138 164 187
f 187 164 186
f 187 186 222
f 165 139 187
f 187 139 133
f 187 133 138
f 1284 1286 1021
f 1286 1288 1022
f 798 802 554
f 1025 1026 804
f 936 1024 1025
f 277 293 93
f 345 337 369
f 370 313 341
f 95 93 374
f 374 93 293
f 374 293 305
f 91 289 92
f 92 289 273
f 92 273 93
f 93 273 265
f 93 265 277
f 309 301 367
f 976 983 1023
f 1023 983 972
f 1023 972 932
f 797 884 856
f 912 802 888
f 888 802 798
f 888 798 860
f 860 798 850
f 802 765 745
f 637 621 554
f 555 641 669
f 555 669 804
f 669 695 804
f 804 695 719
f 804 719 749
f 745 715 802
f 802 715 691
f 802 691 554
f 554 691 665
f 554 665 637
f 749 765 804
f 804 765 802
f 804 802 1025
f 1025 802 912
f 1025 912 936
f 508 554 555
f 555 554 621
f 555 621 641
f 508 520 554
f 554 520 504
f 554 504 468
f 392 416 376
f 446 430 374
f 374 430 412
f 374 412 392
f 416 434 376
f 376 434 450
f 376 450 555
f 555 450 472
f 555 472 508
f 392 376 374
f 374 376 96
f 374 96 95
f 1293 1026 1292
f 1292 1026 1025
f 1292 1025 1290
f 1290 1025 1024
f 856 850 797
f 797 850 798
f 797 798 552
f 552 798 554
f 552 554 374
f 374 554 468
f 374 468 446
f 936 976 1024
f 1024 976 1023
f 1024 1023 1067
f 1067 1023 1289
f 1067 1289 1085
f 1085 1289 1290
f 1085 1290 1069
f 1069 1290 1024
f 1069 1024 1067
f 908 884 795
f 795 884 797
f 795 797 551
f 551 797 552
f 551 552 370
f 370 552 374
f 370 374 313
f 313 374 305
f 908 795 932
f 932 795 1022
f 932 1022 1023
f 1023 1022 1288
f 1023 1288 1289
f 633 661 550
f 687 711 795
f 795 711 741
f 795 741 761
f 341 345 370
f 370 345 369
f 370 369 551
f 551 369 550
f 551 550 795
f 795 550 661
f 795 661 687
f 1286 1022 1021
f 1021 1022 795
f 1021 795 791
f 791 795 761
f 791 761 737
f 737 707 791
f 791 707 683
f 791 683 548
f 683 657 548
f 548 657 629
f 548 629 550
f 550 629 617
f 550 617 633
f 426 442 367
f 548 460 363
f 363 460 438
f 363 438 422
f 337 309 369
f 369 309 367
f 369 367 550
f 550 367 442
f 550 442 464
f 464 500 550
f 550 500 516
f 550 516 548
f 548 516 496
f 548 496 460
f 422 404 363
f 363 404 388
f 363 388 367
f 367 388 408
f 367 408 426
f 301 289 367
f 367 289 91
f 367 91 363
f 363 91 89
f 1284 1021 1020
f 1020 1021 791
f 1020 791 789
f 789 791 548
f 789 548 546
f 546 548 363
f 546 363 361
f 361 363 89
f 361 89 87
f 96 28 95
f 95 28 27
f 95 27 93
f 93 27 25
f 93 25 92
f 92 25 24
f 92 24 91
f 91 24 23
f 91 23 89
f 89 23 21
f 89 21 87
f 87 21 19
f 1284 1285 1286
f 1286 1285 1287
f 1278 1279 1284
f 1284 1279 1280
f 1284 1280 1281
f 1281 1282 1284
f 1284 1282 1283
f 1284 1283 1285
f 1292 1290 1291
f 1291 1290 1289
f 1291 1289 1287
f 1287 1289 1288
f 1287 1288 1286
f 1295 1296 1293
f 1292 1291 1293
f 1293 1291 1294
f 1293 1294 1295
f 1296 1297 1293
f 1293 1297 1298
f 1293 1298 1299
f 86 18 20
f 86 88 360
f 360 88 362
f 360 362 545
f 545 362 547
f 545 547 788
f 788 547 790
f 788 790 1283
f 627 655 547
f 794 709 685
f 685 659 549
f 549 659 631
f 549 631 615
f 547 655 790
f 790 655 681
f 790 681 705
f 705 735 790
f 790 735 759
f 790 759 794
f 794 759 739
f 794 739 709
f 386 402 362
f 494 549 547
f 547 549 615
f 547 615 627
f 402 420 362
f 362 420 436
f 362 436 547
f 547 436 458
f 547 458 494
f 494 514 549
f 549 514 498
f 549 498 462
f 462 440 366
f 366 440 424
f 366 424 406
f 88 90 362
f 362 90 366
f 362 366 386
f 386 366 406
f 794 882 906
f 934 910 801
f 801 910 886
f 1283 790 1285
f 1285 790 794
f 1285 794 1287
f 1287 794 906
f 1287 906 930
f 930 970 1287
f 1287 970 980
f 1287 980 1291
f 1291 980 974
f 886 858 801
f 801 858 849
f 801 849 794
f 794 849 854
f 794 854 882
f 311 303 373
f 271 287 90
f 373 303 94
f 307 335 366
f 366 335 343
f 366 343 373
f 373 343 339
f 373 339 311
f 90 287 366
f 366 287 299
f 366 299 307
f 303 291 94
f 94 291 275
f 94 275 90
f 90 275 264
f 90 264 271
f 806 1294 1291
f 553 635 663
f 685 549 794
f 794 549 553
f 794 553 801
f 801 553 663
f 801 663 689
f 689 713 801
f 801 713 743
f 801 743 763
f 974 934 1291
f 1291 934 801
f 1291 801 806
f 806 801 763
f 806 763 747
f 556 639 553
f 553 639 619
f 553 619 635
f 747 717 806
f 806 717 693
f 806 693 556
f 556 693 667
f 556 667 639
f 378 432 414
f 556 470 378
f 378 470 448
f 378 448 432
f 390 410 373
f 373 410 428
f 373 428 444
f 462 366 549
f 549 366 373
f 549 373 553
f 553 373 444
f 553 444 466
f 466 502 553
f 553 502 518
f 553 518 556
f 556 518 506
f 556 506 470
f 94 97 373
f 373 97 378
f 373 378 390
f 390 378 414
f 86 20 88
f 88 20 22
f 88 22 90
f 90 22 26
f 90 26 94
f 94 26 29
f 94 29 97
f 34 33 28
f 28 33 32
f 28 32 31
f 23 24 22
f 22 24 25
f 22 25 26
f 26 25 27
f 26 27 29
f 29 27 28
f 29 28 30
f 30 28 31
f 17 16 19
f 23 22 21
f 21 22 20
f 21 20 19
f 19 20 18
f 19 18 17
f 16 15 19
f 19 15 14
f 19 14 13
f 35 19 13
f 35 13 37
f 118 55 47
f 47 55 51
f 47 51 41
f 41 51 49
f 41 49 13
f 13 49 43
f 13 43 37
f 453 454 381
f 381 454 382
f 381 382 294
f 294 382 295
f 294 295 118
f 118 295 119
f 118 119 55
f 1278 1284 1300
f 1300 1318 1278
f 1278 1318 1324
f 1278 1324 1320
f 1320 1324 1330
f 1320 1330 1328
f 1367 1366 1336
f 1336 1366 1328
f 1336 1328 1332
f 1332 1328 1330
f 1366 1367 1375
f 1366 1375 1374
f 1374 1375 1371
f 1374 1371 1370
f 1370 1371 1363
f 1370 1363 1362
f 1362 1363 1359
f 1362 1359 1358
f 1358 1359 1345
f 1358 1345 1344
f 1344 1345 1311
f 1344 1311 1310
f 1310 1311 1203
f 1310 1203 1202
f 1202 1203 1073
f 1202 1073 1072
f 1072 1073 1047
f 1047 1073 1048
f 1047 1048 1000
f 1048 1001 1000
f 1000 1001 814
f 1000 814 813
f 813 814 651
f 813 651 650
f 650 651 585
f 650 585 584
f 584 585 532
f 584 532 531
f 531 532 454
f 531 454 453
f 1234 1235 1241
f 1241 1235 1243
f 1241 1243 1249
f 1249 1243 1251
f 1249 1251 1257
f 1257 1251 1259
f 1257 1259 1267
f 1267 1259 1269
f 1267 1269 1303
f 1303 1269 1305
f 1303 1305 1314
f 1314 1305 1315
f 1314 1315 1302
f 1302 1315 1304
f 1302 1304 1266
f 1266 1304 1268
f 1266 1268 1256
f 1256 1268 1258
f 1256 1258 1248
f 1248 1258 1250
f 1248 1250 1240
f 1240 1250 1242
f 1240 1242 1234
f 1234 1242 1235
f 1089 1091 1099
f 1099 1091 1103
f 1099 1103 1119
f 1119 1103 1123
f 1119 1123 1141
f 1141 1123 1145
f 1141 1145 1163
f 1163 1145 1167
f 1163 1167 1179
f 1179 1167 1183
f 1179 1183 1195
f 1195 1183 1197
f 1195 1197 1178
f 1178 1197 1182
f 1178 1182 1162
f 1162 1182 1166
f 1162 1166 1140
f 1140 1166 1144
f 1140 1144 1118
f 1118 1144 1122
f 1118 1122 1098
f 1098 1122 1102
f 1098 1102 1089
f 1089 1102 1091
f 826 828 836
f 836 828 840
f 836 840 866
f 866 840 870
f 866 870 892
f 892 870 896
f 892 896 916
f 916 896 920
f 916 920 948
f 948 920 952
f 948 952 962
f 962 952 964
f 962 964 947
f 947 964 951
f 947 951 915
f 915 951 919
f 915 919 891
f 891 919 895
f 891 895 865
f 865 895 869
f 865 869 835
f 835 869 839
f 835 839 826
f 826 839 828
f 600 601 605
f 605 601 607
f 605 607 643
f 643 607 645
f 643 645 673
f 673 645 675
f 673 675 697
f 697 675 699
f 697 699 723
f 723 699 725
f 723 725 730
f 730 725 731
f 730 731 722
f 722 731 724
f 722 724 696
f 696 724 698
f 696 698 672
f 672 698 674
f 672 674 642
f 642 674 644
f 642 644 604
f 604 644 606
f 604 606 600
f 600 606 601
f 825 827 834
f 834 827 838
f 834 838 864
f 864 838 868
f 864 868 890
f 890 868 894
f 890 894 914
f 914 894 918
f 914 918 946
f 946 918 950
f 946 950 961
f 961 950 963
f 961 963 945
f 945 963 949
f 945 949 913
f 913 949 917
f 913 917 889
f 889 917 893
f 889 893 863
f 863 893 867
f 863 867 833
f 833 867 837
f 833 837 825
f 825 837 827
f 1088 1090 1097
f 1097 1090 1101
f 1097 1101 1117
f 1117 1101 1121
f 1117 1121 1139
f 1139 1121 1143
f 1139 1143 1161
f 1161 1143 1165
f 1161 1165 1177
f 1177 1165 1181
f 1177 1181 1194
f 1194 1181 1196
f 1194 1196 1176
f 1176 1196 1180
f 1176 1180 1160
f 1160 1180 1164
f 1160 1164 1138
f 1138 1164 1142
f 1138 1142 1116
f 1116 1142 1120
f 1116 1120 1096
f 1096 1120 1100
f 1096 1100 1088
f 1088 1100 1090
f 1209 1210 1031
f 453 381 477
f 453 477 531
f 531 477 772
f 531 772 584
f 948 962 1031
f 1031 962 947
f 1031 947 915
f 915 891 772
f 772 891 865
f 772 865 835
f 835 826 772
f 772 826 650
f 772 650 584
f 826 836 650
f 650 836 866
f 650 866 813
f 813 866 892
f 813 892 1000
f 1000 892 916
f 1000 916 1047
f 1344 1310 1210
f 1210 1310 1195
f 1210 1195 1178
f 1178 1162 1210
f 1210 1162 1140
f 1210 1140 1031
f 1031 1140 1118
f 1031 1118 1098
f 1141 1163 1310
f 1310 1163 1179
f 1310 1179 1195
f 1098 1089 1031
f 1031 1089 1047
f 1031 1047 948
f 948 1047 916
f 1089 1099 1047
f 1047 1099 1119
f 1047 1119 1072
f 1072 1119 1141
f 1072 1141 1202
f 1202 1141 1310
f 1249 1257 1210
f 1256 1248 1209
f 1257 1362 1210
f 1210 1362 1358
f 1210 1358 1344
f 1248 1240 1209
f 1209 1240 1234
f 1209 1234 1210
f 1210 1234 1241
f 1210 1241 1249
f 1314 1302 1366
f 1366 1302 1266
f 1257 1267 1362
f 1362 1267 1303
f 1362 1303 1370
f 1370 1303 1314
f 1370 1314 1374
f 1374 1314 1366
f 1206 1320 1328
f 474 47 41
f 235 242 474
f 474 242 234
f 170 47 180
f 180 47 474
f 180 474 208
f 208 474 234
f 181 209 475
f 475 209 235
f 170 154 47
f 47 154 148
f 47 148 118
f 118 148 155
f 118 155 171
f 476 294 118
f 772 771 1030
f 722 771 730
f 730 771 772
f 730 772 723
f 723 772 697
f 722 696 771
f 771 696 672
f 771 672 476
f 476 672 642
f 476 642 604
f 604 600 476
f 476 600 477
f 476 477 294
f 294 477 381
f 600 605 477
f 477 605 643
f 477 643 772
f 772 643 673
f 772 673 697
f 1209 1139 1161
f 1176 1208 1194
f 1194 1208 1209
f 1194 1209 1177
f 1177 1209 1161
f 1096 1088 1030
f 1030 1088 1097
f 1030 1097 1117
f 915 772 1031
f 1031 772 1030
f 1031 1030 1209
f 1209 1030 1117
f 1209 1117 1139
f 1176 1160 1208
f 1208 1160 1138
f 1208 1138 1029
f 1029 1138 1116
f 946 961 1030
f 1030 961 1029
f 1030 1029 1096
f 1096 1029 1116
f 889 770 913
f 913 770 1029
f 913 1029 945
f 945 1029 961
f 889 863 770
f 770 863 833
f 770 833 825
f 834 864 771
f 771 864 890
f 771 890 1030
f 1030 890 914
f 1030 914 946
f 171 181 118
f 118 181 475
f 118 475 476
f 476 475 770
f 476 770 771
f 771 770 825
f 771 825 834
f 235 474 475
f 475 474 769
f 475 769 770
f 770 769 1028
f 770 1028 1029
f 1029 1028 1207
f 1029 1207 1208
f 1208 1207 1366
f 1208 1366 1209
f 1209 1366 1266
f 1209 1266 1256
f 41 473 474
f 474 473 768
f 474 768 769
f 769 768 1027
f 769 1027 1028
f 1028 1027 1206
f 1028 1206 1207
f 1207 1206 1328
f 1207 1328 1366
f 454 482 382
f 585 651 777
f 1103 1091 1036
f 1268 1304 1367
f 1269 1259 1215
f 1215 1259 1251
f 1215 1251 1243
f 1235 1242 1214
f 1214 1242 1250
f 1214 1250 1258
f 1367 1304 1375
f 1375 1304 1315
f 1375 1315 1371
f 1371 1315 1305
f 1371 1305 1363
f 1215 1311 1345
f 1305 1269 1363
f 1363 1269 1215
f 1363 1215 1359
f 1359 1215 1345
f 1091 1102 1036
f 1036 1102 1122
f 1036 1122 1215
f 1215 1122 1144
f 1215 1144 1166
f 1311 1167 1203
f 1203 1167 1145
f 1203 1145 1073
f 1073 1145 1123
f 1073 1123 1048
f 1166 1182 1215
f 1215 1182 1197
f 1215 1197 1311
f 1311 1197 1183
f 1311 1183 1167
f 777 869 895
f 896 870 651
f 777 895 1036
f 1036 895 919
f 1036 919 951
f 951 964 1036
f 1036 964 1048
f 1036 1048 1103
f 1103 1048 1123
f 870 840 651
f 651 840 828
f 651 828 777
f 777 828 839
f 777 839 869
f 964 952 1048
f 1048 952 920
f 1048 920 1001
f 1001 920 896
f 1001 896 814
f 814 896 651
f 482 454 777
f 777 454 532
f 777 532 585
f 481 295 382
f 156 172 55
f 55 172 183
f 55 183 479
f 479 183 210
f 479 210 236
f 243 237 480
f 480 237 211
f 480 211 119
f 119 211 184
f 184 173 119
f 119 173 157
f 119 157 55
f 55 157 149
f 55 149 156
f 1212 1336 1332
f 1213 1367 1336
f 51 55 478
f 478 55 479
f 478 479 773
f 773 479 774
f 773 774 1032
f 1032 774 1033
f 1032 1033 1211
f 236 243 479
f 479 243 480
f 479 480 774
f 774 480 775
f 774 775 1033
f 1336 1212 1213
f 1213 1212 1034
f 1213 1034 1120
f 1214 1143 1035
f 1035 1143 1121
f 1121 1101 1035
f 1035 1101 1090
f 1035 1090 1034
f 1034 1090 1100
f 1034 1100 1120
f 1120 1142 1213
f 1213 1142 1164
f 1213 1164 1180
f 1196 1181 1214
f 1214 1181 1165
f 1214 1165 1143
f 1180 1196 1213
f 1213 1196 1214
f 1213 1214 1367
f 1367 1214 1258
f 1367 1258 1268
f 827 837 775
f 775 837 867
f 867 893 775
f 775 893 1034
f 775 1034 1033
f 1033 1034 1212
f 1033 1212 1211
f 1211 1212 1332
f 893 917 1034
f 1034 917 949
f 1034 949 1035
f 1035 949 963
f 868 838 776
f 963 950 1035
f 1035 950 918
f 1035 918 776
f 776 918 894
f 776 894 868
f 119 295 480
f 480 295 481
f 480 481 775
f 775 481 776
f 775 776 827
f 827 776 838
f 731 725 777
f 382 482 481
f 481 482 607
f 481 607 601
f 725 699 777
f 777 699 675
f 777 675 482
f 482 675 645
f 482 645 607
f 698 724 776
f 601 606 481
f 481 606 644
f 481 644 776
f 776 644 674
f 776 674 698
f 1243 1235 1215
f 1215 1235 1214
f 1215 1214 1036
f 1036 1214 1035
f 1036 1035 777
f 777 1035 776
f 777 776 731
f 731 776 724
f 778 1037 1038
f 956 966 1041
f 455 487 533
f 533 487 782
f 533 782 586
f 966 955 1041
f 1041 955 923
f 1041 923 782
f 923 899 782
f 782 899 873
f 782 873 843
f 843 830 782
f 782 830 652
f 782 652 586
f 830 844 652
f 652 844 874
f 652 874 815
f 815 874 900
f 815 900 1002
f 1002 900 924
f 1002 924 1049
f 1199 1186 1220
f 1186 1170 1220
f 1220 1170 1148
f 1220 1148 1041
f 1041 1148 1126
f 1041 1126 1106
f 1106 1093 1041
f 1041 1093 1049
f 1041 1049 956
f 956 1049 924
f 1149 1171 1312
f 1312 1171 1187
f 1093 1107 1049
f 1049 1107 1127
f 1049 1127 1074
f 1074 1127 1149
f 1074 1149 1204
f 1204 1149 1312
f 1187 1199 1312
f 1312 1199 1220
f 1312 1220 1346
f 1346 1220 1360
f 1348 1356 1349
f 1349 1356 1368
f 1349 1368 1350
f 1350 1368 1376
f 1350 1376 1351
f 1351 1376 1372
f 1351 1372 1364
f 1348 1218 1217
f 1348 1217 1337
f 1337 1217 1216
f 1337 1216 1333
f 483 484 52
f 52 484 56
f 484 244 238
f 174 56 194
f 194 56 484
f 194 484 212
f 212 484 238
f 120 175 195
f 174 158 56
f 56 158 150
f 56 150 120
f 120 150 159
f 120 159 175
f 244 484 239
f 239 484 485
f 239 485 213
f 455 383 487
f 487 383 296
f 487 296 486
f 486 296 120
f 486 120 485
f 485 120 195
f 485 195 213
f 897 871 780
f 922 954 1040
f 1040 954 965
f 1040 965 1039
f 1039 965 953
f 1039 953 921
f 778 1038 779
f 779 1038 1039
f 779 1039 780
f 780 1039 921
f 780 921 897
f 922 1040 898
f 898 1040 781
f 898 781 872
f 871 841 780
f 780 841 829
f 780 829 781
f 781 829 842
f 781 842 872
f 1218 1168 1146
f 1146 1039 1218
f 1218 1039 1038
f 1218 1038 1217
f 1217 1038 1037
f 1217 1037 1216
f 1169 1185 1219
f 1219 1185 1198
f 1219 1198 1218
f 1218 1198 1184
f 1218 1184 1168
f 1146 1124 1039
f 1039 1124 1104
f 1039 1104 1040
f 1040 1104 1092
f 1092 1105 1040
f 1040 1105 1125
f 1040 1125 1219
f 1219 1125 1147
f 1219 1147 1169
f 676 486 781
f 781 486 485
f 781 485 780
f 780 485 484
f 780 484 779
f 779 484 483
f 779 483 778
f 677 701 782
f 782 701 727
f 732 726 781
f 781 726 700
f 781 700 676
f 677 782 647
f 647 782 487
f 647 487 609
f 676 646 486
f 486 646 608
f 486 608 487
f 487 608 602
f 487 602 609
f 1236 1245 1220
f 1220 1245 1253
f 1350 1306 1270
f 1260 1252 1219
f 1219 1252 1244
f 1253 1261 1220
f 1220 1261 1351
f 1220 1351 1360
f 1360 1351 1364
f 1261 1271 1351
f 1351 1271 1307
f 1351 1307 1350
f 1350 1307 1316
f 1350 1316 1306
f 1348 1349 1218
f 1218 1349 1350
f 1218 1350 1219
f 1219 1350 1270
f 1219 1270 1260
f 1244 1236 1219
f 1219 1236 1220
f 1219 1220 1040
f 1040 1220 1041
f 1040 1041 781
f 781 1041 782
f 781 782 732
f 732 782 727
f 34 28 36
f 36 38 34
f 34 38 44
f 34 44 42
f 42 44 50
f 42 50 48
f 455 456 383
f 383 456 384
f 383 384 296
f 296 384 297
f 296 297 120
f 120 297 121
f 120 121 56
f 56 121 48
f 56 48 52
f 52 48 50
f 456 455 533
f 456 533 534
f 534 533 586
f 534 586 587
f 587 586 652
f 587 652 653
f 653 652 815
f 653 815 816
f 816 815 1002
f 816 1002 1003
f 1003 1002 1050
f 1050 1002 1049
f 1050 1049 1075
f 1049 1074 1075
f 1075 1074 1204
f 1075 1204 1205
f 1205 1204 1312
f 1205 1312 1313
f 1313 1312 1346
f 1313 1346 1347
f 1347 1346 1360
f 1347 1360 1361
f 1361 1360 1364
f 1361 1364 1365
f 1365 1364 1372
f 1365 1372 1373
f 1373 1372 1376
f 1373 1376 1377
f 1377 1376 1368
f 1377 1368 1369
f 1301 1293 1299
f 1301 1299 1319
f 1369 1368 1357
f 1357 1368 1356
f 1357 1356 1352
f 1356 1348 1352
f 1352 1348 1337
f 1352 1337 1329
f 1329 1337 1333
f 1329 1333 1321
f 1321 1333 1331
f 1321 1331 1299
f 1299 1331 1325
f 1299 1325 1319
f 1317 1316 1309
f 1309 1316 1307
f 1309 1307 1273
f 1273 1307 1271
f 1273 1271 1263
f 1263 1271 1261
f 1263 1261 1255
f 1255 1261 1253
f 1255 1253 1247
f 1247 1253 1245
f 1247 1245 1237
f 1237 1245 1236
f 1237 1236 1246
f 1246 1236 1244
f 1246 1244 1254
f 1254 1244 1252
f 1254 1252 1262
f 1262 1252 1260
f 1262 1260 1272
f 1272 1260 1270
f 1272 1270 1308
f 1308 1270 1306
f 1308 1306 1317
f 1317 1306 1316
f 1200 1198 1189
f 1189 1198 1185
f 1189 1185 1173
f 1173 1185 1169
f 1173 1169 1151
f 1151 1169 1147
f 1151 1147 1129
f 1129 1147 1125
f 1129 1125 1109
f 1109 1125 1105
f 1109 1105 1094
f 1094 1105 1092
f 1094 1092 1108
f 1108 1092 1104
f 1108 1104 1128
f 1128 1104 1124
f 1128 1124 1150
f 1150 1124 1146
f 1150 1146 1172
f 1172 1146 1168
f 1172 1168 1188
f 1188 1168 1184
f 1188 1184 1200
f 1200 1184 1198
f 967 965 958
f 958 965 954
f 958 954 926
f 926 954 922
f 926 922 902
f 902 922 898
f 902 898 876
f 876 898 872
f 876 872 846
f 846 872 842
f 846 842 831
f 831 842 829
f 831 829 845
f 845 829 841
f 845 841 875
f 875 841 871
f 875 871 901
f 901 871 897
f 901 897 925
f 925 897 921
f 925 921 957
f 957 921 953
f 957 953 967
f 967 953 965
f 733 732 729
f 729 732 727
f 729 727 703
f 703 727 701
f 703 701 679
f 679 701 677
f 679 677 649
f 649 677 647
f 649 647 611
f 611 647 609
f 611 609 603
f 603 609 602
f 603 602 610
f 610 602 608
f 610 608 648
f 648 608 646
f 648 646 678
f 678 646 676
f 678 676 702
f 702 676 700
f 702 700 728
f 728 700 726
f 728 726 733
f 733 726 732
f 968 966 960
f 960 966 956
f 960 956 928
f 928 956 924
f 928 924 904
f 904 924 900
f 904 900 878
f 878 900 874
f 878 874 848
f 848 874 844
f 848 844 832
f 832 844 830
f 832 830 847
f 847 830 843
f 847 843 877
f 877 843 873
f 877 873 903
f 903 873 899
f 903 899 927
f 927 899 923
f 927 923 959
f 959 923 955
f 959 955 968
f 968 955 966
f 1201 1199 1191
f 1191 1199 1187
f 1191 1187 1175
f 1175 1187 1171
f 1175 1171 1153
f 1153 1171 1149
f 1153 1149 1131
f 1131 1149 1127
f 1131 1127 1111
f 1111 1127 1107
f 1111 1107 1095
f 1095 1107 1093
f 1095 1093 1110
f 1110 1093 1106
f 1110 1106 1130
f 1130 1106 1126
f 1130 1126 1152
f 1152 1126 1148
f 1152 1148 1174
f 1174 1148 1170
f 1174 1170 1190
f 1190 1170 1186
f 1190 1186 1201
f 1201 1186 1199
f 1357 1353 1369
f 1369 1353 1354
f 1369 1354 1377
f 1377 1354 1373
f 1225 1347 1355
f 1355 1347 1361
f 1355 1361 1365
f 1111 1095 1046
f 1046 1095 1110
f 1130 1152 1225
f 1225 1152 1174
f 1225 1174 1190
f 1190 1201 1225
f 1225 1201 1313
f 1225 1313 1347
f 1201 1191 1313
f 1313 1191 1175
f 1313 1175 1205
f 1205 1175 1153
f 1205 1153 1075
f 1075 1153 1131
f 1075 1131 1050
f 904 878 653
f 903 927 1046
f 1046 927 959
f 959 968 1046
f 1046 968 1050
f 1046 1050 1111
f 1111 1050 1131
f 878 848 653
f 653 848 832
f 653 832 787
f 787 832 847
f 787 847 877
f 968 960 1050
f 1050 960 928
f 1050 928 1003
f 1003 928 904
f 1003 904 816
f 816 904 653
f 456 534 787
f 787 534 587
f 787 587 653
f 241 215 490
f 48 160 176
f 196 214 489
f 489 214 240
f 489 240 245
f 456 492 384
f 384 492 491
f 384 491 297
f 297 491 490
f 297 490 121
f 121 490 215
f 121 215 197
f 197 177 121
f 121 177 161
f 121 161 48
f 48 161 151
f 48 151 160
f 488 42 48
f 1352 1329 1222
f 1222 1329 1321
f 703 679 787
f 648 678 786
f 786 678 702
f 456 787 492
f 492 787 679
f 492 679 649
f 610 491 603
f 603 491 492
f 603 492 611
f 611 492 649
f 702 728 786
f 786 728 733
f 786 733 787
f 787 733 729
f 787 729 703
f 877 903 787
f 787 903 1046
f 787 1046 786
f 786 1046 1045
f 1254 1262 1354
f 1354 1262 1272
f 1354 1272 1308
f 1308 1317 1354
f 1354 1317 1355
f 1354 1355 1373
f 1373 1355 1365
f 1317 1309 1355
f 1355 1309 1273
f 1355 1273 1225
f 1225 1273 1263
f 1225 1263 1255
f 1255 1247 1225
f 1225 1247 1237
f 1225 1237 1224
f 1224 1237 1246
f 610 648 491
f 491 648 786
f 491 786 490
f 490 786 785
f 785 875 901
f 785 901 1044
f 876 846 786
f 786 846 831
f 786 831 785
f 785 831 845
f 785 845 875
f 967 1045 957
f 957 1045 1044
f 957 1044 925
f 925 1044 901
f 967 958 1045
f 1045 958 926
f 1045 926 786
f 786 926 902
f 786 902 876
f 1044 1128 1223
f 1223 1128 1150
f 1223 1150 1172
f 1151 1129 1045
f 1129 1109 1045
f 1045 1109 1094
f 1045 1094 1044
f 1044 1094 1108
f 1044 1108 1128
f 1172 1188 1223
f 1223 1188 1200
f 1223 1200 1224
f 1224 1200 1189
f 1224 1189 1173
f 1173 1151 1224
f 1224 1151 1045
f 1224 1045 1225
f 1225 1045 1046
f 1225 1046 1130
f 1130 1046 1110
f 1246 1254 1224
f 1224 1254 1354
f 1224 1354 1223
f 1223 1354 1353
f 1223 1353 1352
f 1352 1353 1357
f 1352 1222 1223
f 1223 1222 1043
f 1223 1043 1044
f 1044 1043 784
f 1044 784 785
f 785 784 489
f 785 489 490
f 490 489 245
f 490 245 241
f 1321 1221 1222
f 1222 1221 1042
f 1222 1042 1043
f 1043 1042 783
f 1043 783 784
f 784 783 488
f 784 488 489
f 489 488 48
f 489 48 196
f 196 48 176
f 1211 1332 1330
f 1284 1020 1300
f 1300 1020 789
f 1300 789 546
f 546 361 35
f 35 361 87
f 35 87 19
f 546 35 1300
f 1300 35 37
f 1300 37 1318
f 1318 37 43
f 1318 43 1324
f 1324 43 49
f 1324 49 1330
f 51 478 49
f 49 478 773
f 49 773 1330
f 1330 773 1032
f 1330 1032 1211
f 1026 1293 1301
f 483 52 50
f 1333 1216 1331
f 1331 1216 1037
f 1331 1037 778
f 483 50 778
f 778 50 1331
f 1331 50 44
f 1331 44 1325
f 1325 44 38
f 1325 38 1319
f 1319 38 36
f 1319 36 1301
f 36 28 96
f 96 376 36
f 36 376 555
f 36 555 1301
f 1301 555 804
f 1301 804 1026
f 788 1283 1282
f 1320 1206 1278
f 1278 1206 1027
f 1278 1027 1279
f 1279 1027 768
f 1279 768 473
f 18 86 17
f 17 86 360
f 17 360 545
f 41 13 473
f 473 13 14
f 473 14 1279
f 1279 14 15
f 1279 15 1280
f 1280 15 16
f 1280 16 1281
f 1281 16 17
f 1281 17 1282
f 1282 17 545
f 1282 545 788
f 1221 1321 1299
f 34 42 33
f 33 42 488
f 1221 1299 1042
f 1042 1299 1298
f 1042 1298 783
f 1294 806 1295
f 1295 806 556
f 556 378 30
f 30 378 97
f 30 97 29
f 556 30 1295
f 1295 30 31
f 1295 31 1296
f 1296 31 32
f 1296 32 1297
f 1297 32 33
f 1297 33 1298
f 1298 33 488
f 1298 488 783
f 759 761 739
f 739 761 741
f 739 741 709
f 709 741 711
f 709 711 685
f 685 711 687
f 685 687 659
f 659 687 661
f 659 661 631
f 631 661 633
f 631 633 615
f 615 633 617
f 615 617 627
f 627 617 629
f 627 629 655
f 655 629 657
f 655 657 681
f 681 657 683
f 681 683 705
f 705 683 707
f 705 707 735
f 735 707 737
f 735 737 759
f 759 737 761
f 514 516 498
f 498 516 500
f 498 500 462
f 462 500 464
f 462 464 440
f 440 464 442
f 440 442 424
f 424 442 426
f 424 426 406
f 406 426 408
f 406 408 386
f 386 408 388
f 386 388 402
f 402 388 404
f 402 404 420
f 420 404 422
f 420 422 436
f 436 422 438
f 436 438 458
f 458 438 460
f 458 460 494
f 494 460 496
f 494 496 514
f 514 496 516
f 343 345 339
f 339 345 341
f 339 341 311
f 311 341 313
f 311 313 303
f 303 313 305
f 303 305 291
f 291 305 293
f 291 293 275
f 275 293 277
f 275 277 264
f 264 277 265
f 264 265 271
f 271 265 273
f 271 273 287
f 287 273 289
f 287 289 299
f 299 289 301
f 299 301 307
f 307 301 309
f 307 309 335
f 335 309 337
f 335 337 343
f 343 337 345
f 518 520 506
f 506 520 508
f 506 508 470
f 470 508 472
f 470 472 448
f 448 472 450
f 448 450 432
f 432 450 434
f 432 434 414
f 414 434 416
f 414 416 390
f 390 416 392
f 390 392 410
f 410 392 412
f 410 412 428
f 428 412 430
f 428 430 444
f 444 430 446
f 444 446 466
f 466 446 468
f 466 468 502
f 502 468 504
f 502 504 518
f 518 504 520
f 763 765 747
f 747 765 749
f 747 749 717
f 717 749 719
f 717 719 693
f 693 719 695
f 693 695 667
f 667 695 669
f 667 669 639
f 639 669 641
f 639 641 619
f 619 641 621
f 619 621 635
f 635 621 637
f 635 637 663
f 663 637 665
f 663 665 689
f 689 665 691
f 689 691 713
f 713 691 715
f 713 715 743
f 743 715 745
f 743 745 763
f 763 745 765
f 980 982 974
f 974 982 976
f 974 976 934
f 934 976 936
f 934 936 910
f 910 936 912
f 910 912 886
f 886 912 888
f 886 888 858
f 858 888 860
f 858 860 849
f 849 860 850
f 849 850 854
f 854 850 856
f 854 856 882
f 882 856 884
f 882 884 906
f 906 884 908
f 906 908 930
f 930 908 932
f 930 932 970
f 970 932 972
f 970 972 980
f 980 972 982
f 1066 1068 1067
f 1067 1068 1069
f 1068 1082 1069
f 1069 1082 1083
f 1082 1066 1083
f 1083 1066 1067
f 1066 1084 1068
f 245 244 241
f 241 244 239
f 241 239 215
f 215 239 213
f 215 213 197
f 197 213 195
f 197 195 177
f 177 195 175
f 177 175 161
f 161 175 159
f 161 159 151
f 151 159 150
f 151 150 160
f 160 150 158
f 160 158 176
f 176 158 174
f 176 174 196
f 196 174 194
f 196 194 214
f 214 194 212
f 214 212 240
f 240 212 238
f 240 238 245
f 245 238 244
f 243 242 237
f 237 242 235
f 237 235 211
f 211 235 209
f 211 209 184
f 184 209 181
f 184 181 173
f 173 181 171
f 173 171 157
f 157 171 155
f 157 155 149
f 149 155 148
f 149 148 156
f 156 148 154
f 156 154 172
f 172 154 170
f 172 170 183
f 183 170 180
f 183 180 210
f 210 180 208
f 210 208 236
f 236 208 234
f 236 234 243
f 243 234 242
f 1086 1136 1134
f 1134 1136 1158
f 1134 1158 1154
f 1154 1158 1156
f 1154 1156 1132
f 1132 1156 1114
f 1132 1114 1078
f 1078 1114 1076
f 1078 1076 1057
f 1057 1076 1051
f 1057 1051 1016
f 1016 1051 998
f 1016 998 984
f 984 998 879
f 984 879 809
f 809 879 720
f 809 720 622
f 622 720 588
f 622 588 576
f 576 588 537
f 576 537 509
f 509 537 417
f 509 417 354
f 354 417 314
f 354 314 260
f 260 314 206
f 260 206 144
f 144 206 130
f 144 130 122
f 122 130 98
f 122 98 82
f 82 98 76
f 82 76 72
f 72 76 61
f 72 61 65
f 65 61 59
f 65 59 74
f 74 59 70
f 74 70 84
f 84 70 80
f 84 80 124
f 124 80 126
f 124 126 146
f 146 126 152
f 146 152 262
f 262 152 268
f 262 268 356
f 356 268 358
f 356 358 511
f 511 358 521
f 511 521 567
f 567 521 560
f 567 560 624
f 624 560 612
f 624 612 811
f 811 612 807
f 811 807 986
f 986 807 977
f 986 977 1018
f 1018 977 1014
f 1018 1014 1059
f 1059 1014 1055
f 1059 1055 1080
f 1080 1055 1086
f 1080 1086 1134
f 568 613 612
f 612 613 808
f 612 808 807
f 807 808 978
f 807 978 977
f 977 978 1015
f 977 1015 1014
f 1014 1015 1056
f 1014 1056 1055
f 1055 1056 1087
f 1055 1087 1086
f 1086 1087 1137
f 1086 1137 1136
f 1136 1137 1159
f 1136 1159 1158
f 1158 1159 1157
f 1158 1157 1156
f 1156 1157 1115
f 1156 1115 1114
f 1114 1115 1077
f 1114 1077 1076
f 1076 1077 1052
f 1076 1052 1051
f 1051 1052 999
f 1051 999 998
f 998 999 880
f 998 880 879
f 879 880 721
f 879 721 720
f 720 721 589
f 720 589 588
f 588 589 538
f 588 538 537
f 537 538 418
f 537 418 417
f 417 418 315
f 417 315 314
f 314 315 207
f 314 207 206
f 206 207 131
f 206 131 130
f 130 131 99
f 130 99 98
f 98 99 77
f 98 77 76
f 76 77 62
f 76 62 61
f 61 62 60
f 61 60 59
f 59 60 71
f 59 71 70
f 70 71 81
f 70 81 80
f 80 81 127
f 80 127 126
f 126 127 153
f 126 153 152
f 152 153 269
f 152 269 268
f 268 269 359
f 268 359 358
f 358 359 522
f 358 522 521
f 521 522 569
f 521 569 568
f 568 569 613
f 559 558 625
f 625 558 624
f 625 624 812
f 812 624 811
f 812 811 987
f 987 811 986
f 987 986 1019
f 1019 986 1018
f 1019 1018 1060
f 1060 1018 1059
f 1060 1059 1081
f 1081 1059 1080
f 1081 1080 1135
f 1135 1080 1134
f 1135 1134 1155
f 1155 1134 1154
f 1155 1154 1133
f 1133 1154 1132
f 1133 1132 1079
f 1079 1132 1078
f 1079 1078 1058
f 1058 1078 1057
f 1058 1057 1017
f 1017 1057 1016
f 1017 1016 985
f 985 1016 984
f 985 984 810
f 810 984 809
f 810 809 623
f 623 809 622
f 623 622 577
f 577 622 576
f 577 576 510
f 510 576 509
f 510 509 355
f 355 509 354
f 355 354 261
f 261 354 260
f 261 260 145
f 145 260 144
f 145 144 123
f 123 144 122
f 123 122 83
f 83 122 82
f 83 82 73
f 73 82 72
f 73 72 66
f 66 72 65
f 66 65 75
f 75 65 74
f 75 74 85
f 85 74 84
f 85 84 125
f 125 84 124
f 125 124 147
f 147 124 146
f 147 146 263
f 263 146 262
f 263 262 357
f 357 262 356
f 357 356 512
f 512 356 511
f 512 511 559
f 559 511 558
f 399 431 352
f 352 431 413
f 389 409 372
f 409 427 372
f 372 427 443
f 372 443 583
f 583 443 465
f 583 465 501
f 501 517 561
f 561 517 505
f 561 505 529
f 529 505 469
f 529 469 399
f 399 469 447
f 399 447 431
f 228 202 232
f 232 202 204
f 232 204 233
f 413 389 352
f 352 389 372
f 352 372 284
f 284 372 233
f 284 233 230
f 230 233 204
f 423 405 365
f 419 435 397
f 397 435 581
f 397 581 527
f 513 497 582
f 582 497 461
f 582 461 365
f 365 461 439
f 365 439 423
f 419 397 401
f 401 397 350
f 401 350 385
f 435 457 581
f 581 457 493
f 581 493 513
f 228 232 282
f 282 232 365
f 282 365 350
f 350 365 405
f 350 405 385
f 750 592 581
f 581 592 574
f 581 574 527
f 758 738 793
f 513 582 581
f 581 582 630
f 581 630 614
f 734 817 704
f 704 817 750
f 738 708 793
f 793 708 684
f 793 684 582
f 582 684 658
f 582 658 630
f 614 626 581
f 581 626 654
f 581 654 750
f 750 654 680
f 750 680 704
f 734 758 817
f 817 758 793
f 817 793 937
f 937 793 990
f 909 885 800
f 800 885 857
f 851 853 793
f 793 853 881
f 793 881 990
f 881 905 990
f 990 905 929
f 990 929 1004
f 933 992 973
f 973 992 1006
f 973 1006 979
f 979 1006 1004
f 979 1004 969
f 969 1004 929
f 933 909 992
f 992 909 800
f 992 800 939
f 939 800 819
f 688 800 662
f 662 800 583
f 662 583 634
f 752 819 746
f 501 561 583
f 583 561 618
f 583 618 634
f 688 712 800
f 800 712 742
f 800 742 819
f 819 742 762
f 819 762 746
f 746 716 752
f 752 716 692
f 752 692 594
f 594 692 666
f 594 666 561
f 561 666 638
f 561 638 618
f 342 338 372
f 372 338 310
f 372 310 233
f 233 310 302
f 233 302 290
f 857 851 800
f 800 851 793
f 800 793 583
f 583 793 582
f 583 582 372
f 372 582 365
f 372 365 342
f 342 365 334
f 270 232 266
f 266 232 233
f 266 233 274
f 274 233 290
f 270 286 232
f 232 286 298
f 232 298 365
f 365 298 306
f 365 306 334
f 563 595 594
f 594 595 753
f 594 753 752
f 752 753 820
f 752 820 819
f 819 820 940
f 819 940 939
f 939 940 993
f 939 993 992
f 992 993 1007
f 992 1007 1006
f 1006 1007 1005
f 1006 1005 1004
f 1004 1005 991
f 1004 991 990
f 990 991 938
f 990 938 937
f 937 938 818
f 937 818 817
f 817 818 751
f 817 751 750
f 750 751 593
f 750 593 592
f 592 593 575
f 592 575 574
f 574 575 528
f 574 528 527
f 527 528 398
f 527 398 397
f 397 398 351
f 397 351 350
f 350 351 283
f 350 283 282
f 282 283 229
f 282 229 228
f 228 229 203
f 228 203 202
f 202 203 205
f 202 205 204
f 204 205 231
f 204 231 230
f 230 231 285
f 230 285 284
f 284 285 353
f 284 353 352
f 352 353 400
f 352 400 399
f 399 400 530
f 399 530 529
f 529 530 564
f 529 564 563
f 563 564 595
f 993 996 1007
f 1007 996 1010
f 1007 1010 1005
f 1005 1010 1008
f 1005 1008 991
f 991 1008 994
f 991 994 938
f 938 994 941
f 938 941 818
f 818 941 821
f 818 821 751
f 751 821 754
f 751 754 593
f 593 754 596
f 593 596 580
f 580 596 578
f 580 578 528
f 528 578 523
f 528 523 398
f 398 523 393
f 398 393 351
f 351 393 346
f 351 346 283
f 283 346 278
f 283 278 229
f 229 278 216
f 229 216 203
f 203 216 198
f 203 198 205
f 205 198 200
f 205 200 231
f 231 200 218
f 231 218 285
f 285 218 280
f 285 280 353
f 353 280 348
f 353 348 400
f 400 348 395
f 400 395 530
f 530 395 525
f 530 525 564
f 564 525 562
f 564 562 595
f 595 562 598
f 595 598 753
f 753 598 756
f 753 756 820
f 820 756 823
f 820 823 940
f 940 823 943
f 940 943 993
f 993 943 996
f 565 599 598
f 598 599 757
f 598 757 756
f 756 757 824
f 756 824 823
f 823 824 944
f 823 944 943
f 943 944 997
f 943 997 996
f 996 997 1011
f 996 1011 1010
f 1010 1011 1009
f 1010 1009 1008
f 1008 1009 995
f 1008 995 994
f 994 995 942
f 994 942 941
f 941 942 822
f 941 822 821
f 821 822 755
f 821 755 754
f 754 755 597
f 754 597 596
f 596 597 573
f 596 573 572
f 572 573 524
f 572 524 523
f 523 524 394
f 523 394 393
f 393 394 347
f 393 347 346
f 346 347 279
f 346 279 278
f 278 279 217
f 278 217 216
f 216 217 199
f 216 199 198
f 198 199 201
f 198 201 200
f 200 201 219
f 200 219 218
f 218 219 281
f 218 281 280
f 280 281 349
f 280 349 348
f 348 349 396
f 348 396 395
f 395 396 526
f 395 526 525
f 525 526 566
f 525 566 565
f 565 566 599
f 349 263 396
f 396 263 357
f 396 357 526
f 526 357 512
f 526 512 566
f 566 512 559
f 566 559 599
f 599 559 625
f 599 625 757
f 199 66 201
f 201 66 75
f 201 75 219
f 219 75 85
f 219 85 281
f 281 85 125
f 281 125 349
f 349 125 147
f 349 147 263
f 394 261 347
f 347 261 145
f 347 145 279
f 279 145 123
f 279 123 217
f 217 123 83
f 217 83 199
f 199 83 73
f 199 73 66
f 822 985 755
f 755 985 810
f 755 810 597
f 597 810 623
f 597 623 579
f 579 623 577
f 579 577 524
f 524 577 510
f 524 510 394
f 394 510 355
f 394 355 261
f 1011 1155 1009
f 1009 1155 1133
f 1009 1133 995
f 995 1133 1079
f 995 1079 942
f 942 1079 1058
f 942 1058 822
f 822 1058 1017
f 822 1017 985
f 625 812 757
f 757 812 987
f 757 987 824
f 824 987 1019
f 824 1019 944
f 944 1019 1060
f 944 1060 997
f 997 1060 1081
f 997 1081 1011
f 1011 1081 1135
f 1011 1135 1155
f 54 79 63
f 129 255 364
f 1239 1193 1065
f 671 544 805
f 1193 1071 1065
f 1065 1071 1013
f 1065 1013 805
f 805 1013 862
f 805 862 671
f 1064 1335 1323
f 1229 1231 1064
f 1335 1064 1341
f 1341 1064 1231
f 1341 1231 1277
f 1233 1265 1061
f 1061 1265 1327
f 1061 1327 1339
f 686 710 792
f 792 710 740
f 792 740 760
f 686 792 660
f 660 792 540
f 660 540 632
f 760 989 792
f 792 989 1054
f 792 1054 1061
f 1061 1054 1113
f 1061 1113 1233
f 760 736 989
f 989 736 706
f 989 706 767
f 767 706 682
f 767 682 591
f 591 682 656
f 591 656 539
f 539 656 628
f 539 628 540
f 540 628 616
f 540 616 632
f 539 459 536
f 536 459 437
f 421 255 437
f 437 255 380
f 437 380 536
f 463 540 441
f 441 540 364
f 441 364 425
f 463 499 540
f 540 499 515
f 540 515 539
f 539 515 495
f 539 495 459
f 421 403 255
f 255 403 387
f 255 387 364
f 364 387 407
f 364 407 425
f 54 63 40
f 12 8 68
f 68 8 4
f 68 4 67
f 67 4 2
f 67 2 64
f 64 2 6
f 64 6 63
f 63 6 10
f 63 10 40
f 179 101 69
f 69 101 58
f 69 58 68
f 68 58 46
f 68 46 12
f 671 571 544
f 544 571 452
f 544 452 377
f 377 452 333
f 377 333 179
f 971 931 1062
f 1062 931 907
f 1062 907 796
f 796 907 883
f 796 883 855
f 1063 799 911
f 852 859 799
f 799 859 887
f 799 887 911
f 911 935 1063
f 1063 935 975
f 1063 975 1062
f 1062 975 981
f 1062 981 971
f 803 690 543
f 543 690 664
f 664 636 543
f 543 636 620
f 543 620 544
f 764 744 803
f 803 744 714
f 803 714 690
f 805 718 748
f 620 640 544
f 544 640 668
f 544 668 805
f 805 668 694
f 805 694 718
f 1323 1239 1064
f 1064 1239 1065
f 1064 1065 803
f 803 1065 805
f 803 805 764
f 764 805 748
f 368 364 541
f 541 364 540
f 541 540 796
f 796 540 792
f 796 792 1062
f 1062 792 1061
f 1062 1061 1227
f 1227 1061 1339
f 1227 1339 1277
f 1277 1339 1343
f 1277 1343 1341
f 1227 1228 1062
f 1062 1228 1229
f 1062 1229 1063
f 1063 1229 1064
f 1063 1064 799
f 799 1064 803
f 799 803 542
f 542 803 543
f 542 543 371
f 371 543 375
f 375 445 429
f 471 507 544
f 445 375 467
f 467 375 543
f 467 543 503
f 544 507 543
f 543 507 519
f 543 519 503
f 471 544 449
f 449 544 377
f 449 377 433
f 429 411 375
f 375 411 391
f 375 391 377
f 377 391 415
f 377 415 433
f 344 336 368
f 368 336 308
f 368 308 300
f 312 340 371
f 300 64 368
f 368 64 63
f 368 63 364
f 364 63 79
f 364 79 129
f 267 67 272
f 272 67 64
f 272 64 288
f 288 64 300
f 340 344 371
f 371 344 368
f 371 368 542
f 542 368 541
f 542 541 799
f 799 541 796
f 799 796 852
f 852 796 855
f 267 276 67
f 67 276 292
f 67 292 304
f 179 69 377
f 377 69 68
f 377 68 375
f 375 68 67
f 375 67 371
f 371 67 304
f 371 304 312
f 591 539 535
f 539 536 535
f 535 536 380
f 535 380 379
f 379 380 255
f 379 255 254
f 254 255 129
f 254 129 128
f 128 129 79
f 128 79 78
f 78 79 54
f 78 54 53
f 53 54 40
f 53 40 39
f 39 40 10
f 39 10 9
f 9 10 6
f 9 6 5
f 5 6 2
f 5 2 1
f 1 2 4
f 1 4 3
f 3 4 8
f 3 8 7
f 7 8 12
f 7 12 11
f 11 12 46
f 11 46 45
f 45 46 58
f 45 58 57
f 57 58 101
f 57 101 100
f 100 101 179
f 100 179 178
f 178 179 333
f 178 333 332
f 332 333 452
f 332 452 451
f 451 452 571
f 451 571 570
f 570 571 671
f 570 671 670
f 670 671 862
f 670 862 861
f 861 862 1013
f 861 1013 1012
f 1012 1013 1071
f 1012 1071 1070
f 1070 1071 1193
f 1070 1193 1192
f 1192 1193 1239
f 1192 1239 1238
f 1238 1239 1323
f 1238 1323 1322
f 1322 1323 1335
f 1322 1335 1334
f 1334 1335 1341
f 1334 1341 1340
f 1340 1341 1343
f 1340 1343 1342
f 1342 1343 1339
f 1342 1339 1338
f 1338 1339 1327
f 1338 1327 1326
f 1326 1327 1265
f 1326 1265 1264
f 1264 1265 1233
f 1264 1233 1232
f 1232 1233 1113
f 1232 1113 1112
f 1112 1113 1054
f 1112 1054 1053
f 1053 1054 989
f 1053 989 988
f 988 989 767
f 988 767 766
f 766 767 591
f 766 591 590
f 590 591 535
f 62 1 60
f 60 1 3
f 60 3 71
f 71 3 7
f 71 7 81
f 81 7 11
f 81 11 127
f 127 11 45
f 127 45 153
f 153 45 57
f 153 57 269
f 57 100 269
f 269 100 178
f 269 178 359
f 359 178 332
f 359 332 522
f 522 332 451
f 522 451 569
f 569 451 557
f 569 557 613
f 613 557 670
f 613 670 808
f 670 861 808
f 808 861 1012
f 808 1012 978
f 978 1012 1070
f 978 1070 1015
f 1015 1070 1192
f 1015 1192 1056
f 1056 1192 1238
f 1056 1238 1087
f 1087 1238 1322
f 1087 1322 1137
f 1137 1322 1334
f 1137 1334 1159
f 315 128 207
f 207 128 78
f 207 78 131
f 131 78 53
f 131 53 99
f 99 53 39
f 99 39 77
f 77 39 9
f 77 9 62
f 62 9 5
f 62 5 1
f 999 1053 880
f 880 1053 988
f 880 988 721
f 721 988 766
f 721 766 589
f 589 766 590
f 589 590 538
f 538 590 535
f 538 535 418
f 418 535 379
f 418 379 315
f 315 379 254
f 315 254 128
f 1334 1340 1159
f 1159 1340 1342
f 1159 1342 1157
f 1157 1342 1338
f 1157 1338 1115
f 1115 1338 1326
f 1115 1326 1077
f 1077 1326 1264
f 1077 1264 1052
f 1052 1264 1232
f 1052 1232 999
f 999 1232 1112
f 999 1112 1053
f 680 682 704
f 704 682 706
f 704 706 734
f 734 706 736
f 734 736 758
f 758 736 760
f 758 760 738
f 738 760 740
f 738 740 708
f 708 740 710
f 708 710 684
f 684 710 686
f 684 686 658
f 658 686 660
f 658 660 630
f 630 660 632
f 630 632 614
f 614 632 616
f 614 616 626
f 626 616 628
f 626 628 654
f 654 628 656
f 654 656 680
f 680 656 682
f 905 907 929
f 929 907 931
f 929 931 969
f 969 931 971
f 969 971 979
f 979 971 981
f 979 981 973
f 973 981 975
f 973 975 933
f 933 975 935
f 933 935 909
f 909 935 911
f 909 911 885
f 885 911 887
f 885 887 857
f 857 887 859
f 857 859 851
f 851 859 852
f 851 852 853
f 853 852 855
f 853 855 881
f 881 855 883
f 881 883 905
f 905 883 907
f 688 690 712
f 712 690 714
f 712 714 742
f 742 714 744
f 742 744 762
f 762 744 764
f 762 764 746
f 746 764 748
f 746 748 716
f 716 748 718
f 716 718 692
f 692 718 694
f 692 694 666
f 666 694 668
f 666 668 638
f 638 668 640
f 638 640 618
f 618 640 620
f 618 620 634
f 634 620 636
f 634 636 662
f 662 636 664
f 662 664 688
f 688 664 690
f 443 445 465
f 465 445 467
f 465 467 501
f 501 467 503
f 501 503 517
f 517 503 519
f 517 519 505
f 505 519 507
f 505 507 469
f 469 507 471
f 469 471 447
f 447 471 449
f 447 449 431
f 431 449 433
f 431 433 413
f 413 433 415
f 413 415 389
f 389 415 391
f 389 391 409
f 409 391 411
f 409 411 427
f 427 411 429
f 427 429 443
f 443 429 445
f 298 300 306
f 306 300 308
f 306 308 334
f 334 308 336
f 334 336 342
f 342 336 344
f 342 344 338
f 338 344 340
f 338 340 310
f 310 340 312
f 310 312 302
f 302 312 304
f 302 304 290
f 290 304 292
f 290 292 274
f 274 292 276
f 274 276 266
f 266 276 267
f 266 267 270
f 270 267 272
f 270 272 286
f 286 272 288
f 286 288 298
f 298 288 300
f 435 437 457
f 457 437 459
f 457 459 493
f 493 459 495
f 493 495 513
f 513 495 515
f 513 515 497
f 497 515 499
f 497 499 461
f 461 499 463
f 461 463 439
f 439 463 441
f 439 441 423
f 423 441 425
f 423 425 405
f 405 425 407
f 405 407 385
f 385 407 387
f 385 387 401
f 401 387 403
f 401 403 419
f 419 403 421
f 419 421 435
f 435 421 437
f 1230 1274 1231
f 1231 1274 1275
f 1276 1226 1277
f 1277 1226 1227
f 1230 1231 1229
f 1230 1229 1226
f 1226 1229 1228
f 1226 1228 1227
f 1230 1226 1276

